<?xml version="1.0" standalone="no"?>
<!DOCTYPE svg PUBLIC "-//W3C//DTD SVG 1.1//EN" "http://www.w3.org/Graphics/SVG/1.1/DTD/svg11.dtd" >
<svg xmlns="http://www.w3.org/2000/svg" xmlns:xlink="http://www.w3.org/1999/xlink" version="1.1">
<metadata>
Created by FontForge 20170731 at Sat Feb  4 13:31:57 2017
 By Aleksey,,,
Copyright 2015 The Cormorant Project Authors (github.com/CatharsisFonts/Cormorant)
</metadata>
<defs>
<font id="Cormorant-Bold" horiz-adv-x="716" >
  <font-face 
    font-family="Cormorant"
    font-weight="700"
    font-stretch="normal"
    units-per-em="1000"
    panose-1="0 0 8 0 0 0 0 0 0 0"
    ascent="800"
    descent="-200"
    x-height="386"
    cap-height="625"
    bbox="-371.8 -282.167 1451.8 937"
    underline-thickness="50"
    underline-position="-150"
    unicode-range="U+0020-A729"
  />
<missing-glyph horiz-adv-x="501" 
d="M94 -275v1000h317v-1000h-317zM168 626h65v-38h-66v-32h166v32h-66v38h66v32h-165v-32zM167 426h166v34h-66v69h-100v-103zM200 460v35h33v-35h-33zM167 365h66v-36h-66v-34h100v70h66v33h-166v-33zM301 273h-134v-34h166v99h-32v-65zM233 160h34v24h34v-48h-101v80h-33
v-113h166v113h-100v-56zM167 -70h166v113h-166v-113zM200 -37v48h101v-48h-101zM167 -126h70l-70 -47v-33h166v33h-101l69 47h32v34h-166v-34z" />
    <glyph glyph-name="Aogonek_acutecomb.liga" unicode="&#x104;&#x301;" 
d="M0 0zM722 3.5q0 -5.5 -5 -5.5q-25 0 -63 2l-49 1q-50 0 -75.5 -30.5t-25.5 -85.5t24.5 -86.5t60.5 -31.5q23 0 43 11h1q3 0 5.5 -3t0.5 -5q-27 -24 -54 -34.5t-58 -10.5q-55 0 -86.5 30t-31.5 77q0 35 16 58.5t46 51.5q27 26 40 44.5t13 44.5q0 28 -18 63l-104 205h-177
l-72 -157q-13 -29 -13 -54q0 -36 25.5 -56t68.5 -20q5 0 5 -6t-5 -6q-18 0 -52 2q-38 2 -66 2q-27 0 -65 -2q-34 -2 -55 -2q-4 0 -4 6t4 6q28 0 47.5 11.5t38 41t43.5 87.5l218 477q2 3 9 3q8 0 9 -3l250 -492q34 -68 58.5 -98t47.5 -30q5 0 5 -5.5zM237 327h151l-79 157z
M259 678q-4 0 -5 4.5t2 6.5q29 21 81 66q30 26 45 38q5 5 35.5 -3.5t54 -20t11.5 -13.5q-62 -15 -113.5 -33.5t-108.5 -43.5z" />
    <glyph glyph-name="Eogonek_acutecomb.liga" unicode="&#x118;&#x301;" horiz-adv-x="552" 
d="M38 0zM505 -222q3 0 5.5 -3t-0.5 -5q-55 -45 -112 -45q-51 0 -84.5 32t-33.5 78q0 80 119 165h-358q-3 0 -3 6t3 6q32 0 46.5 5t19.5 19.5t5 44.5v463q0 30 -5 44t-20 19.5t-46 5.5q-3 0 -3 6t3 6h424q10 0 10 -9l2 -133q0 -2 -5.5 -3t-6.5 2q-16 58 -54 86t-100 28h-30
q-30 0 -44 -13t-14 -40v-204h83q58 0 89 20t31 56q0 3 5.5 3t5.5 -3l-1 -90l1 -48q2 -34 2 -54q0 -2 -6 -2t-6 2q0 41 -31.5 64.5t-90.5 23.5h-82v-226q0 -29 11 -43t35 -14h33q78 0 125 32t69 99q0 2 4 2q3 0 5.5 -1.5t2.5 -2.5q-10 -78 -10 -142q0 -8 -3 -11.5t-12 -3.5
h-62q-31 -31 -44.5 -57t-13.5 -60q0 -52 26 -84t71 -32q11 0 24 3.5t19 7.5h2zM177 678q-4 0 -5 4.5t2 6.5q29 21 81 66q30 26 45 38q5 5 35.5 -3.5t54 -20t11.5 -13.5q-62 -15 -113.5 -33.5t-108.5 -43.5z" />
    <glyph glyph-name="IJ_acutecomb.liga" unicode="&#x132;&#x301;" horiz-adv-x="699" 
d="M35 0zM226 305q5 -14 20 -19t48 -5q2 0 2 -6t-2 -6q-34 0 -53 1l-76 1l-73 -1q-20 -1 -55 -1q-2 0 -2 6t2 6q32 0 47 5t20.5 19.5t5.5 44.5v194q0 30 -5.5 44t-20.5 19.5t-47 5.5q-2 0 -2 6t2 6l55 -1q46 -2 73 -2q31 0 77 2l52 1q2 0 2 -6t-2 -6q-32 0 -47 -6
t-20.5 -20.5t-5.5 -44.5v-192q0 -31 5 -45zM673 619q0 -6 -3 -6q-26 0 -38.5 -6t-16.5 -20.5t-4 -44.5v-284q0 -129 -72.5 -200t-193.5 -71q-67 0 -123 20.5t-88.5 53.5t-32.5 69q0 25 16 42t46 17q32 0 44 -18.5t20 -56.5q7 -34 17 -55t34 -36t68 -15q152 0 152 192v344
q0 30 -6.5 44t-23.5 19.5t-54 5.5q-2 0 -2 6t2 6l62 -1q48 -2 77 -2q28 0 70 2l47 1q3 0 3 -6zM442 678q-4 0 -5 4.5t2 6.5q29 21 81 66q30 26 45 38q5 5 35.5 -3.5t54 -20t11.5 -13.5q-62 -15 -113.5 -33.5t-108.5 -43.5zM68 678q-4 0 -5 4.5t2 6.5q29 21 81 66
q30 26 45 38q5 5 35.5 -3.5t54 -20t11.5 -13.5q-62 -15 -113.5 -33.5t-108.5 -43.5z" />
    <glyph glyph-name="Iogonek_acutecomb.liga" unicode="&#x12e;&#x301;" horiz-adv-x="342" 
d="M40 0zM301 6q0 -6 -3 -6q-32 0 -49 1l-71 1q-19 -42 -19 -93q0 -37 11.5 -68.5t31.5 -50.5t43 -19q19 0 31 7h2q3 0 5.5 -3t-0.5 -5q-24 -24 -47.5 -34.5t-55.5 -10.5q-49 0 -76.5 28.5t-27.5 78.5q0 83 84 170l-67 -1q-19 -1 -51 -1q-2 0 -2 6t2 6q32 0 47 5t20.5 19.5
t5.5 44.5v463q0 30 -5.5 44t-20.5 19.5t-47 5.5q-2 0 -2 6t2 6l54 -1q46 -2 74 -2q31 0 77 2l51 1q3 0 3 -6t-3 -6q-31 0 -46 -6t-20 -20.5t-5 -44.5v-461q0 -31 5 -45t19.5 -19t46.5 -5q3 0 3 -6zM72 678q-4 0 -5 4.5t2 6.5q29 21 81 66q30 26 45 38q5 5 35.5 -3.5t54 -20
t11.5 -13.5q-62 -15 -113.5 -33.5t-108.5 -43.5z" />
    <glyph glyph-name="J_acutecomb.liga" unicode="J&#x301;" horiz-adv-x="335" 
d="M20 0zM215.5 -100q-18.5 -63 -62.5 -103t-126 -72h-1q-3 0 -4.5 4.5t0.5 6.5q56 36 78 109.5t22 194.5v504q0 30 -5.5 44t-20.5 19.5t-47 5.5q-2 0 -2 6t2 6l57 -1q46 -2 71 -2q27 0 69 2l48 1q2 0 2 -6t-2 -6q-26 0 -38.5 -6t-17 -20.5t-4.5 -44.5v-475
q0 -104 -18.5 -167zM73 678q-4 0 -5.5 4.5t1.5 6.5q31 22 87 70q13 12 39 34q5 4 35.5 -4.5t54 -19.5t11.5 -13q-118 -30 -222 -78h-1z" />
    <glyph glyph-name="uni01EA0301.liga" unicode="&#x1ea;&#x301;" horiz-adv-x="766" 
d="M49 0zM680.5 172q-36.5 -68 -99.5 -114t-140 -62q-29 -29 -41.5 -54.5t-12.5 -58.5q0 -52 26 -84t71 -32q11 0 24 3.5t19 7.5h2q3 0 5.5 -3t-0.5 -5q-55 -45 -112 -45q-51 0 -84.5 32t-33.5 78q0 75 107 156q-22 -3 -45 -3q-93 0 -165.5 43.5t-112 118t-39.5 162.5
q0 103 52 176.5t133.5 110.5t166.5 37q95 0 167 -44.5t110.5 -117.5t38.5 -155q0 -79 -36.5 -147zM201.5 175.5q29.5 -76.5 81 -119.5t116.5 -43q56 0 100.5 32.5t69.5 95t25 149.5q0 92 -28 164.5t-81 113.5t-124 41q-91 0 -140 -68.5t-49 -191.5q0 -97 29.5 -173.5z
M285 678q-4 0 -5 4.5t2 6.5q29 21 81 66q30 26 45 38q5 5 35.5 -3.5t54 -20t11.5 -13.5q-62 -15 -113.5 -33.5t-108.5 -43.5z" />
    <glyph glyph-name="aogonek_acutecomb.liga" unicode="&#x105;&#x301;" horiz-adv-x="421" 
d="M40 0zM419 54q4 0 5.5 -4.5t-2.5 -6.5l-103 -49l-6 -2q-27 -28 -38.5 -52.5t-11.5 -56.5q0 -52 26 -84t71 -32q11 0 24 3.5t19 7.5h2q3 0 5.5 -3t-0.5 -5q-55 -45 -112 -45q-51 0 -84.5 32t-33.5 78q0 78 114 161q-25 14 -35 52l-46 -25q-26 -13 -54 -21.5t-50 -8.5
q-32 0 -50.5 16.5t-18.5 47.5q0 23 11.5 37t33 23.5t68.5 25.5l102 33v79q0 60 -12 88.5t-39 28.5q-24 0 -38 -18t-17 -59q-6 -56 -59 -56q-47 0 -47 41q0 27 34 54t82 44t84 17q47 0 76.5 -28t29.5 -82v-177q0 -29 10.5 -45t29.5 -16q14 0 29 7h1zM256 64q-1 7 -1 21v74
l-55 -20q-27 -10 -38.5 -22t-11.5 -29q0 -21 12 -33t30 -12q22 0 51 14zM208 472q-3 0 -5.5 1.5t-1.5 2.5l33 240q2 4 33 9.5t52 5.5q14 0 13 -4l-120 -253q0 -2 -4 -2z" />
    <glyph glyph-name="eogonek_acutecomb.liga" unicode="&#x119;&#x301;" horiz-adv-x="418" 
d="M32 0zM286.5 -61q-21.5 -42 -21.5 -86q0 -43 18 -66t53 -23q24 0 46 14h2q3 0 5.5 -3t-0.5 -5q-24 -24 -48.5 -34.5t-53.5 -10.5q-55 0 -85.5 26t-30.5 69q0 85 121 175q-25 -7 -57 -7q-63 0 -109 26.5t-70 71t-24 95.5q0 58 30 107.5t82 78t116 28.5q62 0 95 -26.5
t33 -72.5q0 -29 -11 -29h-61l-180 -2q-3 -19 -3 -42q0 -86 40.5 -136t111.5 -50q25 0 52 7t49 21l2 1q2 0 4.5 -4t0.5 -6q-19 -19 -37 -31q-48 -44 -69.5 -86zM171 351q-22 -24 -32 -66l142 3q-3 87 -58 87q-30 0 -52 -24zM203 472q-3 0 -5.5 1.5t-1.5 2.5l33 240
q2 4 33 9.5t52 5.5q14 0 13 -4l-120 -253q0 -2 -4 -2z" />
    <glyph glyph-name="ij_acutecomb.liga" unicode="&#x133;&#x301;" horiz-adv-x="532" 
d="M16 0zM36 6q0 6 3 6q31 0 42 14.5t11 54.5v179q0 34 -7 49t-23 15q-13 0 -37 -11h-1q-4 0 -6 5.5t1 6.5l151 70l3 1q5 0 10 -5t5 -9v-22q-2 -40 -2 -98v-181q0 -40 11.5 -54.5t42.5 -14.5q3 0 3 -6t-3 -6q-26 0 -41 1l-60 1l-59 -1q-15 -1 -41 -1q-3 0 -3 6zM129 472
q-3 0 -5.5 1.5t-1.5 2.5l33 240q2 4 33 9.5t52 5.5q14 0 13 -4l-120 -253q0 -2 -4 -2zM457 360q-2 -40 -2 -98v-310q0 -68 -16.5 -111.5t-55 -72.5t-106.5 -50q-2 -1 -4.5 4.5t0.5 6.5q48 21 68 67t20 133v331q0 34 -6.5 49t-22.5 15q-13 0 -37 -11h-1q-4 0 -6.5 5.5
t0.5 6.5l151 70l3 1q5 0 10 -5t5 -9v-22zM396 472q-3 0 -5.5 1.5t-1.5 2.5l33 240q2 4 33 9.5t52 5.5q14 0 13 -4l-120 -253q0 -2 -4 -2z" />
    <glyph glyph-name="iogonek_acutecomb.liga" unicode="&#x12f;&#x301;" horiz-adv-x="263" 
d="M129 472q-3 0 -5.5 1.5t-1.5 2.5l33 240q2 4 33 9.5t52 5.5q14 0 13 -4l-120 -253q0 -2 -4 -2zM248 -219q3 0 5.5 -3t-0.5 -5q-24 -24 -47.5 -34.5t-55.5 -10.5q-49 0 -76.5 28.5t-27.5 78.5q0 81 81 167l-52 -1q-14 -1 -36 -1q-3 0 -3 6t3 6q31 0 42 14.5t11 54.5v179
q0 34 -7 49t-23 15q-13 0 -37 -11h-1q-4 0 -6 5.5t1 6.5l151 70l3 1q5 0 10 -5t5 -9v-22q-2 -40 -2 -98v-181q0 -40 11.5 -54.5t42.5 -14.5q3 0 3 -6t-3 -6q-25 0 -39 1l-54 1q-18 -42 -18 -90q0 -37 11.5 -68.5t31.5 -50.5t43 -19q19 0 31 7h2z" />
    <glyph glyph-name="j_acutecomb.liga" unicode="j&#x301;" horiz-adv-x="263" 
d="M1 0zM188 360q-2 -40 -2 -98v-310q0 -68 -16.5 -111.5t-55 -72.5t-106.5 -50q-2 -1 -4.5 4.5t0.5 6.5q48 21 68 67t20 133v331q0 34 -6.5 49t-22.5 15q-13 0 -37 -11h-1q-4 0 -6.5 5.5t0.5 6.5l151 70l3 1q5 0 10 -5t5 -9v-22zM127 472q-3 0 -5.5 1.5t-1.5 2.5l33 240
q2 4 33 9.5t52 5.5q14 0 13 -4l-120 -253q0 -2 -4 -2z" />
    <glyph glyph-name="uni01EB0301.liga" unicode="&#x1eb;&#x301;" horiz-adv-x="489" 
d="M32 0zM407.5 60.5q-49.5 -54.5 -124.5 -69.5q-30 -67 -30 -136q0 -46 19 -68.5t57 -22.5q26 0 52 14h2q3 0 5.5 -3t-0.5 -5q-55 -45 -120 -45q-54 0 -82 25.5t-28 70.5q0 84 94 166h-15q-62 0 -108.5 28.5t-71.5 77t-25 105.5q0 65 33 110.5t84 68t105 22.5q62 0 108 -29
t70.5 -76.5t24.5 -101.5q0 -77 -49.5 -131.5zM157 116.5q17 -51.5 46 -80t64 -28.5q39 0 59.5 38.5t20.5 110.5q0 70 -18 120t-47 75.5t-62 25.5q-80 0 -80 -143q0 -67 17 -118.5zM238 472q-3 0 -5.5 1.5t-1.5 2.5l33 240q2 4 33 9.5t52 5.5q14 0 13 -4l-120 -253
q0 -2 -4 -2z" />
    <glyph glyph-name="T_T.liga" unicode="TT" horiz-adv-x="1159" 
d="M1116.5 654q5.5 0 5.5 -4q-3 -30 -6 -96t-3 -106q0 -3 -5 -3t-6 3q-19 79 -57.5 116.5t-100.5 37.5q-30 0 -39 -11t-9 -49v-461q0 -31 5.5 -45t22.5 -19t55 -5q2 0 2 -6t-2 -6q-37 0 -57 1l-83 1l-81 -1q-21 -1 -59 -1q-2 0 -2 6t2 6q37 0 54.5 5t24 19.5t6.5 44.5v463
q0 36 -9 47t-37 11q-50 0 -80.5 -14t-47.5 -47.5t-25 -92.5q0 -3 -6 -3t-6 3q-5 59 -20.5 92.5t-46.5 47.5t-84 14q-23 0 -32 -13t-9 -47v-461q0 -30 5 -44.5t20 -19.5t47 -5q2 0 2 -6t-2 -6q-33 0 -52 1l-77 1l-81 -1q-21 -1 -58 -1q-3 0 -3 6t3 6q36 0 53.5 5t24 19.5
t6.5 44.5v463q0 33 -10.5 45.5t-36.5 12.5q-58 0 -99.5 -37.5t-71.5 -117.5q-1 -3 -6 -2.5t-5 3.5q5 32 11.5 98.5t6.5 100.5q0 5 6 5t6 -5q0 -22 53 -22q85 -3 201 -3q56 0 118 2l63 1q42 0 56 1t17.5 6t5.5 19q0 4 5.5 4t5.5 -4q-1 -14 1 -18.5t11.5 -5.5t41.5 -2
q81 -3 190 -3q59 0 125 2l68 1q37 0 55 5t23 20q1 4 6.5 4z" />
    <glyph glyph-name="T_h.liga" unicode="Th" horiz-adv-x="1048" 
d="M1034 6q0 -6 -4 -6q-26 0 -41 1l-59 1l-60 -1q-15 -1 -41 -1q-2 0 -2 6t2 6q31 0 42.5 14.5t11.5 54.5v144q0 54 -20 80t-62 26q-24 0 -49 -9.5t-44 -26.5v-214q0 -40 11 -54.5t42 -14.5q4 0 4 -6t-4 -6q-26 0 -41 1l-59 1l-60 -1q-15 -1 -41 -1q-2 0 -2 6t2 6
q31 0 42.5 14.5t11.5 54.5v504q0 10 -4.5 13.5t-16.5 3.5h-165q-29 0 -38.5 -12.5t-9.5 -47.5v-461q0 -31 6 -45t23 -19t54 -5q3 0 3 -6t-3 -6q-36 0 -57 1l-83 1l-81 -1q-21 -1 -58 -1q-3 0 -3 6t3 6q36 0 53.5 5t24 19.5t6.5 44.5v463q0 34 -9 46t-37 12q-119 0 -171 -155
q-1 -3 -6 -2.5t-5 3.5q4 40 9 103.5t5 95.5q0 5 5.5 5t5.5 -5q0 -22 57 -22q86 -3 201 -3q153 0 194 3q61 3 105.5 31t66.5 69q2 3 8 3q11 0 11 -5v-406q32 39 70.5 60t81.5 21q54 0 85.5 -34.5t31.5 -90.5v-192q0 -40 11 -54.5t42 -14.5q4 0 4 -6z" />
    <glyph glyph-name="f_b.liga" unicode="fb" horiz-adv-x="830" 
d="M715 378q38 -21 61 -63t23 -102q0 -72 -30.5 -123t-79.5 -77t-103 -26q-83 0 -145 47l-90 -41h-2q-4 0 -5 3.5t2 5.5q25 14 37 38t12 63v526q-21 37 -48 58t-56 21q-58 0 -85 -79q-25 -72 -25 -190v-61q31 1 110 9q3 0 5 -7.5t2 -16.5q0 -10 -3.5 -19.5t-6.5 -8.5
q-48 12 -107 15v-269q0 -31 6 -45t24.5 -19t58.5 -5q4 0 4 -6t-4 -6l-69 1q-23 1 -68 1l-61 -1q-16 -1 -45 -1q-4 0 -4 6t4 6q26 0 38.5 5t17 19.5t4.5 44.5v225q0 31 -13 40.5t-51 9.5q-3 0 -3 9t3 9q35 0 48 9.5t14 34.5q6 155 54 225q29 43 73.5 63t106.5 20
q86 0 141 -41q17 23 17 46q0 3 6 3t6 -3v-399q33 31 67 49t77 18q44 0 82 -21zM673.5 49.5q22.5 43.5 22.5 124.5q0 87 -29.5 129.5t-80.5 42.5q-47 0 -97 -34v-200q21 -53 52.5 -79.5t65.5 -26.5q44 0 66.5 43.5z" />
    <glyph glyph-name="f_f.liga" unicode="ff" horiz-adv-x="605" 
d="M705 710.5q31 -15.5 31 -43.5q0 -23 -15.5 -36t-35.5 -13q-24 0 -35 11t-20 32t-19 31.5t-32 10.5q-46 0 -72.5 -64t-26.5 -200v-61q31 1 110 9q3 0 5 -7.5t2 -16.5q0 -10 -3.5 -19.5t-6.5 -8.5q-48 12 -107 15v-269q0 -31 6 -45t24.5 -19t58.5 -5q4 0 4 -6t-4 -6l-69 1
q-23 1 -68 1l-61 -1q-16 -1 -45 -1q-4 0 -4 6t4 6q26 0 38.5 5t17 19.5t4.5 44.5v225v1q0 8 -1 11q-1 20 -13.5 26.5t-44.5 8.5q-33 1 -146 1v-273q0 -31 6 -45t24.5 -19t58.5 -5q4 0 4 -6t-4 -6l-69 1q-23 1 -68 1l-61 -1q-16 -1 -45 -1q-4 0 -4 6t4 6q26 0 38.5 5t17 19.5
t4.5 44.5v225q0 31 -13 40.5t-51 9.5q-3 0 -3 9t3 9q35 0 48 9.5t14 34.5q7 143 70 208t176 65q37 0 70 -7t56 -18q54 60 161 60q56 0 87 -15.5zM181 377q100 0 141 1q24 1 36.5 3.5t18.5 8.5q7 12 7 28q3 115 34 186q-23 31 -55 49t-64 18q-54 0 -86 -57t-32 -175v-62z" />
    <glyph glyph-name="f_f_b.liga" unicode="ffb" horiz-adv-x="1130" 
d="M1014 378q38 -21 61 -63t23 -102q0 -72 -30.5 -123t-79.5 -77t-103 -26q-83 0 -145 47l-90 -41h-2q-4 0 -5 3.5t2 5.5q25 14 37 38t12 63v526q-21 37 -48 58t-56 21q-58 0 -85 -79q-25 -72 -25 -190v-61q31 1 110 9q3 0 5 -7.5t2 -16.5q0 -10 -3.5 -19.5t-6.5 -8.5
q-48 12 -107 15v-269q0 -31 6 -45t24.5 -19t58.5 -5q4 0 4 -6t-4 -6l-69 1q-23 1 -68 1l-61 -1q-16 -1 -45 -1q-4 0 -4 6t4 6q26 0 38.5 5t17 19.5t4.5 44.5v225v1q0 8 -1 11q-1 20 -13.5 26.5t-44.5 8.5q-33 1 -146 1v-273q0 -31 6 -45t24.5 -19t58.5 -5q4 0 4 -6t-4 -6
l-69 1q-23 1 -68 1l-61 -1q-16 -1 -45 -1q-4 0 -4 6t4 6q26 0 38.5 5t17 19.5t4.5 44.5v225q0 31 -13 40.5t-51 9.5q-3 0 -3 9t3 9q35 0 48 9.5t14 34.5q7 143 70 208t176 65q71 0 125 -25q56 60 162 60q86 0 141 -41q17 23 17 46q0 3 6 3t6 -3v-399q33 31 67 49t77 18
q44 0 82 -21zM181 377q100 0 141 1q24 1 36.5 3.5t18.5 8.5q7 12 7 28q5 120 33 187q-22 31 -54 48.5t-64 17.5q-54 0 -86 -57t-32 -175v-62zM972.5 49.5q22.5 43.5 22.5 124.5q0 87 -29.5 129.5t-80.5 42.5q-47 0 -97 -34v-200q21 -53 52.5 -79.5t65.5 -26.5
q44 0 66.5 43.5z" />
    <glyph glyph-name="f_f_f.liga" unicode="fff" horiz-adv-x="904" 
d="M918 710.5q31 -15.5 31 -43.5q0 -23 -15.5 -36t-35.5 -13q-24 0 -35 11t-20 32t-19 31.5t-32 10.5q-26 0 -47 -21q21 -14 32 -27l-44 -77q-10 24 -21 40q-19 -66 -19 -179v-39l11 -22q45 3 99 9q3 0 5 -7.5t2 -16.5q0 -10 -3.5 -19.5t-6.5 -8.5q-43 10 -100 15l-7 -21
v-248q0 -31 6 -45t24.5 -19t58.5 -5q4 0 4 -6t-4 -6l-69 1q-23 1 -68 1l-74 -1q0 -1 -1 -1h-19h-12h-1q-72 2 -105 2l-61 -1q-17 -1 -46 -1q-3 0 -3 6t3 6q26 0 38.5 5t17 19.5t4.5 44.5v225v1v0v1v0v1q-1 25 -12.5 33.5t-46.5 10.5q-33 1 -146 1v-273q0 -31 6 -45t24.5 -19
t58.5 -5q4 0 4 -6t-4 -6l-69 1q-23 1 -68 1l-61 -1q-16 -1 -45 -1q-4 0 -4 6t4 6q26 0 38.5 5t17 19.5t4.5 44.5v225q0 31 -13 40.5t-51 9.5q-3 0 -3 9t3 9q35 0 48 9.5t14 34.5q7 143 70 208t176 65q43 0 80 -9t59 -22q59 55 160 55q44 0 81 -16q47 27 120 27
q56 0 87 -15.5zM513 632q-32 -63 -32 -193v-62h88q15 4 21 13.5t7 27.5q6 176 73 249q-34 28 -71 28q-54 0 -86 -63zM181 377q100 0 141 1q28 1 41 4.5t18 13.5q4 12 4 20v2q4 111 38 178q-22 35 -55.5 55t-68.5 20q-54 0 -86 -57t-32 -175v-62zM599 306q0 23 -7 33.5
t-24 14.5h-87v-273q0 -28 5 -42t19.5 -20t45.5 -7q30 1 39 15t9 54v225z" />
    <glyph glyph-name="f_f_h.liga" unicode="ffh" horiz-adv-x="1129" 
d="M1114 6q0 -6 -3 -6q-26 0 -41 1l-60 1l-59 -1q-15 -1 -41 -1q-3 0 -3 6t3 6q30 0 41.5 14.5t11.5 54.5v144q0 54 -19.5 80t-62.5 26q-23 0 -48.5 -10t-44.5 -27v-213q0 -40 11.5 -54.5t42.5 -14.5q3 0 3 -6t-3 -6q-26 0 -41 1l-60 1l-59 -1q-15 -1 -41 -1q-3 0 -3 6t3 6
q30 0 41.5 14.5t11.5 54.5v548q-21 37 -48 58t-56 21q-51 0 -80.5 -65t-29.5 -204v-61q31 1 110 9q3 0 5 -7.5t2 -16.5q0 -10 -3.5 -19.5t-6.5 -8.5q-48 12 -107 15v-269q0 -31 6 -45t24.5 -19t58.5 -5q4 0 4 -6t-4 -6l-69 1q-23 1 -68 1l-61 -1q-16 -1 -45 -1q-4 0 -4 6
t4 6q26 0 38.5 5t17 19.5t4.5 44.5v225v1q0 8 -1 11q-1 20 -13.5 26.5t-44.5 8.5q-33 1 -146 1v-273q0 -31 6 -45t24.5 -19t58.5 -5q4 0 4 -6t-4 -6l-69 1q-23 1 -68 1l-61 -1q-16 -1 -45 -1q-4 0 -4 6t4 6q26 0 38.5 5t17 19.5t4.5 44.5v225q0 31 -13 40.5t-51 9.5
q-3 0 -3 9t3 9q35 0 48 9.5t14 34.5q7 143 70 208t176 65q71 0 125 -25q56 60 162 60q86 0 141 -41q17 23 17 46q0 3 6 3t6 -3v-414q71 81 152 81q54 0 85.5 -34.5t31.5 -90.5v-192q0 -40 11.5 -54.5t42.5 -14.5q3 0 3 -6zM181 377q100 0 141 1q24 1 36.5 3.5t18.5 8.5
q7 12 7 28q3 114 34 187q-23 31 -55 48.5t-64 17.5q-54 0 -86 -57t-32 -175v-62z" />
    <glyph glyph-name="f_f_i.liga" unicode="ffi" horiz-adv-x="869" 
d="M542.5 678q-28.5 -28 -45.5 -88t-17 -151v-61q31 1 110 9q3 0 5 -7.5t2 -16.5q0 -10 -3.5 -19.5t-6.5 -8.5q-48 12 -107 15v-269q0 -31 6 -45t24.5 -19t58.5 -5q4 0 4 -6t-4 -6l-69 1q-23 1 -68 1l-61 -1q-16 -1 -45 -1q-4 0 -4 6t4 6q26 0 38.5 5t17 19.5t4.5 44.5v225
v1q0 8 -1 11q-1 20 -13.5 26.5t-44.5 8.5q-33 1 -146 1v-273q0 -31 6 -45t24.5 -19t58.5 -5q4 0 4 -6t-4 -6l-69 1q-23 1 -68 1l-61 -1q-16 -1 -45 -1q-4 0 -4 6t4 6q26 0 38.5 5t17 19.5t4.5 44.5v225q0 31 -13 40.5t-51 9.5q-3 0 -3 9t3 9q35 0 48 9.5t14 34.5
q7 143 70 208t176 65q40 0 74.5 -8t57.5 -20q60 63 174 63q68 0 107 -21t39 -56q0 -19 -12.5 -31t-36.5 -12q-23 0 -35 11.5t-26 36.5q-15 26 -29 39t-39 13q-34 0 -62.5 -28zM181 377q100 0 141 1q24 1 36.5 3.5t18.5 8.5q7 12 7 28q5 114 37 182q-23 33 -55.5 52t-66.5 19
q-54 0 -86 -57t-32 -175v-62zM849 6q0 -6 -4 -6q-26 0 -42 1l-58 1l-60 -1q-15 -1 -41 -1q-2 0 -2 6t2 6q31 0 42.5 14.5t11.5 54.5v179q0 34 -6.5 49t-22.5 15q-13 0 -38 -11h-1q-4 0 -6 5.5t0 6.5l151 70q1 1 3 1q5 0 10.5 -5t5.5 -9q0 -12 -1 -22q-2 -40 -2 -98v-181
q0 -40 11.5 -54.5t42.5 -14.5q4 0 4 -6z" />
    <glyph glyph-name="f_f_j.liga" unicode="ffj" horiz-adv-x="877" 
d="M516 640q-36 -66 -36 -201v-61q31 1 110 9q3 0 5 -7.5t2 -16.5q0 -10 -3.5 -19.5t-6.5 -8.5q-48 12 -107 15v-269q0 -31 6 -45t24.5 -19t58.5 -5q4 0 4 -6t-4 -6l-69 1q-23 1 -68 1l-61 -1q-16 -1 -45 -1q-4 0 -4 6t4 6q26 0 38.5 5t17 19.5t4.5 44.5v225v1q0 8 -1 11
q-1 20 -13.5 26.5t-44.5 8.5q-33 1 -146 1v-273q0 -31 6 -45t24.5 -19t58.5 -5q4 0 4 -6t-4 -6l-69 1q-23 1 -68 1l-61 -1q-16 -1 -45 -1q-4 0 -4 6t4 6q26 0 38.5 5t17 19.5t4.5 44.5v225q0 31 -13 40.5t-51 9.5q-3 0 -3 9t3 9q35 0 48 9.5t14 34.5q7 143 70 208t176 65
q40 0 74.5 -8t57.5 -20q60 63 168 63q79 0 121.5 -21t42.5 -56q0 -19 -12.5 -31t-36.5 -12q-25 0 -39.5 12.5t-30.5 38.5q-16 25 -29.5 37t-36.5 12q-58 0 -94 -66zM181 377q100 0 141 1q24 1 36.5 3.5t18.5 8.5q7 12 7 28q4 111 37 182q-22 33 -55 52t-67 19q-54 0 -86 -57
t-32 -175v-62zM790 396q5 0 10 -5t5 -9v-22q-2 -40 -2 -98v-310q0 -68 -16.5 -111.5t-55 -72.5t-106.5 -50q-2 -1 -4.5 4.5t0.5 6.5q48 21 68.5 67.5t20.5 132.5v331q0 33 -6.5 48.5t-22.5 15.5q-13 0 -38 -11h-1q-4 0 -6.5 5.5t0.5 6.5l151 70q1 1 3 1z" />
    <glyph glyph-name="f_f_k.liga" unicode="ffk" horiz-adv-x="1111" 
d="M1119 6q0 -6 -2 -6q-26 0 -41 1l-60 1l-77 -1q-17 -1 -47 -1q-3 0 -3 6t3 6q18 0 27.5 5.5t9.5 15.5t-9 20l-113 146l-19 -17v-101q0 -40 11.5 -54.5t42.5 -14.5q3 0 3 -6t-3 -6q-26 0 -41 1l-60 1l-59 -1q-15 -1 -41 -1q-3 0 -3 6t3 6q30 0 41.5 14.5t11.5 54.5v548
q-21 37 -48 58t-56 21q-51 0 -80.5 -65t-29.5 -204v-61q31 1 110 9q3 0 5 -7.5t2 -16.5q0 -10 -3.5 -19.5t-6.5 -8.5q-48 12 -107 15v-269q0 -31 6 -45t24.5 -19t58.5 -5q4 0 4 -6t-4 -6l-69 1q-23 1 -68 1l-61 -1q-16 -1 -45 -1q-4 0 -4 6t4 6q26 0 38.5 5t17 19.5
t4.5 44.5v225v1q0 8 -1 11q-1 20 -13.5 26.5t-44.5 8.5q-33 1 -146 1v-273q0 -31 6 -45t24.5 -19t58.5 -5q4 0 4 -6t-4 -6l-69 1q-23 1 -68 1l-61 -1q-16 -1 -45 -1q-4 0 -4 6t4 6q26 0 38.5 5t17 19.5t4.5 44.5v225q0 31 -13 40.5t-51 9.5q-3 0 -3 9t3 9q35 0 48 9.5
t14 34.5q7 143 70 208t176 65q71 0 125 -25q56 60 162 60q86 0 141 -41q17 23 17 46q0 3 6 3t6 -3v-525l92 89q26 24 26 49q0 13 -9.5 21.5t-27.5 8.5q-3 0 -3 6t3 6q29 0 45 -1l79 -1l72 1q14 1 40 1q2 0 2 -6t-2 -6q-43 0 -99 -22t-100 -62l-36 -33l138 -176
q28 -36 54.5 -52.5t54.5 -16.5q2 0 2 -6zM181 377q100 0 141 1q24 1 36.5 3.5t18.5 8.5q7 12 7 28q3 114 34 187q-23 31 -55 48.5t-64 17.5q-54 0 -86 -57t-32 -175v-62z" />
    <glyph glyph-name="f_f_l.liga" unicode="ffl" horiz-adv-x="867" 
d="M845 6q0 -6 -3 -6q-26 0 -41 1l-61 1l-58 -1q-15 -1 -41 -1q-3 0 -3 6t3 6q30 0 41.5 14.5t11.5 54.5v548q-21 37 -48 58t-56 21q-51 0 -80.5 -65t-29.5 -204v-61q31 1 110 9q3 0 5 -7.5t2 -16.5q0 -10 -3.5 -19.5t-6.5 -8.5q-48 12 -107 15v-269q0 -31 6 -45t24.5 -19
t58.5 -5q4 0 4 -6t-4 -6l-69 1q-23 1 -68 1l-61 -1q-16 -1 -45 -1q-4 0 -4 6t4 6q26 0 38.5 5t17 19.5t4.5 44.5v225v1q0 8 -1 11q-1 20 -13.5 26.5t-44.5 8.5q-33 1 -146 1v-273q0 -31 6 -45t24.5 -19t58.5 -5q4 0 4 -6t-4 -6l-69 1q-23 1 -68 1l-61 -1q-16 -1 -45 -1
q-4 0 -4 6t4 6q26 0 38.5 5t17 19.5t4.5 44.5v225q0 31 -13 40.5t-51 9.5q-3 0 -3 9t3 9q35 0 48 9.5t14 34.5q7 143 70 208t176 65q71 0 125 -25q56 60 162 60q86 0 141 -41q17 23 17 46q0 3 6 3t6 -3v-650q0 -40 11.5 -54.5t42.5 -14.5q3 0 3 -6zM181 377q100 0 141 1
q24 1 36.5 3.5t18.5 8.5q7 12 7 28q3 114 34 187q-23 31 -55 48.5t-64 17.5q-54 0 -86 -57t-32 -175v-62z" />
    <glyph glyph-name="f_f_thorn.liga" unicode="ff&#xfe;" horiz-adv-x="1123" 
d="M788 -3v-191q0 -30 6.5 -44t25 -19.5t57.5 -5.5q2 0 2 -6t-2 -6q-38 0 -59 1l-78 1l-60 -1q-16 -1 -42 -1q-2 0 -2 6t2 6q24 0 35.5 5.5t16 19.5t4.5 44v823q-21 37 -48 58t-56 21q-51 0 -80.5 -65t-29.5 -204v-61q31 1 110 9q3 0 5 -7.5t2 -16.5q0 -10 -3.5 -19.5
t-6.5 -8.5q-48 12 -107 15v-269q0 -31 6 -45t24.5 -19t58.5 -5q4 0 4 -6t-4 -6l-69 1q-23 1 -68 1l-61 -1q-16 -1 -45 -1q-4 0 -4 6t4 6q26 0 38.5 5t17 19.5t4.5 44.5v225v1q0 8 -1 11q-1 20 -13.5 26.5t-44.5 8.5q-33 1 -146 1v-273q0 -31 6 -45t24.5 -19t58.5 -5
q4 0 4 -6t-4 -6l-69 1q-23 1 -68 1l-61 -1q-16 -1 -45 -1q-4 0 -4 6t4 6q26 0 38.5 5t17 19.5t4.5 44.5v225q0 31 -13 40.5t-51 9.5q-3 0 -3 9t3 9q35 0 48 9.5t14 34.5q7 143 70 208t176 65q71 0 125 -25q56 60 162 60q86 0 141 -41q17 23 17 46q0 3 6 3t6 -3v-393
q71 61 144 61q42 0 78.5 -22t58.5 -64t22 -98q0 -80 -33 -131.5t-83.5 -74t-104.5 -22.5q-45 0 -82 10zM181 377q100 0 141 1q24 1 36.5 3.5t18.5 8.5q7 12 7 28q3 114 34 187q-23 31 -55 48.5t-64 17.5q-54 0 -86 -57t-32 -175v-62zM788 314v-257q21 -22 44 -33.5t56 -11.5
q102 0 102 172q0 76 -35.5 117.5t-88.5 41.5q-43 0 -78 -29z" />
    <glyph glyph-name="f_f_t.liga" unicode="fft" horiz-adv-x="929" 
d="M916 69q4 0 6.5 -3.5t-0.5 -5.5q-37 -37 -71.5 -54.5t-74.5 -17.5q-44 0 -74.5 21t-30.5 71v226q0 22 -12.5 32t-51 13.5t-127.5 4.5v-275q0 -31 6 -45t24.5 -19t58.5 -5q4 0 4 -6t-4 -6l-69 1q-23 1 -68 1l-61 -1q-16 -1 -45 -1q-4 0 -4 6t4 6q26 0 38.5 5t17 19.5
t4.5 44.5v225v1q0 8 -1 11q-1 20 -13.5 26.5t-44.5 8.5q-33 1 -146 1v-273q0 -31 6 -45t24.5 -19t58.5 -5q4 0 4 -6t-4 -6l-69 1q-23 1 -68 1l-61 -1q-16 -1 -45 -1q-4 0 -4 6t4 6q26 0 38.5 5t17 19.5t4.5 44.5v225q0 31 -13 40.5t-51 9.5q-3 0 -3 9t3 9q35 0 48 9.5
t14 34.5q7 143 70 208t176 65q71 0 125 -25q56 60 162 60q56 0 87 -15.5t31 -43.5q0 -23 -15.5 -36t-37.5 -13q-23 0 -35.5 12.5t-22.5 36.5q-8 20 -17.5 29.5t-28.5 9.5q-46 0 -72.5 -65.5t-26.5 -201.5v-61q99 0 141 3q47 3 73 20.5t56 56.5q1 4 9 4q7 0 7 -4v-80
q59 1 129 9q3 0 5.5 -7.5t2.5 -16.5q0 -10 -3.5 -19.5t-7.5 -8.5q-65 14 -126 15v-237q0 -38 19 -56t52 -18q22 0 42 7.5t34 21.5q1 1 3 1zM181 377q100 0 141 1q24 1 36.5 3.5t18.5 8.5q7 12 7 28q3 114 34 187q-23 31 -55 48.5t-64 17.5q-54 0 -86 -57t-32 -175v-62z" />
    <glyph glyph-name="f_h.liga" unicode="fh" horiz-adv-x="829" 
d="M815 6q0 -6 -3 -6q-26 0 -41 1l-60 1l-59 -1q-15 -1 -41 -1q-3 0 -3 6t3 6q30 0 41.5 14.5t11.5 54.5v144q0 54 -19.5 80t-62.5 26q-23 0 -48.5 -10t-44.5 -27v-213q0 -40 11.5 -54.5t42.5 -14.5q3 0 3 -6t-3 -6q-26 0 -41 1l-60 1l-59 -1q-15 -1 -41 -1q-3 0 -3 6t3 6
q30 0 41.5 14.5t11.5 54.5v548q-21 37 -48 58t-56 21q-51 0 -80.5 -65t-29.5 -204v-61q31 1 110 9q3 0 5 -7.5t2 -16.5q0 -10 -3.5 -19.5t-6.5 -8.5q-48 12 -107 15v-269q0 -31 6 -45t24.5 -19t58.5 -5q4 0 4 -6t-4 -6l-69 1q-23 1 -68 1l-61 -1q-16 -1 -45 -1q-4 0 -4 6
t4 6q26 0 38.5 5t17 19.5t4.5 44.5v225q0 31 -13 40.5t-51 9.5q-3 0 -3 9t3 9q35 0 48 9.5t14 34.5q5 163 61.5 235.5t172.5 72.5q86 0 141 -41q17 23 17 46q0 3 6 3t6 -3v-414q71 81 152 81q54 0 85.5 -34.5t31.5 -90.5v-192q0 -40 11.5 -54.5t42.5 -14.5q3 0 3 -6z" />
    <glyph glyph-name="f_j.liga" unicode="fj" horiz-adv-x="578" 
d="M217 640q-36 -66 -36 -201v-61q31 1 110 9q3 0 5 -7.5t2 -16.5q0 -10 -3.5 -19.5t-6.5 -8.5q-48 12 -107 15v-269q0 -31 6 -45t24.5 -19t58.5 -5q4 0 4 -6t-4 -6l-69 1q-23 1 -68 1l-61 -1q-16 -1 -45 -1q-4 0 -4 6t4 6q26 0 38.5 5t17 19.5t4.5 44.5v225q0 31 -13 40.5
t-51 9.5q-3 0 -3 9t3 9q35 0 48 9.5t14 34.5q7 161 70 234.5t177 73.5q79 0 121.5 -21t42.5 -56q0 -19 -12.5 -31t-36.5 -12q-25 0 -39.5 12.5t-30.5 38.5q-16 25 -29.5 37t-36.5 12q-58 0 -94 -66zM491 396q5 0 10 -5t5 -9v-22q-2 -40 -2 -98v-310q0 -68 -16.5 -111.5
t-55 -72.5t-106.5 -50q-2 -1 -4.5 4.5t0.5 6.5q48 21 68.5 67.5t20.5 132.5v331q0 33 -6.5 48.5t-22.5 15.5q-13 0 -38 -11h-1q-4 0 -6.5 5.5t0.5 6.5l151 70q1 1 3 1z" />
    <glyph glyph-name="f_k.liga" unicode="fk" horiz-adv-x="812" 
d="M820 6q0 -6 -2 -6q-26 0 -41 1l-60 1l-77 -1q-17 -1 -47 -1q-3 0 -3 6t3 6q18 0 27.5 5.5t9.5 15.5t-9 20l-113 146l-19 -17v-101q0 -40 11.5 -54.5t42.5 -14.5q3 0 3 -6t-3 -6q-26 0 -41 1l-60 1l-59 -1q-15 -1 -41 -1q-3 0 -3 6t3 6q30 0 41.5 14.5t11.5 54.5v548
q-21 37 -48 58t-56 21q-51 0 -80.5 -65t-29.5 -204v-61q31 1 110 9q3 0 5 -7.5t2 -16.5q0 -10 -3.5 -19.5t-6.5 -8.5q-48 12 -107 15v-269q0 -31 6 -45t24.5 -19t58.5 -5q4 0 4 -6t-4 -6l-69 1q-23 1 -68 1l-61 -1q-16 -1 -45 -1q-4 0 -4 6t4 6q26 0 38.5 5t17 19.5
t4.5 44.5v225q0 31 -13 40.5t-51 9.5q-3 0 -3 9t3 9q35 0 48 9.5t14 34.5q5 163 61.5 235.5t172.5 72.5q86 0 141 -41q17 23 17 46q0 3 6 3t6 -3v-525l92 89q26 24 26 49q0 13 -9.5 21.5t-27.5 8.5q-3 0 -3 6t3 6q29 0 45 -1l79 -1l72 1q14 1 40 1q2 0 2 -6t-2 -6
q-43 0 -99 -22t-100 -62l-36 -33l138 -176q28 -36 54.5 -52.5t54.5 -16.5q2 0 2 -6z" />
    <glyph glyph-name="f_thorn.liga" unicode="f&#xfe;" horiz-adv-x="823" 
d="M489 -3v-191q0 -30 6.5 -44t25 -19.5t57.5 -5.5q2 0 2 -6t-2 -6q-38 0 -59 1l-78 1l-60 -1q-16 -1 -42 -1q-2 0 -2 6t2 6q24 0 35.5 5.5t16 19.5t4.5 44v823q-21 37 -48 58t-56 21q-51 0 -80.5 -65t-29.5 -204v-61q31 1 110 9q3 0 5 -7.5t2 -16.5q0 -10 -3.5 -19.5
t-6.5 -8.5q-48 12 -107 15v-269q0 -31 6 -45t24.5 -19t58.5 -5q4 0 4 -6t-4 -6l-69 1q-23 1 -68 1l-61 -1q-16 -1 -45 -1q-4 0 -4 6t4 6q26 0 38.5 5t17 19.5t4.5 44.5v225q0 31 -13 40.5t-51 9.5q-3 0 -3 9t3 9q35 0 48 9.5t14 34.5q5 163 61.5 235.5t172.5 72.5
q86 0 141 -41q17 23 17 46q0 3 6 3t6 -3v-393q71 61 144 61q42 0 78.5 -22t58.5 -64t22 -98q0 -80 -33 -131.5t-83.5 -74t-104.5 -22.5q-45 0 -82 10zM489 314v-257q21 -22 44 -33.5t56 -11.5q102 0 102 172q0 76 -35.5 117.5t-88.5 41.5q-43 0 -78 -29z" />
    <glyph glyph-name="f_t.liga" unicode="ft" horiz-adv-x="629" 
d="M617 69q4 0 6.5 -3.5t-0.5 -5.5q-37 -37 -71.5 -54.5t-74.5 -17.5q-44 0 -74.5 21t-30.5 71v226q0 22 -12.5 32t-51 13.5t-127.5 4.5v-275q0 -31 6 -45t24.5 -19t58.5 -5q4 0 4 -6t-4 -6l-69 1q-23 1 -68 1l-61 -1q-16 -1 -45 -1q-4 0 -4 6t4 6q26 0 38.5 5t17 19.5
t4.5 44.5v225q0 31 -13 40.5t-51 9.5q-3 0 -3 9t3 9q35 0 48 9.5t14 34.5q5 163 61.5 235.5t172.5 72.5q56 0 87 -15.5t31 -43.5q0 -23 -15.5 -36t-37.5 -13q-23 0 -35.5 12.5t-22.5 36.5q-8 20 -17.5 29.5t-28.5 9.5q-46 0 -72.5 -65.5t-26.5 -201.5v-61q99 0 141 3
q47 3 73 20.5t56 56.5q1 4 9 4q7 0 7 -4v-80q59 1 129 9q3 0 5.5 -7.5t2.5 -16.5q0 -10 -3.5 -19.5t-7.5 -8.5q-65 14 -126 15v-237q0 -38 19 -56t52 -18q22 0 42 7.5t34 21.5q1 1 3 1z" />
    <glyph glyph-name="fi.liga" unicode="fi" horiz-adv-x="570" 
d="M243.5 678q-28.5 -28 -45.5 -88t-17 -151v-61q31 1 110 9q3 0 5 -7.5t2 -16.5q0 -10 -3.5 -19.5t-6.5 -8.5q-48 12 -107 15v-269q0 -31 6 -45t24.5 -19t58.5 -5q4 0 4 -6t-4 -6l-69 1q-23 1 -68 1l-61 -1q-16 -1 -45 -1q-4 0 -4 6t4 6q26 0 38.5 5t17 19.5t4.5 44.5v225
q0 31 -13 40.5t-51 9.5q-3 0 -3 9t3 9q35 0 48 9.5t14 34.5q7 162 70 235t183 73q68 0 107 -21t39 -56q0 -19 -12.5 -31t-36.5 -12q-23 0 -35 11.5t-26 36.5q-15 26 -29 39t-39 13q-34 0 -62.5 -28zM550 6q0 -6 -4 -6q-26 0 -42 1l-58 1l-60 -1q-15 -1 -41 -1q-2 0 -2 6t2 6
q31 0 42.5 14.5t11.5 54.5v179q0 34 -6.5 49t-22.5 15q-13 0 -38 -11h-1q-4 0 -6 5.5t0 6.5l151 70q1 1 3 1q5 0 10.5 -5t5.5 -9q0 -12 -1 -22q-2 -40 -2 -98v-181q0 -40 11.5 -54.5t42.5 -14.5q4 0 4 -6z" />
    <glyph glyph-name="fl.liga" unicode="fl" horiz-adv-x="567" 
d="M546 6q0 -6 -3 -6q-26 0 -41 1l-61 1l-58 -1q-15 -1 -41 -1q-3 0 -3 6t3 6q30 0 41.5 14.5t11.5 54.5v548q-21 37 -48 58t-56 21q-51 0 -80.5 -65t-29.5 -204v-61q31 1 110 9q3 0 5 -7.5t2 -16.5q0 -10 -3.5 -19.5t-6.5 -8.5q-48 12 -107 15v-269q0 -31 6 -45t24.5 -19
t58.5 -5q4 0 4 -6t-4 -6l-69 1q-23 1 -68 1l-61 -1q-16 -1 -45 -1q-4 0 -4 6t4 6q26 0 38.5 5t17 19.5t4.5 44.5v225q0 31 -13 40.5t-51 9.5q-3 0 -3 9t3 9q35 0 48 9.5t14 34.5q5 163 61.5 235.5t172.5 72.5q86 0 141 -41q17 23 17 46q0 3 6 3t6 -3v-650q0 -40 11.5 -54.5
t42.5 -14.5q3 0 3 -6z" />
    <glyph glyph-name="g_g.liga" unicode="gg" horiz-adv-x="901" 
d="M467 368q0 -15 -4 -31.5t-8 -13.5q-56 17 -98 17h-8q26 -31 26 -70q0 -38 -25.5 -66.5t-65.5 -43.5t-82 -15q-27 0 -51 6q-20 -16 -20 -41q0 -22 16.5 -34t40.5 -18t68 -14q56 -10 88.5 -20t56.5 -34t24 -68q0 -54 -33 -101t-89 -75t-121 -28q-74 0 -121 32t-47 83
q0 34 22 70t82 79q-30 9 -46.5 26t-16.5 46q0 25 19.5 51.5t60.5 49.5q-44 15 -68 46t-24 67q0 40 26 68t66 42.5t80 14.5q68 0 113 -34q63 37 130 37q9 0 9 -28zM799 24q35 -10 60.5 -34t25.5 -68q0 -54 -34.5 -101t-92.5 -75t-126 -28q-72 0 -117.5 32t-45.5 83
q0 34 21 69.5t78 78.5q-30 10 -47 27t-17 46q0 25 19.5 51.5t60.5 49.5q-44 15 -68 46t-24 67q0 40 26 68t66 42.5t80 14.5q66 0 111 -32q27 18 53 26.5t56 8.5q8 0 8 -28q0 -14 -4 -31t-7 -14q-42 17 -75 17h-8q27 -32 27 -70t-26 -66.5t-66 -43.5t-82 -15q-27 0 -51 6
q-20 -16 -20 -41q0 -22 16.5 -34t40.5 -18t68 -14q59 -10 94 -20zM262.5 183q14.5 20 14.5 63q0 54 -28 91t-67 37q-42 0 -42 -79q0 -52 25 -92t64 -40q19 0 33.5 20zM589 295q0 -52 25 -92t64 -40q20 0 34 20t14 63q0 36 -13 65t-34.5 46t-46.5 17q-43 0 -43 -79z
M320 -79.5q-20 20.5 -48 29t-77 16.5l-54 9q-28 -33 -28 -94q0 -63 34 -97t88 -34q47 0 76 30.5t29 81.5q0 38 -20 58.5zM768.5 -219.5q32.5 30.5 32.5 81.5q0 38 -21.5 58.5t-52 29t-83.5 16.5l-52 9q-24 -35 -24 -94q0 -63 32.5 -97t83.5 -34q52 0 84.5 30.5z" />
    <glyph glyph-name="longs_b.liga" unicode="&#x17f;b" horiz-adv-x="815" 
d="M700 378q38 -21 61 -63t23 -102q0 -72 -30.5 -123t-79.5 -77t-103 -26q-81 0 -145 47l-90 -41h-2q-4 0 -5.5 4t2.5 5q25 14 37 38t12 63v526q-18 37 -43 58t-53 21q-48 0 -77 -65.5t-29 -203.5v-358q0 -31 6 -45t24 -19t59 -5q3 0 3 -6t-3 -6l-70 1q-22 1 -67 1l-61 -1
q-17 -1 -46 -1q-3 0 -3 6t3 6q26 0 38.5 5t17 19.5t4.5 44.5v337q0 157 59 232.5t169 75.5q83 0 134 -40q17 22 17 45q0 3 6 3t6 -3v-398q33 30 67.5 48t76.5 18q44 0 82 -21zM658.5 49.5q22.5 43.5 22.5 124.5q0 87 -29.5 129.5t-80.5 42.5q-47 0 -97 -34v-200
q21 -53 52.5 -79.5t65.5 -26.5q44 0 66.5 43.5z" />
    <glyph glyph-name="longs_h.liga" unicode="&#x17f;h" horiz-adv-x="814" 
d="M800 6q0 -6 -4 -6q-25 0 -40 1l-60 1l-60 -1q-15 -1 -41 -1q-2 0 -2 6t2 6q31 0 42.5 14.5t11.5 54.5v144q0 54 -20 80t-62 26q-24 0 -48.5 -10t-44.5 -27v-213q0 -40 11.5 -54.5t41.5 -14.5q4 0 4 -6t-4 -6q-26 0 -41 1l-59 1l-60 -1q-15 -1 -41 -1q-2 0 -2 6t2 6
q31 0 42.5 14.5t11.5 54.5v548q-18 37 -43 58t-53 21q-48 0 -77 -65.5t-29 -203.5v-358q0 -31 6 -45t24 -19t59 -5q3 0 3 -6t-3 -6l-70 1q-22 1 -67 1l-61 -1q-17 -1 -46 -1q-3 0 -3 6t3 6q26 0 38.5 5t17 19.5t4.5 44.5v337q0 157 59 232.5t169 75.5q83 0 134 -40
q17 22 17 45q0 3 6 3t6 -3v-414q71 81 152 81q54 0 85.5 -34.5t31.5 -90.5v-192q0 -40 11.5 -54.5t41.5 -14.5q4 0 4 -6z" />
    <glyph glyph-name="longs_i.liga" unicode="&#x17f;i" horiz-adv-x="560" 
d="M20 6q0 6 3 6q26 0 38.5 5t17 19.5t4.5 44.5v337q0 157 62 232.5t178 75.5q64 0 102 -21t38 -56q0 -19 -12.5 -31t-36.5 -12q-22 0 -34.5 12.5t-25.5 36.5q-14 26 -26.5 38.5t-35.5 12.5q-49 0 -81.5 -66.5t-32.5 -200.5v-358q0 -31 6 -45t24 -19t59 -5q3 0 3 -6t-3 -6
l-70 1q-22 1 -67 1l-61 -1q-17 -1 -46 -1q-3 0 -3 6zM321 6q0 6 3 6q31 0 42.5 14.5t11.5 54.5v179q0 34 -6.5 49t-22.5 15q-13 0 -38 -11h-1q-4 0 -6 5.5t0 6.5l151 70q1 1 3 1q5 0 10.5 -5t5.5 -9q0 -12 -1 -22q-2 -40 -2 -98v-181q0 -40 11.5 -54.5t42.5 -14.5q4 0 4 -6
t-4 -6q-26 0 -42 1l-58 1l-60 -1q-15 -1 -41 -1q-3 0 -3 6z" />
    <glyph glyph-name="longs_j.liga" unicode="&#x17f;j" horiz-adv-x="545" 
d="M20 6q0 6 3 6q26 0 38.5 5t17 19.5t4.5 44.5v337q0 157 62 232.5t178 75.5q64 0 102 -21t38 -56q0 -19 -12.5 -31t-36.5 -12q-22 0 -34.5 12.5t-25.5 36.5q-14 26 -26.5 38.5t-35.5 12.5q-49 0 -81.5 -66.5t-32.5 -200.5v-358q0 -31 6 -45t24 -19t59 -5q3 0 3 -6t-3 -6
l-70 1q-22 1 -67 1l-61 -1q-17 -1 -46 -1q-3 0 -3 6zM288.5 -277.5q-2.5 5.5 0.5 6.5q48 21 68.5 67.5t20.5 132.5v331q0 34 -6.5 49t-22.5 15q-13 0 -38 -11h-1q-4 0 -6 5.5t0 6.5l151 70q1 1 3 1q5 0 10.5 -5t5.5 -9q0 -12 -1 -22q-2 -40 -2 -98v-310q0 -68 -16.5 -111.5
t-54.5 -72.5t-106 -50q-3 -1 -5.5 4.5z" />
    <glyph glyph-name="longs_k.liga" unicode="&#x17f;k" horiz-adv-x="796" 
d="M805 6q0 -6 -3 -6q-26 0 -42 1l-58 1l-77 -1q-17 -1 -47 -1q-3 0 -3 6t3 6q36 0 36 21q0 11 -8 20l-114 146l-18 -16v-102q0 -40 11.5 -54.5t41.5 -14.5q4 0 4 -6t-4 -6q-26 0 -41 1l-59 1l-60 -1q-15 -1 -41 -1q-2 0 -2 6t2 6q31 0 42.5 14.5t11.5 54.5v548
q-18 37 -43 58t-53 21q-48 0 -77 -65.5t-29 -203.5v-358q0 -31 6 -45t24 -19t59 -5q3 0 3 -6t-3 -6l-70 1q-22 1 -67 1l-61 -1q-17 -1 -46 -1q-3 0 -3 6t3 6q26 0 38.5 5t17 19.5t4.5 44.5v337q0 157 59 232.5t169 75.5q83 0 134 -40q17 22 17 45q0 3 6 3t6 -3v-525l92 89
q26 24 26 48q0 14 -9.5 22.5t-28.5 8.5q-2 0 -2 6t2 6q30 0 46 -1l78 -1l73 1q14 1 40 1q2 0 2 -6t-2 -6q-43 0 -99 -22t-100 -62l-36 -33l138 -176q28 -36 54 -52.5t54 -16.5q3 0 3 -6z" />
    <glyph glyph-name="longs_l.liga" unicode="&#x17f;l" horiz-adv-x="552" 
d="M531 6q0 -6 -4 -6q-26 0 -41 1l-59 1l-60 -1q-15 -1 -41 -1q-2 0 -2 6t2 6q31 0 42.5 14.5t11.5 54.5v548q-18 37 -43 58t-53 21q-48 0 -77 -65.5t-29 -203.5v-358q0 -31 6 -45t24 -19t59 -5q3 0 3 -6t-3 -6l-70 1q-22 1 -67 1l-61 -1q-17 -1 -46 -1q-3 0 -3 6t3 6
q26 0 38.5 5t17 19.5t4.5 44.5v337q0 157 59 232.5t169 75.5q83 0 134 -40q17 22 17 45q0 3 6 3t6 -3v-650q0 -40 11.5 -54.5t41.5 -14.5q4 0 4 -6z" />
    <glyph glyph-name="longs_thorn.liga" unicode="&#x17f;&#xfe;" horiz-adv-x="812" 
d="M474 -2v-192q0 -30 6.5 -44t25 -19.5t57.5 -5.5q2 0 2 -6t-2 -6q-38 0 -59 1l-78 1l-60 -1q-16 -1 -42 -1q-3 0 -3 6t3 6q24 0 35.5 5.5t16 19.5t4.5 44v823q-18 37 -43 58t-53 21q-48 0 -77 -65.5t-29 -203.5v-358q0 -31 6 -45t24 -19t59 -5q3 0 3 -6t-3 -6l-70 1
q-22 1 -67 1l-61 -1q-17 -1 -46 -1q-3 0 -3 6t3 6q26 0 38.5 5t17 19.5t4.5 44.5v337q0 157 59 232.5t169 75.5q83 0 134 -40q17 22 17 45q0 3 6 3t6 -3v-396q73 64 147 64q42 0 78.5 -22t58.5 -64t22 -98q0 -80 -33 -131.5t-83.5 -74t-104.5 -22.5q-48 0 -85 11zM474 311
v-250q21 -24 45 -36.5t59 -12.5q49 0 75.5 42t26.5 130q0 76 -35.5 117.5t-88.5 41.5q-45 0 -82 -32z" />
    <glyph glyph-name="longs_longs.liga" unicode="&#x17f;&#x17f;" horiz-adv-x="540" 
d="M668.5 711q28.5 -15 28.5 -44q0 -23 -16 -36t-37 -13q-22 0 -32.5 11.5t-19.5 34.5q-8 20 -17 30.5t-26 10.5q-42 0 -66 -65t-24 -201v-358q0 -31 5 -45t21 -19t51 -5q4 0 4 -6t-4 -6l-63 1q-21 1 -62 1l-61 -1q-17 -1 -46 -1q-3 0 -3 6t3 6q26 0 38.5 5t17 19.5
t4.5 44.5v337q0 112 27 181q-18 34 -43.5 53t-51.5 19q-54 0 -86 -57t-32 -175v-358q0 -31 4.5 -45t18 -19t42.5 -5q4 0 4 -6t-4 -6l-57 1q-19 1 -56 1l-61 -1q-17 -1 -46 -1q-3 0 -3 6t3 6q26 0 38.5 5t17 19.5t4.5 44.5v337q0 135 66 204t178 69q62 0 108 -21
q53 56 152 56q53 0 81.5 -15z" />
    <glyph glyph-name="longs_longs_b.liga" unicode="&#x17f;&#x17f;b" horiz-adv-x="1101" 
d="M985 378q38 -21 61 -63t23 -102q0 -72 -30.5 -123t-79.5 -77t-103 -26q-81 0 -145 47l-90 -41h-2q-4 0 -5.5 4t2.5 5q25 14 37 38t12 63v526q-18 37 -43 58t-53 21q-48 0 -77 -65.5t-29 -203.5v-358q0 -31 6 -45t24 -19t59 -5q3 0 3 -6t-3 -6l-70 1q-22 1 -67 1l-61 -1
q-17 -1 -46 -1q-3 0 -3 6t3 6q26 0 38.5 5t17 19.5t4.5 44.5v337q0 107 27 174q-18 37 -44.5 58t-54.5 21q-54 0 -86 -57t-32 -175v-358q0 -31 4.5 -45t18 -19t42.5 -5q4 0 4 -6t-4 -6l-57 1q-19 1 -56 1l-61 -1q-17 -1 -46 -1q-3 0 -3 6t3 6q26 0 38.5 5t17 19.5t4.5 44.5
v337q0 135 66 204t178 69q35 0 64.5 -7t49.5 -17q56 59 155 59q83 0 134 -40q17 22 17 45q0 3 6 3t6 -3v-398q33 30 67.5 48t76.5 18q44 0 82 -21zM943.5 49.5q22.5 43.5 22.5 124.5q0 87 -29.5 129.5t-80.5 42.5q-47 0 -97 -34v-200q21 -53 52.5 -79.5t65.5 -26.5
q44 0 66.5 43.5z" />
    <glyph glyph-name="longs_longs_h.liga" unicode="&#x17f;&#x17f;h" horiz-adv-x="1101" 
d="M1087 6q0 -6 -4 -6q-25 0 -40 1l-60 1l-60 -1q-15 -1 -41 -1q-2 0 -2 6t2 6q31 0 42.5 14.5t11.5 54.5v144q0 54 -20 80t-62 26q-24 0 -48.5 -10t-44.5 -27v-213q0 -40 11.5 -54.5t41.5 -14.5q4 0 4 -6t-4 -6q-26 0 -41 1l-59 1l-60 -1q-15 -1 -41 -1q-2 0 -2 6t2 6
q31 0 42.5 14.5t11.5 54.5v548q-18 37 -43 58t-53 21q-48 0 -77 -65.5t-29 -203.5v-358q0 -31 6 -45t24 -19t59 -5q3 0 3 -6t-3 -6l-70 1q-22 1 -67 1l-61 -1q-17 -1 -46 -1q-3 0 -3 6t3 6q26 0 38.5 5t17 19.5t4.5 44.5v337q0 103 26 172q-18 37 -45 59t-55 22
q-54 0 -86 -57t-32 -175v-358q0 -31 4.5 -45t18 -19t42.5 -5q4 0 4 -6t-4 -6l-57 1q-19 1 -56 1l-61 -1q-17 -1 -46 -1q-3 0 -3 6t3 6q26 0 38.5 5t17 19.5t4.5 44.5v337q0 135 66 204t178 69q36 0 66 -7t49 -18q56 60 156 60q83 0 134 -40q17 22 17 45q0 3 6 3t6 -3v-414
q71 81 152 81q54 0 85.5 -34.5t31.5 -90.5v-192q0 -40 11.5 -54.5t41.5 -14.5q4 0 4 -6z" />
    <glyph glyph-name="longs_longs_i.liga" unicode="&#x17f;&#x17f;i" horiz-adv-x="841" 
d="M491.5 639.5q-32.5 -66.5 -32.5 -200.5v-358q0 -31 6 -45t24 -19t59 -5q3 0 3 -6t-3 -6l-70 1q-22 1 -67 1l-61 -1q-17 -1 -46 -1q-3 0 -3 6t3 6q26 0 38.5 5t17 19.5t4.5 44.5v337q0 109 30 176q-18 36 -44.5 56.5t-53.5 20.5q-54 0 -86 -57t-32 -175v-358
q0 -31 4.5 -45t18 -19t42.5 -5q4 0 4 -6t-4 -6l-57 1q-19 1 -56 1l-61 -1q-17 -1 -46 -1q-3 0 -3 6t3 6q26 0 38.5 5t17 19.5t4.5 44.5v337q0 135 66 204t178 69q35 0 64.5 -7t49.5 -17q59 59 163 59q64 0 102 -21t38 -56q0 -19 -12.5 -31t-36.5 -12q-22 0 -34.5 12.5
t-25.5 36.5q-14 26 -26.5 38.5t-35.5 12.5q-49 0 -81.5 -66.5zM810 6q0 -6 -4 -6q-26 0 -42 1l-58 1l-60 -1q-15 -1 -41 -1q-3 0 -3 6t3 6q31 0 42.5 14.5t11.5 54.5v179q0 34 -6.5 49t-22.5 15q-13 0 -38 -11h-1q-4 0 -6 5.5t0 6.5l151 70q1 1 3 1q5 0 10.5 -5t5.5 -9
q0 -12 -1 -22q-2 -40 -2 -98v-181q0 -40 11.5 -54.5t42.5 -14.5q4 0 4 -6z" />
    <glyph glyph-name="longs_longs_j.liga" unicode="&#x17f;&#x17f;j" horiz-adv-x="826" 
d="M551 6q0 -6 -3 -6l-70 1q-22 1 -67 1l-61 -1q-17 -1 -46 -1q-3 0 -3 6t3 6q26 0 38.5 5t17 19.5t4.5 44.5v337q0 109 30 176q-18 36 -44.5 56.5t-53.5 20.5q-54 0 -86 -57t-32 -175v-358q0 -31 4.5 -45t18 -19t42.5 -5q4 0 4 -6t-4 -6l-57 1q-19 1 -56 1l-61 -1
q-17 -1 -46 -1q-3 0 -3 6t3 6q26 0 38.5 5t17 19.5t4.5 44.5v337q0 135 66 204t178 69q35 0 64.5 -7t49.5 -17q59 59 163 59q64 0 102 -21t38 -56q0 -19 -12.5 -31t-36.5 -12q-22 0 -34.5 12.5t-25.5 36.5q-14 26 -26.5 38.5t-35.5 12.5q-49 0 -81.5 -66.5t-32.5 -200.5
v-358q0 -31 6 -45t24 -19t59 -5q3 0 3 -6zM739 396q5 0 10.5 -5t5.5 -9q0 -12 -1 -22q-2 -40 -2 -98v-310q0 -68 -16.5 -111.5t-54.5 -72.5t-106 -50q-3 -1 -5.5 4.5t0.5 6.5q48 21 68.5 67.5t20.5 132.5v331q0 34 -6.5 49t-22.5 15q-13 0 -38 -11h-1q-4 0 -6 5.5t0 6.5
l151 70q1 1 3 1z" />
    <glyph glyph-name="longs_longs_k.liga" unicode="&#x17f;&#x17f;k" horiz-adv-x="1083" 
d="M1092 6q0 -6 -3 -6q-26 0 -42 1l-58 1l-77 -1q-17 -1 -47 -1q-3 0 -3 6t3 6q36 0 36 21q0 11 -8 20l-114 146l-18 -16v-102q0 -40 11.5 -54.5t41.5 -14.5q4 0 4 -6t-4 -6q-26 0 -41 1l-59 1l-60 -1q-15 -1 -41 -1q-2 0 -2 6t2 6q31 0 42.5 14.5t11.5 54.5v548
q-18 37 -43 58t-53 21q-48 0 -77 -65.5t-29 -203.5v-358q0 -31 6 -45t24 -19t59 -5q3 0 3 -6t-3 -6l-70 1q-22 1 -67 1l-61 -1q-17 -1 -46 -1q-3 0 -3 6t3 6q26 0 38.5 5t17 19.5t4.5 44.5v337q0 103 26 172q-18 37 -45 59t-55 22q-54 0 -86 -57t-32 -175v-358
q0 -31 4.5 -45t18 -19t42.5 -5q4 0 4 -6t-4 -6l-57 1q-19 1 -56 1l-61 -1q-17 -1 -46 -1q-3 0 -3 6t3 6q26 0 38.5 5t17 19.5t4.5 44.5v337q0 135 66 204t178 69q36 0 66 -7t49 -18q56 60 156 60q83 0 134 -40q17 22 17 45q0 3 6 3t6 -3v-525l92 89q26 24 26 48
q0 14 -9.5 22.5t-28.5 8.5q-2 0 -2 6t2 6q30 0 46 -1l78 -1l73 1q14 1 40 1q2 0 2 -6t-2 -6q-43 0 -99 -22t-100 -62l-36 -33l138 -176q28 -36 54 -52.5t54 -16.5q3 0 3 -6z" />
    <glyph glyph-name="longs_longs_l.liga" unicode="&#x17f;&#x17f;l" horiz-adv-x="839" 
d="M818 6q0 -6 -4 -6q-26 0 -41 1l-59 1l-60 -1q-15 -1 -41 -1q-2 0 -2 6t2 6q31 0 42.5 14.5t11.5 54.5v548q-18 37 -43 58t-53 21q-48 0 -77 -65.5t-29 -203.5v-358q0 -31 6 -45t24 -19t59 -5q3 0 3 -6t-3 -6l-70 1q-22 1 -67 1l-61 -1q-17 -1 -46 -1q-3 0 -3 6t3 6
q26 0 38.5 5t17 19.5t4.5 44.5v337q0 103 26 172q-18 37 -45 59t-55 22q-54 0 -86 -57t-32 -175v-358q0 -31 4.5 -45t18 -19t42.5 -5q4 0 4 -6t-4 -6l-57 1q-19 1 -56 1l-61 -1q-17 -1 -46 -1q-3 0 -3 6t3 6q26 0 38.5 5t17 19.5t4.5 44.5v337q0 135 66 204t178 69
q36 0 66 -7t49 -18q56 60 156 60q83 0 134 -40q17 22 17 45q0 3 6 3t6 -3v-650q0 -40 11.5 -54.5t41.5 -14.5q4 0 4 -6z" />
    <glyph glyph-name="longs_longs_thorn.liga" unicode="&#x17f;&#x17f;&#xfe;" horiz-adv-x="1098" 
d="M761 -2v-192q0 -30 6.5 -44t25 -19.5t57.5 -5.5q2 0 2 -6t-2 -6q-38 0 -59 1l-78 1l-60 -1q-16 -1 -42 -1q-3 0 -3 6t3 6q24 0 35.5 5.5t16 19.5t4.5 44v823q-18 37 -43 58t-53 21q-48 0 -77 -65.5t-29 -203.5v-358q0 -31 6 -45t24 -19t59 -5q3 0 3 -6t-3 -6l-70 1
q-22 1 -67 1l-61 -1q-17 -1 -46 -1q-3 0 -3 6t3 6q26 0 38.5 5t17 19.5t4.5 44.5v337q0 103 26 172q-18 37 -45 59t-55 22q-54 0 -86 -57t-32 -175v-358q0 -31 4.5 -45t18 -19t42.5 -5q4 0 4 -6t-4 -6l-57 1q-19 1 -56 1l-61 -1q-17 -1 -46 -1q-3 0 -3 6t3 6q26 0 38.5 5
t17 19.5t4.5 44.5v337q0 135 66 204t178 69q36 0 66 -7t49 -18q56 60 156 60q83 0 134 -40q17 22 17 45q0 3 6 3t6 -3v-396q73 64 147 64q42 0 78.5 -22t58.5 -64t22 -98q0 -80 -33 -131.5t-83.5 -74t-104.5 -22.5q-48 0 -85 11zM761 311v-250q21 -24 45 -36.5t59 -12.5
q49 0 75.5 42t26.5 130q0 76 -35.5 117.5t-88.5 41.5q-45 0 -82 -32z" />
    <glyph glyph-name=".notdef" horiz-adv-x="501" 
d="M94 -275v1000h317v-1000h-317zM168 626h65v-38h-66v-32h166v32h-66v38h66v32h-165v-32zM167 426h166v34h-66v69h-100v-103zM200 460v35h33v-35h-33zM167 365h66v-36h-66v-34h100v70h66v33h-166v-33zM301 273h-134v-34h166v99h-32v-65zM233 160h34v24h34v-48h-101v80h-33
v-113h166v113h-100v-56zM167 -70h166v113h-166v-113zM200 -37v48h101v-48h-101zM167 -126h70l-70 -47v-33h166v33h-101l69 47h32v34h-166v-34z" />
    <glyph glyph-name=".null" horiz-adv-x="0" 
 />
    <glyph glyph-name="nonmarkingreturn" horiz-adv-x="333" 
 />
    <glyph glyph-name="space" unicode=" " horiz-adv-x="234" 
 />
    <glyph glyph-name="exclam" unicode="!" horiz-adv-x="263" 
d="M82 625.5q23 3.5 49 3.5t49.5 -3.5t21.5 -10.5q-22 -76 -32.5 -166t-21.5 -228q0 -10 -2 -32q0 -2 -5.5 -3.5t-11.5 -1.5t-11.5 1.5t-5.5 3.5q-9 148 -19 245.5t-32 180.5q-2 7 21 10.5zM80.5 5.5q-16.5 16.5 -16.5 44.5q0 26 16.5 42t44.5 16t43.5 -15.5t15.5 -42.5
q0 -29 -15.5 -45t-43.5 -16t-44.5 16.5z" />
    <glyph glyph-name="quotedbl" unicode="&#x22;" horiz-adv-x="302" 
d="M27 362zM28 606q-1 12 32 23.5t59 11.5q9 0 13.5 -2.5t3.5 -6.5l-63 -266q-2 -2 -9 -3t-7 2zM180 606q-1 12 32 23.5t59 11.5q9 0 13.5 -2.5t3.5 -6.5l-63 -266q-2 -2 -9 -3t-7 2z" />
    <glyph glyph-name="numbersign" unicode="#" horiz-adv-x="526" 
d="M466.5 312.5q1.5 -7.5 1.5 -15.5q0 -9 -1.5 -16.5t-3.5 -7.5h-63l-27 -151h55q2 0 3.5 -7.5t1.5 -16.5t-1.5 -16.5t-3.5 -7.5h-63l-28 -157q0 -4 -26 0t-24 8l26 149h-135l-28 -157q0 -4 -26.5 0t-24.5 8l26 149h-62q-2 0 -3.5 8t-1.5 18q0 8 1.5 15t2.5 7h72l27 151h-63
q-2 0 -3.5 8t-1.5 17q0 8 1.5 15t2.5 7h72l29 162q0 5 25.5 -1t24.5 -10l-27 -151h135l29 162q0 5 25.5 -1t24.5 -10l-27 -151h55q2 0 3.5 -7.5zM322 122l26 151h-135l-27 -151h136z" />
    <glyph glyph-name="dollar" unicode="$" horiz-adv-x="422" 
d="M347 35q-44 -40 -113 -46v-91q0 -7 -14 -7q-15 0 -15 7v90q-44 1 -86 12t-58 25q-8 5 -8 21l-5 113q0 4 5 5t7 -3q35 -60 68.5 -99.5t76.5 -48.5v190l-30 16q-59 32 -90 60.5t-31 73.5q0 53 43 86.5t108 39.5v82q0 4 4.5 6t10.5 2t10 -2t4 -6v-81q31 -1 64 -7.5t53 -15.5
q9 -3 12 -7.5t3 -12.5v-95q0 -3 -5 -4.5t-7 1.5q-16 34 -45 70t-75 46v-168l24 -12q45 -24 70.5 -40.5t44 -42.5t18.5 -61q0 -56 -44 -96zM155 341.5q18 -21.5 50 -39.5v155q-35 -1 -51.5 -19t-16.5 -46q0 -29 18 -50.5zM282.5 32q19.5 19 19.5 53q0 31 -18 55t-50 45v-174
q29 2 48.5 21z" />
    <glyph glyph-name="percent" unicode="%" horiz-adv-x="574" 
d="M55.5 340.5q-37.5 37.5 -37.5 92.5q0 53 37.5 90t94.5 37t93.5 -37.5t36.5 -92.5q0 -54 -37 -90.5t-93 -36.5q-57 0 -94.5 37.5zM93 -0.5q-15 10.5 -13 13.5l370 544q3 3 18 -8.5t13 -13.5l-371 -543q-2 -3 -17 7.5zM190 345.5q8 26.5 8 77.5q0 60 -14 90.5t-40 30.5
t-35.5 -28.5t-9.5 -79.5q0 -117 58 -117q25 0 33 26.5zM332.5 32.5q-37.5 37.5 -37.5 92.5q0 53 37.5 90.5t94.5 37.5t93.5 -38t36.5 -92t-36.5 -91t-93.5 -37t-94.5 37.5zM467 38q8 26 8 78q0 59 -14 89.5t-40 30.5q-25 0 -34.5 -28.5t-9.5 -78.5q0 -55 12.5 -86t44.5 -31
q25 0 33 26z" />
    <glyph glyph-name="ampersand" unicode="&#x26;" 
d="M728.5 5.5q-0.5 -5.5 -3.5 -5.5h-164q-28 0 -96 49q-75 -61 -191 -61q-69 0 -116 20t-70 53t-23 70q0 48 33 86t100 88q-16 21 -31 48q-14 28 -21.5 53t-7.5 55q0 81 51.5 133t140.5 52q62 0 98 -26.5t36 -73.5q0 -39 -22.5 -71.5t-51.5 -54.5t-90 -63q72 -107 201 -210
q9 35 9 79q0 58 -19 84.5t-62 26.5q-2 0 -2.5 6t2.5 6l238 1q3 0 3 -6t-3 -6q-30 0 -44.5 -6.5t-22 -21.5t-16.5 -48q-11 -40 -23 -73t-31 -64q65 -49 115.5 -77t79.5 -36q4 -1 3.5 -6.5zM287 378q71 69 71 147q0 44 -20.5 69t-53.5 25q-28 0 -40 -18t-12 -54q0 -78 55 -169
zM447 63q-16 11 -43 33q-51 41 -102.5 91.5t-90.5 99.5q-45 -47 -45 -99q0 -39 22.5 -73.5t64.5 -56t98 -21.5q58 0 96 26z" />
    <glyph glyph-name="quotesingle" unicode="'" horiz-adv-x="150" 
d="M28 606q-1 12 32 23.5t59 11.5q9 0 13.5 -2.5t3.5 -6.5l-63 -266q-2 -2 -9 -3t-7 2z" />
    <glyph glyph-name="parenleft" unicode="(" horiz-adv-x="309" 
d="M104.5 559q60.5 113 169.5 166q2 1 4 -1.5t0 -4.5q-63 -71 -92.5 -174t-29.5 -241t29.5 -241t92.5 -174q2 -1 0 -4t-4 -2q-109 54 -169.5 166.5t-60.5 254.5t60.5 255z" />
    <glyph glyph-name="parenright" unicode=")" horiz-adv-x="309" 
d="M204.5 49q-60.5 -113 -169.5 -166q-2 -1 -4 1.5t0 4.5q63 71 92.5 174t29.5 241t-29.5 241t-92.5 174q-2 1 0 4t4 2q109 -54 169.5 -166.5t60.5 -254.5t-60.5 -255z" />
    <glyph glyph-name="asterisk" unicode="*" horiz-adv-x="448" 
d="M200 657q-2 11 37.5 21.5t66.5 10.5q12 0 11 -4l-79 -156q-1 -3 -5.5 -3t-4.5 3zM73 526q-9 2 -9 30t6.5 60.5t11.5 27.5l125 -124q2 -2 0.5 -6t-3.5 -3zM250 504q-2 0 -3.5 4t1.5 5l113 65q9 4 26.5 -20.5t30.5 -53t7 -27.5zM152 363q-13 0 -39.5 10.5t-47 23
t-15.5 14.5l156 80l2 1q3 0 5.5 -2.5t1.5 -4.5l-55 -119q-1 -3 -8 -3zM232 481v1q0 2 4 4.5t5 1.5l96 -89q7 -6 -11 -30.5t-41 -45t-24 -14.5z" />
    <glyph glyph-name="plus" unicode="+" horiz-adv-x="398" 
d="M367.5 206.5q1.5 -7.5 1.5 -16.5t-1.5 -17t-3.5 -8h-141v-140q0 -2 -9 -3.5t-19 -1.5q-21 0 -21 3v142h-140q-2 0 -3.5 8t-1.5 18q0 9 1 16t3 7h141v140q0 2 8 3.5t17 1.5t16.5 -1.5t7.5 -3.5v-140h141q2 0 3.5 -7.5z" />
    <glyph glyph-name="comma" unicode="," horiz-adv-x="222" 
d="M155.5 79q19.5 -27 19.5 -77q0 -45 -20 -83.5t-60 -77.5q-1 -1 -3 -1q-3 0 -5 3t0 5q49 50 49 118q0 28 -10 41q-9 -15 -37 -15q-24 0 -38.5 15.5t-14.5 40.5q0 27 17.5 42.5t47.5 15.5q35 0 54.5 -27z" />
    <glyph glyph-name="hyphen" unicode="-" horiz-adv-x="323" 
d="M28.5 163q-1.5 10 -1.5 21q0 24 3 24l261 47q2 1 3.5 -7.5t1.5 -18.5t-1.5 -18.5t-3.5 -9.5l-259 -47q-2 -1 -3.5 9z" />
    <glyph glyph-name="period" unicode="." horiz-adv-x="207" 
d="M60.5 5.5q-16.5 16.5 -16.5 44.5q0 26 16.5 42t44.5 16t43.5 -15.5t15.5 -42.5q0 -29 -15.5 -45t-43.5 -16t-44.5 16.5z" />
    <glyph glyph-name="slash" unicode="/" horiz-adv-x="351" 
d="M48.5 -162.5q-23.5 6.5 -22.5 10.5l252 882q2 4 25 -2.5t22 -11.5l-251 -881q-2 -4 -25.5 2.5z" />
    <glyph glyph-name="zero" unicode="0" horiz-adv-x="477" 
d="M129.5 14q-48.5 27 -76 74.5t-27.5 106.5t27.5 105.5t76 72.5t110.5 26t110 -26.5t74.5 -73.5t26.5 -106t-27 -106t-75 -73.5t-109 -26.5q-62 0 -110.5 27zM319.5 53q23.5 45 23.5 126q0 101 -31.5 150t-79.5 49q-47 0 -73 -46.5t-26 -125.5q0 -89 32 -143.5t85 -54.5
q46 0 69.5 45z" />
    <glyph glyph-name="one" unicode="1" horiz-adv-x="332" 
d="M38 6q0 6 3 6q39 0 57.5 5t25.5 19.5t7 44.5v176q0 32 -6.5 45.5t-23.5 13.5q-16 0 -64 -19h-1q-3 0 -5 5t2 7l182 86q1 1 3 1q3 0 5 -2.5t2 -5.5v-307q0 -31 6 -45t24 -19t57 -5q3 0 3 -6t-3 -6q-36 0 -56 1l-79 1l-79 -1q-21 -1 -57 -1q-3 0 -3 6z" />
    <glyph glyph-name="two" unicode="2" horiz-adv-x="402" 
d="M164 147.5q40 40.5 56.5 69.5t16.5 59q0 37 -19 64.5t-54 27.5q-37 0 -60.5 -32.5t-47.5 -100.5q0 -1 -4 -1q-9 0 -8 3l44 171q0 2 4 2q3 0 5.5 -1.5t1.5 -2.5q-1 -5 -1 -12q0 -17 15 -17q9 0 30 7q43 15 79 15q55 0 86 -26t31 -69q0 -52 -40.5 -94.5t-111.5 -92.5
l-40 -30q-3 -3 -1.5 -5t6.5 -2q80 0 120.5 3t64 13.5t30.5 33.5q1 3 6.5 3t5.5 -3l-21 -119q0 -4 -2.5 -7.5t-6.5 -3.5h-306q-4 0 -6.5 6t-2.5 12t3 9q87 80 127 120.5z" />
    <glyph glyph-name="three" unicode="3" horiz-adv-x="394" 
d="M327.5 80q35.5 -40 35.5 -92q0 -47 -33.5 -96t-103 -92.5t-172.5 -74.5q-4 -1 -6.5 4t1.5 7q109 44 157 109.5t48 129.5q0 59 -30 94.5t-81 35.5q-20 0 -41 -6q-3 -1 -5 5t1 7q70 18 102 54.5t32 102.5q0 50 -15 76.5t-44 26.5q-42 0 -76.5 -29t-56.5 -84q0 -1 -4 -1
q-9 0 -8 4l37 146q2 2 4 2q3 0 6 -1.5t2 -2.5q-2 -8 -2 -11q0 -17 17 -17q12 0 34 8q24 7 41 10.5t39 3.5q60 0 93.5 -33.5t33.5 -80.5q0 -48 -29.5 -90.5t-81.5 -63.5q70 -11 105.5 -51z" />
    <glyph glyph-name="four" unicode="4" horiz-adv-x="456" 
d="M423 32q0 -11 -1.5 -21t-3.5 -10l-66 3v-139q0 -10 -8 -14l-79 -39l-6 -2q-3 0 -3 8v189q-60 1 -222 1q-5 0 -8 4t1 8l310 376q2 2 6 2q3 0 6 -1.5t3 -4.5v-346q20 0 68 2q3 0 3 -16zM256 43v202l-167 -196q-6 -7 5 -7q116 0 162 1z" />
    <glyph glyph-name="five" unicode="5" horiz-adv-x="409" 
d="M294.5 144.5q65.5 -49.5 65.5 -135.5q0 -57 -30 -103.5t-93.5 -90t-168.5 -90.5h-1q-4 0 -6.5 4.5t1.5 6.5q108 61 151.5 123t43.5 133q0 83 -49 129t-140 46q-5 0 -8 3.5t-2 8.5l32 178q1 7 3 8.5t10 2.5q126 15 169 21t55.5 12.5t17.5 21.5q1 3 6.5 2.5t4.5 -4.5
l-20 -111q-3 -11 -9 -14.5t-19 -3.5l-190 -4q-13 0 -15 -14l-14 -78q140 -2 205.5 -51.5z" />
    <glyph glyph-name="six" unicode="6" horiz-adv-x="465" 
d="M407 249.5q33 -38.5 33 -90.5q0 -47 -28 -86.5t-76.5 -62.5t-105.5 -23q-89 0 -141 58.5t-52 161.5q0 94 44 184.5t126.5 161.5t192.5 108q4 1 6 -4t-1 -7q-86 -43 -146 -112.5t-90 -151.5t-30 -165q0 -58 14.5 -106t41.5 -76t62 -28q37 0 59 31.5t22 87.5q0 53 -21 84.5
t-62 31.5q-18 0 -34 -6.5t-37 -21.5q-1 -1 -3 -1q-3 0 -6 3t-2 5q58 63 136 63q65 0 98 -38.5z" />
    <glyph glyph-name="seven" unicode="7" horiz-adv-x="429" 
d="M156 -236l-82 -39h-1q-3 0 -5 2.5t-1 4.5l260 559q4 7 -4 7q-142 0 -197 -4t-73.5 -17t-27.5 -47q-2 -2 -5 -2t-5.5 1.5t-1.5 3.5l45 180q1 2 7 1.5t5 -2.5q-1 -4 -1 -10q0 -10 9.5 -13t38.5 -3h265q4 0 7.5 -4.5t1.5 -8.5l-214 -585q-7 -18 -21 -24z" />
    <glyph glyph-name="eight" unicode="8" horiz-adv-x="489" 
d="M393.5 293q29.5 -23 49.5 -55t20 -74q0 -51 -30 -91.5t-81 -63t-111 -22.5t-106.5 22.5t-72 60.5t-25.5 83q0 53 34 100t93 77q-66 54 -66 118q0 43 24 71t60.5 41.5t74.5 13.5q45 0 79.5 -15.5t52.5 -39.5t18 -49q0 -32 -25.5 -66t-70.5 -55l6 -4q47 -29 76.5 -52z
M202.5 534.5q-16.5 -18.5 -16.5 -46.5q0 -38 28 -67t84 -65q24 59 24 97q0 44 -22 72t-53 28q-28 0 -44.5 -18.5zM343 43q28 34 28 81q0 34 -16.5 60.5t-41.5 45t-66 43.5l-17 11q-21 13 -44 29q-21 -25 -33.5 -60t-12.5 -73q0 -45 16.5 -84.5t46 -63t65.5 -23.5q47 0 75 34
z" />
    <glyph glyph-name="nine" unicode="9" horiz-adv-x="465" 
d="M85.5 125q-31.5 21 -45.5 52.5t-14 65.5q0 69 52 112.5t136 43.5q99 0 156.5 -61t57.5 -166q0 -90 -43.5 -180t-125.5 -161.5t-194 -105.5q-3 -1 -5.5 4t1.5 7q85 39 145 108.5t90 151t30 158.5q0 51 -12.5 102.5t-41 86.5t-72.5 35q-73 0 -73 -110q0 -58 21 -91.5
t63 -33.5q18 0 34.5 7t36.5 24q1 1 3 1q3 0 5.5 -3t1.5 -5q-23 -31 -56 -47t-72 -16q-47 0 -78.5 21z" />
    <glyph glyph-name="colon" unicode=":" horiz-adv-x="207" 
d="M44 0zM60.5 5.5q-16.5 16.5 -16.5 44.5q0 26 16.5 42t44.5 16t43.5 -15.5t15.5 -42.5q0 -29 -15.5 -45t-43.5 -16t-44.5 16.5zM60.5 286.5q-16.5 16.5 -16.5 44.5q0 26 16.5 42t44.5 16t43.5 -15.5t15.5 -42.5q0 -29 -15.5 -45t-43.5 -16t-44.5 16.5z" />
    <glyph glyph-name="semicolon" unicode=";" horiz-adv-x="232" 
d="M45 0zM164.5 79q19.5 -27 19.5 -77q0 -45 -20 -83.5t-60 -77.5q-1 -1 -3 -1q-3 0 -5 3t0 5q49 50 49 118q0 28 -10 41q-9 -15 -37 -15q-24 0 -38.5 15.5t-14.5 40.5q0 27 17.5 42.5t47.5 15.5q35 0 54.5 -27zM62.5 286.5q-16.5 16.5 -16.5 44.5q0 26 16.5 42t44.5 16
t43.5 -15.5t15.5 -42.5q0 -29 -15.5 -45t-43.5 -16t-44.5 16.5z" />
    <glyph glyph-name="less" unicode="&#x3c;" horiz-adv-x="407" 
d="M377 46q0 -24 -7 -21l-334 148q-5 3 -5 17q0 15 5 17l334 147q3 2 5 -4t2 -16q0 -24 -7 -28l-272 -116l272 -116q7 -3 7 -28z" />
    <glyph glyph-name="equal" unicode="=" horiz-adv-x="468" 
d="M30.5 244q-1.5 8 -1.5 17q0 8 1.5 15t2.5 7h401q2 0 3.5 -7.5t1.5 -15.5q0 -9 -1.5 -16.5t-3.5 -7.5h-400q-2 0 -3.5 8zM30.5 104q-1.5 8 -1.5 17q0 8 1.5 15t2.5 7h401q2 0 3.5 -7.5t1.5 -15.5q0 -9 -1.5 -16.5t-3.5 -7.5h-400q-2 0 -3.5 8z" />
    <glyph glyph-name="greater" unicode="&#x3e;" horiz-adv-x="407" 
d="M376 189q0 -14 -5 -17l-334 -147q-3 -1 -5 5t-2 15t2 18t5 10l272 116l-272 116q-3 2 -5 10.5t-2 17.5q0 10 2 16.5t5 4.5l334 -148q5 -2 5 -17z" />
    <glyph glyph-name="question" unicode="?" horiz-adv-x="339" 
d="M145 595q-6 -11 -8 -30q-2 -28 -13.5 -48.5t-43.5 -20.5q-26 0 -38 14t-12 33q0 35 38.5 58.5t96.5 23.5q65 0 109.5 -31t44.5 -88q0 -38 -19 -62.5t-56 -54.5l-22 -18q-31 -27 -45 -56.5t-14 -66.5q0 -15 5 -53q2 -3 -6 -5t-10 1q-12 27 -19 62t-7 59q0 30 9.5 49.5
t28.5 43.5q21 26 32.5 50.5t11.5 63.5q0 38 -11.5 62.5t-31.5 24.5q-14 0 -20 -11zM108.5 5.5q-16.5 16.5 -16.5 44.5q0 26 16.5 42t44.5 16t43.5 -15.5t15.5 -42.5q0 -29 -15.5 -45t-43.5 -16t-44.5 16.5z" />
    <glyph glyph-name="at" unicode="@" horiz-adv-x="729" 
d="M402 115q0 16 4 32l2 7q-34 -46 -72.5 -73t-72.5 -27q-25 0 -41.5 16t-16.5 51q0 6 2 22q8 54 42.5 104t81 81.5t87.5 31.5q15 0 28.5 -6t21.5 -18q28 11 34 31q2 2 6 2t7 -1t4 -2l-41 -224q-2 -8 -2 -23q0 -37 37 -37q24 0 49 17.5t42 52.5t17 84q0 67 -32.5 123
t-89 88.5t-127.5 32.5q-76 0 -131.5 -37.5t-85 -101.5t-29.5 -140q0 -82 34 -143.5t96 -95t145 -33.5q47 0 86.5 11t80.5 40h1q3 0 5.5 -3.5t-0.5 -4.5q-52 -44 -103 -61t-106 -17q-84 0 -152.5 33.5t-108.5 97t-40 150.5q0 95 47.5 170t126.5 116.5t169 41.5
q80 0 141 -32.5t94.5 -86t33.5 -116.5q0 -58 -28 -106.5t-76 -77t-105 -28.5q-65 0 -65 59zM356.5 141.5q24.5 23.5 45.5 60.5t28 73q2 14 2 20q0 19 -6.5 30.5t-18.5 11.5q-35 0 -67 -43t-44 -100q-5 -22 -5 -39q0 -16 5.5 -26.5t16.5 -10.5q19 0 43.5 23.5z" />
    <glyph glyph-name="A" unicode="A" 
d="M722 6q0 -6 -5 -6q-20 0 -62 2q-44 2 -63 2q-25 0 -61 -2q-34 -2 -54 -2q-4 0 -4 6t4 6q26 0 37.5 5.5t11.5 19.5q0 17 -20 57l-104 205h-178l-71 -157q-13 -29 -13 -54q0 -36 25.5 -56t68.5 -20q5 0 5 -6t-5 -6q-18 0 -52 2q-38 2 -66 2q-27 0 -65 -2q-34 -2 -55 -2
q-4 0 -4 6t4 6q28 0 47 11.5t38 41t45 87.5l217 477q2 3 9 3q8 0 9 -3l250 -492q35 -71 58 -98t48 -27q5 0 5 -6zM237 327h151l-80 158z" />
    <glyph glyph-name="B" unicode="B" horiz-adv-x="595" 
d="M493.5 295q49.5 -46 49.5 -114q0 -52 -30 -94t-83 -66.5t-118 -24.5q-28 0 -64 3q-14 1 -34.5 2t-45.5 1l-73 -1q-20 -1 -54 -1q-3 0 -3 6t3 6q29 0 44 5.5t21.5 20t6.5 43.5v463q0 42 -14 55.5t-57 13.5q-2 0 -2 6t2 6l53 -1q46 -2 73 -2q28 0 58 3q10 1 30 2t35 1
q91 0 141 -33t50 -96q0 -48 -31.5 -87t-90.5 -61q84 -10 133.5 -56zM236 592.5q-11 -13.5 -11 -50.5v-190l40 -1q52 0 80 39t28 100q0 57 -25 86.5t-72 29.5q-29 0 -40 -13.5zM426 157q0 77 -37 122t-112 45q-29 0 -52 -2v-241q0 -33 13 -46.5t57 -13.5q131 0 131 136z" />
    <glyph glyph-name="C" unicode="C" horiz-adv-x="669" 
d="M513 628.5q48 -7.5 75 -19.5q9 -3 11.5 -7.5t4.5 -15.5l12 -139q0 -3 -5 -4t-6 3q-34 79 -91 122t-132 43q-99 0 -153 -73t-54 -196q0 -92 29.5 -168t83 -120.5t121.5 -44.5q64 0 114.5 42.5t90.5 129.5q1 4 6.5 3t5.5 -4l-15 -136q-2 -12 -4.5 -15.5t-11.5 -7.5
q-89 -33 -183 -33q-122 0 -204 48.5t-120.5 123t-38.5 155.5q0 95 51.5 168t137 113t183.5 40q44 0 92 -7.5z" />
    <glyph glyph-name="D" unicode="D" horiz-adv-x="705" 
d="M250 -1q-16 1 -39.5 2t-52.5 1l-74 -1q-20 -1 -54 -1q-2 0 -2 6t2 6q32 0 47 5t20.5 19.5t5.5 44.5v463q0 30 -5.5 44t-20 19.5t-45.5 5.5q-3 0 -3 6t3 6l53 -1q46 -2 73 -2q41 0 84 3q52 2 70 2q101 0 179.5 -40t121.5 -109t43 -155q0 -97 -44.5 -171.5t-120 -115
t-165.5 -40.5q-32 0 -76 3zM429 51.5q49 32.5 76.5 96.5t27.5 153q0 85 -26 154.5t-74 109.5t-111 40q-62 0 -85 -12t-23 -51v-450q0 -40 21 -56.5t81 -16.5q64 0 113 32.5z" />
    <glyph glyph-name="E" unicode="E" horiz-adv-x="552" 
d="M500 161q3 0 5.5 -1.5t2.5 -2.5q-10 -78 -10 -142q0 -8 -3 -11.5t-12 -3.5h-442q-3 0 -3 6t3 6q32 0 46.5 5t19.5 19.5t5 44.5v463q0 30 -5 44t-20 19.5t-46 5.5q-3 0 -3 6t3 6h424q10 0 10 -9l2 -133q0 -2 -5.5 -3t-6.5 2q-16 58 -54 86t-100 28h-30q-30 0 -44 -13
t-14 -40v-204h83q58 0 89 20t31 56q0 3 5.5 3t5.5 -3l-1 -90l1 -48q2 -34 2 -54q0 -2 -6 -2t-6 2q0 41 -31.5 64.5t-90.5 23.5h-82v-226q0 -29 11 -43t35 -14h33q78 0 125 32t69 99q0 2 4 2z" />
    <glyph glyph-name="F" unicode="F" horiz-adv-x="522" 
d="M477 483q0 -2 -5.5 -3t-6.5 2q-16 58 -54 86t-100 28h-30q-30 0 -44 -13t-14 -40v-216h72q58 0 88.5 20.5t30.5 56.5q0 2 6 2t6 -2l-1 -91q0 -32 1 -48l1 -53q0 -3 -6 -3t-6 3q0 40 -31.5 63.5t-89.5 23.5h-71v-214q0 -31 8 -46t30 -21t69 -6q2 0 2 -6t-2 -6q-41 0 -64 1
l-102 1l-75 -1q-20 -1 -55 -1q-3 0 -3 6t3 6q35 0 51 5t21.5 19.5t5.5 44.5v463q0 30 -5 44t-20 19.5t-46 5.5q-3 0 -3 6t3 6h424q10 0 10 -9z" />
    <glyph glyph-name="G" unicode="G" horiz-adv-x="719" 
d="M217 30q-82 42 -125 114.5t-43 161.5q0 96 49.5 171.5t136 117t193.5 41.5q47 0 95 -7.5t77 -19.5q9 -3 11.5 -7.5t3.5 -15.5l13 -139q0 -3 -5 -4t-7 3q-35 77 -96.5 120t-140.5 43q-102 0 -155.5 -71t-53.5 -194q0 -99 34 -176.5t94.5 -120t135.5 -42.5q41 0 63 9t32 35
t10 77q0 52 -6 72.5t-25.5 27.5t-67.5 7q-6 0 -6 8q0 3 1.5 5.5t3.5 2.5q85 -5 137 -5q51 0 106 3q2 0 3.5 -2.5t1.5 -4.5q0 -7 -5 -7q-18 1 -25 -6.5t-9 -30t-2 -80.5q0 -45 3.5 -64t3.5 -24q0 -6 -2.5 -8t-9.5 -4q-129 -28 -232 -28q-110 0 -192 42z" />
    <glyph glyph-name="H" unicode="H" horiz-adv-x="764" 
d="M735 6q0 -6 -3 -6q-35 0 -56 1l-77 1l-90 -1q-18 -1 -49 -1q-3 0 -3 6t3 6q37 0 54 5t23 19t6 45v230h-323v-230q0 -30 6 -44.5t23 -19.5t54 -5q2 0 2 -6t-2 -6q-35 0 -56 1l-87 1l-75 -1q-20 -1 -55 -1q-2 0 -2 6t2 6q35 0 51 5t22 19.5t6 44.5v463q0 30 -6 44
t-21.5 19.5t-49.5 5.5q-3 0 -3 6t3 6l54 -1q46 -2 74 -2q38 0 88 2l55 1q2 0 2 -6t-2 -6q-36 0 -53 -6t-23.5 -20.5t-6.5 -44.5v-203h323v203q0 30 -6 44.5t-23 20.5t-54 6q-3 0 -3 6t3 6l49 -1q50 -2 90 -2q27 0 77 2l56 1q3 0 3 -6t-3 -6q-34 0 -50.5 -5.5t-22 -19.5
t-5.5 -44v-463q0 -30 5.5 -44.5t21.5 -19.5t51 -5q3 0 3 -6z" />
    <glyph glyph-name="I" unicode="I" horiz-adv-x="342" 
d="M232 36q5 -14 19.5 -19t46.5 -5q3 0 3 -6t-3 -6q-33 0 -52 1l-76 1l-74 -1q-20 -1 -54 -1q-2 0 -2 6t2 6q32 0 47 5t20.5 19.5t5.5 44.5v463q0 30 -5.5 44t-20.5 19.5t-47 5.5q-2 0 -2 6t2 6l54 -1q46 -2 74 -2q31 0 77 2l51 1q3 0 3 -6t-3 -6q-31 0 -46 -6t-20 -20.5
t-5 -44.5v-461q0 -31 5 -45z" />
    <glyph glyph-name="J" unicode="J" horiz-adv-x="339" 
d="M301 619q0 -6 -3 -6q-26 0 -38.5 -6t-16.5 -20.5t-4 -44.5v-546q0 -112 -55.5 -175t-154.5 -63q-38 0 -62 16t-24 44q0 20 13 35.5t39 15.5q25 0 38.5 -15t24.5 -42q6 -16 12 -24.5t15 -8.5q21 0 31 34t10 113v618q0 30 -6.5 44t-23.5 19.5t-54 5.5q-2 0 -2 6t2 6l62 -1
q48 -2 77 -2q28 0 70 2l47 1q3 0 3 -6z" />
    <glyph glyph-name="K" unicode="K" horiz-adv-x="655" 
d="M667 6q0 -6 -3 -6h-112q-16 0 -27 -1t-18 -1q-16 0 -27.5 7.5t-28 27.5t-58.5 77q-5 7 -11.5 15.5t-14.5 19.5l-131 176l-22 -22v-218q0 -31 5 -45t19.5 -19t46.5 -5q4 0 4 -6t-4 -6q-33 0 -52 1l-75 1l-74 -1q-20 -1 -54 -1q-2 0 -2 6t2 6q32 0 47 5t20.5 19.5t5.5 44.5
v463q0 30 -5.5 44t-20 19.5t-45.5 5.5q-3 0 -3 6t3 6l53 -1q46 -2 73 -2q30 0 76 2l51 1q3 0 3 -6t-3 -6q-31 0 -45.5 -6t-20 -20.5t-5.5 -44.5v-212l188 192q29 29 29 53q0 18 -16 28t-45 10q-3 0 -3 6t3 6l47 -1q44 -2 82 -2q41 0 85 2l45 1q3 0 3 -6t-3 -6
q-46 0 -101 -26.5t-100 -70.5l-113 -115l148 -200q65 -93 97.5 -131.5t52.5 -48t51 -9.5q3 0 3 -6z" />
    <glyph glyph-name="L" unicode="L" horiz-adv-x="545" 
d="M213 85q0 -26 4 -37.5t15.5 -15.5t37.5 -4h34q78 0 135 41.5t76 112.5q0 2 4 2q2 0 4.5 -1.5t2.5 -2.5q-9 -99 -9 -165q0 -8 -3.5 -11.5t-11.5 -3.5h-472q-2 0 -2 6t2 6q32 0 46.5 5t20 19.5t5.5 44.5v463q0 30 -5.5 44t-20.5 19.5t-46 5.5q-2 0 -2 6t2 6l51 -1
q46 -2 76 -2t76 2l51 1q3 0 3 -6t-3 -6q-31 0 -46 -5.5t-20 -20t-5 -44.5v-458z" />
    <glyph glyph-name="M" unicode="M" horiz-adv-x="857" 
d="M835 6q0 -6 -2 -6q-34 0 -54 1l-74 1l-75 -1q-19 -1 -52 -1q-3 0 -3 6t3 6q42 0 57 10t15 42l-1 17l-21 409l-206 -483q-2 -4 -8 -4t-8 4l-253 481l-8 -361q-1 -54 21.5 -84.5t63.5 -30.5q3 0 3 -6t-3 -6q-27 0 -42 1l-55 1l-63 -1q-16 -1 -43 -1q-3 0 -3 6t3 6
q41 0 65 31t25 84l9 414l-1 1q-20 37 -41.5 54t-49.5 17q-3 0 -3 6t3 6l47 -1q14 -1 36 -1l53 1q9 1 23 1q13 0 20 -9t26 -43l218 -409l190 436q6 14 12.5 19.5t17.5 5.5q9 0 20.5 -1t26.5 -1l59 1q14 1 40 1q3 0 3 -6t-3 -6q-47 0 -68 -19t-19 -59l24 -454q2 -31 7.5 -45
t20 -19t45.5 -5q2 0 2 -6z" />
    <glyph glyph-name="N" unicode="N" horiz-adv-x="735" 
d="M725 619q0 -6 -2 -6q-40 0 -63 -31.5t-23 -84.5v-512q0 -3 -4.5 -4t-6.5 1l-469 534v-389q0 -53 22 -84t61 -31q2 0 2 -6t-2 -6q-28 0 -43 1l-54 1l-62 -1q-17 -1 -49 -1q-3 0 -3 6t3 6q44 0 69.5 31t25.5 84v423q-33 36 -56.5 49.5t-48.5 13.5q-2 0 -2 6t2 6l42 -1
q13 -1 38 -1l76 1q14 1 34 1q8 0 12 -4t14 -17q17 -23 24 -31l346 -399v323q0 54 -22 85t-61 31q-2 0 -2 6t2 6l43 -1q32 -2 54 -2q20 0 56 2l45 1q2 0 2 -6z" />
    <glyph glyph-name="O" unicode="O" horiz-adv-x="766" 
d="M200.5 31.5q-72.5 43.5 -112 118t-39.5 162.5q0 103 52 176.5t133.5 110.5t166.5 37q95 0 167 -44.5t110.5 -117.5t38.5 -155q0 -91 -48 -167t-128.5 -120t-174.5 -44q-93 0 -165.5 43.5zM499.5 45.5q44.5 32.5 69.5 95t25 149.5q0 92 -28 164.5t-81 113.5t-124 41
q-91 0 -140 -68.5t-49 -191.5q0 -97 29.5 -173.5t81 -119.5t116.5 -43q56 0 100.5 32.5z" />
    <glyph glyph-name="P" unicode="P" horiz-adv-x="553" 
d="M223 38.5q7 -14.5 26.5 -20.5t62.5 -6q3 0 3 -6t-3 -6q-41 0 -64 1l-87 1l-73 -1q-20 -1 -54 -1q-3 0 -3 6t3 6q32 0 46.5 5t19.5 19.5t5 44.5v463q0 30 -5 44t-20 19.5t-46 5.5q-3 0 -3 6t3 6l53 -1q46 -2 73 -2q24 0 57 3q13 1 33 2t46 1q102 0 161 -42.5t59 -131.5
q0 -62 -32 -105t-82.5 -65t-103.5 -22q-27 0 -47 5q-2 0 -2 5q0 3 1.5 6t3.5 2q15 -4 34 -4q46 0 76.5 43t30.5 122t-33.5 122t-97.5 43q-28 0 -38 -13t-10 -51v-457q0 -32 7 -46.5z" />
    <glyph glyph-name="Q" unicode="Q" horiz-adv-x="766" 
d="M749.5 -183q1.5 -5 -0.5 -6q-41 -12 -81 -12q-77 0 -159 50t-141 139h-2q-93 0 -165.5 43.5t-112 118t-39.5 162.5q0 103 52 176.5t133.5 110.5t166.5 37q95 0 167 -44.5t110.5 -117.5t38.5 -155q0 -105 -62.5 -189t-162.5 -120q39 -84 100.5 -137.5t117.5 -53.5
q17 0 35 2q3 1 4.5 -4zM201.5 175.5q29.5 -76.5 81 -119.5t116.5 -43q56 0 100.5 32.5t69.5 95t25 149.5q0 92 -28 164.5t-81 113.5t-124 41q-91 0 -140 -68.5t-49 -191.5q0 -97 29.5 -173.5z" />
    <glyph glyph-name="R" unicode="R" horiz-adv-x="698" 
d="M710 6q0 -6 -2 -6h-178q-22 0 -82 82.5t-145 230.5q-8 -1 -23 -1q-39 0 -55 1v-232q0 -31 5 -45t19.5 -19t46.5 -5q2 0 2 -6t-2 -6q-33 0 -52 1l-76 1l-73 -1q-20 -1 -54 -1q-3 0 -3 6t3 6q32 0 46.5 5t20 19.5t5.5 44.5v463q0 30 -5 44t-20 19.5t-46 5.5q-2 0 -2 6t2 6
l53 -1q46 -2 73 -2q29 0 64 3q11 1 28.5 2t41.5 1q92 0 142.5 -33.5t50.5 -93.5q0 -46 -28 -88t-73 -68q80 -126 134.5 -197t97 -103.5t82.5 -32.5q2 0 2 -6zM283 338q36 0 57 11t30.5 38t9.5 76q0 82 -24 113t-69 31q-34 0 -48 -15t-14 -50v-200q24 -4 58 -4z" />
    <glyph glyph-name="S" unicode="S" horiz-adv-x="515" 
d="M192.5 460q18.5 -28 45.5 -49t73 -51q50 -32 80 -56t51 -58.5t21 -79.5q0 -52 -28 -92.5t-77.5 -63t-110.5 -22.5q-45 0 -94 12.5t-66 27.5q-5 4 -7.5 7.5t-2.5 11.5l-3 159v1q0 4 5 4.5t6 -3.5q30 -61 52.5 -99t57 -67t78.5 -29q40 0 66 21.5t26 73.5q0 44 -19.5 77
t-47.5 56t-77 55q-48 31 -74.5 53t-45.5 53t-19 73q0 53 30.5 89.5t78.5 54t101 17.5q35 0 71 -6.5t58 -15.5q9 -4 12 -8.5t3 -11.5v-147q0 -3 -5 -4.5t-6 1.5l-8 19q-25 63 -58.5 107t-93.5 44q-40 0 -65.5 -23t-25.5 -67q0 -36 18.5 -64z" />
    <glyph glyph-name="T" unicode="T" horiz-adv-x="643" 
d="M51 447q-1 -3 -6 -2.5t-5 3.5q4 40 9 103.5t5 95.5q0 5 5.5 5t5.5 -5q0 -22 57 -22q86 -3 201 -3q59 0 125 2l68 1q38 0 55.5 5t22.5 20q1 4 6.5 4t5.5 -4q-3 -30 -6.5 -96t-3.5 -106q0 -3 -5 -3t-6 3q-15 77 -56 115.5t-101 38.5q-29 0 -38.5 -12.5t-9.5 -47.5v-461
q0 -31 6 -45t23 -19t54 -5q3 0 3 -6t-3 -6q-36 0 -57 1l-83 1l-81 -1q-21 -1 -58 -1q-3 0 -3 6t3 6q36 0 53.5 5t24 19.5t6.5 44.5v463q0 34 -9 46t-37 12q-119 0 -171 -155z" />
    <glyph glyph-name="U" unicode="U" horiz-adv-x="703" 
d="M546.5 582q-24.5 31 -68.5 31q-2 0 -2 6t2 6l48 -1q38 -2 61 -2q19 0 55 2l46 1q2 0 2 -6t-2 -6q-39 0 -61 -31t-22 -85v-278q0 -70 -31 -123t-87.5 -81.5t-130.5 -28.5t-131 28t-89.5 81.5t-32.5 125.5v323q0 30 -5.5 44t-20 19.5t-45.5 5.5q-3 0 -3 6t3 6l53 -1
q46 -2 73 -2q30 0 76 2l51 1q3 0 3 -6t-3 -6q-31 0 -45.5 -6t-20 -20.5t-5.5 -44.5v-286q0 -119 47 -176t133 -57q83 0 130 50.5t47 144.5v279q0 54 -24.5 85z" />
    <glyph glyph-name="V" unicode="V" horiz-adv-x="660" 
d="M668 619q0 -6 -3 -6q-36 0 -69 -32t-53 -86l-185 -494q-1 -4 -11 -4t-11 4l-255 541q-18 36 -36 53.5t-40 17.5q-3 0 -3 6t3 6q15 0 21 -1q20 -2 52 -2q86 0 146 2q16 1 40 1q3 0 3 -6t-3 -6q-30 0 -46.5 -12.5t-16.5 -35.5q0 -17 11 -41l173 -369l130 343q10 28 10 48
q0 31 -18.5 49t-53.5 18q-3 0 -3 6t3 6l49 -1q42 -2 75 -2q19 0 47 2l41 1q3 0 3 -6z" />
    <glyph glyph-name="W" unicode="W" horiz-adv-x="911" 
d="M919 619q0 -6 -2 -6q-37 0 -69.5 -31.5t-53.5 -86.5l-185 -494q-1 -4 -11 -4t-11 4l-128 271l-101 -271q-1 -4 -11 -4t-11 4l-255 541q-15 32 -24.5 46t-21 19.5t-30.5 5.5q-3 0 -3 6t3 6q15 0 21 -1q20 -2 52 -2q67 0 113 2q13 1 32 1q3 0 3 -6t-3 -6q-25 0 -35.5 -5
t-10.5 -18q0 -17 23 -66l180 -382l63 165l-111 235q-17 36 -32 53.5t-32 17.5q-3 0 -3 6t3 6q10 0 23.5 -1.5t38.5 -1.5q57 0 95 2q10 1 26 1q3 0 3 -6t-3 -6q-14 0 -20.5 -3.5t-6.5 -12.5q0 -17 27 -73l44 -93l25 67q22 57 22 86t-25 29q-3 0 -3 6t3 6q8 0 17.5 -1.5
t47.5 -1.5q17 0 41 2l37 1q2 0 2 -6t-2 -6q-67 0 -111 -118l-37 -99l120 -253l129 345q12 32 12 58q0 31 -15.5 49t-41.5 18q-3 0 -3 6t3 6l46 -1q36 -2 66 -2q20 0 46 2l43 1q2 0 2 -6z" />
    <glyph glyph-name="X" unicode="X" horiz-adv-x="647" 
d="M647 6q0 -6 -3 -6q-29 0 -45 1l-60 1l-82 -1q-19 -1 -53 -1q-3 0 -3 6t3 6q33 0 33 17q0 9 -9 22l-137 212l-86 -123q-39 -55 -39 -89q0 -39 52 -39q2 0 2 -6t-2 -6q-33 0 -50 1l-74 1l-47 -1q-13 -1 -42 -1q-3 0 -3 6t3 6q31 0 76 33t94 101l102 138l-160 249
q-27 43 -52 61.5t-53 18.5q-3 0 -3 6t3 6l43 -1q28 -2 42 -2q35 0 87 2l57 1q2 0 2 -6t-2 -6q-34 0 -34 -17q0 -8 9 -23l132 -203l80 114q39 56 39 90q0 39 -52 39q-2 0 -2 6t2 6l50 -1q40 -2 74 -2q21 0 47 2l42 1q3 0 3 -6t-3 -6q-32 0 -76.5 -33.5t-94.5 -101.5l-95 -130
l171 -265q25 -37 51 -54t60 -17q3 0 3 -6z" />
    <glyph glyph-name="Y" unicode="Y" horiz-adv-x="619" 
d="M627 619q0 -6 -2 -6q-31 0 -76 -38.5t-80 -96.5l-104 -174v-223q0 -31 5 -45t19.5 -19t46.5 -5q3 0 3 -6t-3 -6q-33 0 -52 1l-75 1l-74 -1q-20 -1 -54 -1q-2 0 -2 6t2 6q32 0 47 5t20.5 19.5t5.5 44.5v202l-146 227q-37 58 -61.5 80.5t-41.5 22.5q-3 0 -3 6t3 6l31 -1
q22 -2 31 -2q35 0 101 2l66 1q2 0 2 -6t-2 -6q-17 0 -26.5 -8t-9.5 -21q0 -16 14 -38l137 -216l92 157q27 45 27 77q0 24 -14.5 36.5t-41.5 12.5q-3 0 -3 6t3 6l53 -1q46 -2 82 -2q17 0 41 2l37 1q2 0 2 -6z" />
    <glyph glyph-name="Z" unicode="Z" horiz-adv-x="605" 
d="M411 600q3 5 2.5 6.5t-7.5 1.5q-114 0 -173.5 -8.5t-97.5 -36t-66 -85.5q-1 -1 -4 -1q-9 0 -8 4l40 174q0 1 4 1q10 0 8 -3q-1 -3 -1 -8q0 -12 11.5 -16t46.5 -4h365q5 0 7.5 -5t-0.5 -8l-346 -585q-4 -5 -3 -6.5t7 -1.5h202q36 0 70 18.5t58 49.5t30 66q1 3 6 3t5 -3
l-14 -145q0 -3 -2.5 -6.5t-6.5 -3.5q-149 2 -479 2q-4 0 -6 4.5t1 8.5z" />
    <glyph glyph-name="bracketleft" unicode="[" horiz-adv-x="274" 
d="M67 715q0 7 1.5 8.5t7.5 1.5h160q3 0 3 -6t-3 -6q-31 0 -46 -6t-20 -20.5t-5 -44.5v-676q0 -30 5 -44.5t20 -20.5t46 -6q3 0 3 -6t-3 -6h-160q-6 0 -7.5 2t-1.5 9v821z" />
    <glyph glyph-name="backslash" unicode="\" horiz-adv-x="351" 
d="M26 716q-1 5 22 11.5t25 2.5l252 -882q1 -4 -22.5 -10.5t-25.5 -2.5z" />
    <glyph glyph-name="bracketright" unicode="]" horiz-adv-x="274" 
d="M205.5 -115q-1.5 -2 -7.5 -2h-160q-3 0 -3 6t3 6q31 0 46 6t20 20.5t5 44.5v676q0 30 -5 44.5t-20 20.5t-46 6q-3 0 -3 6t3 6h160q6 0 7.5 -1.5t1.5 -8.5v-821q0 -7 -1.5 -9z" />
    <glyph glyph-name="asciicircum" unicode="^" horiz-adv-x="392" 
d="M333 379q0 -2 -4 -4t-5 0l-128 134l-128 -134q-1 -1 -3 -1q-3 0 -5.5 2t-1.5 4l127 249q1 5 11 5t11 -5l126 -249v-1z" />
    <glyph glyph-name="underscore" unicode="_" horiz-adv-x="398" 
d="M30.5 -73q-1.5 8 -1.5 18q0 9 1 16t3 7h331q2 0 3.5 -8t1.5 -17t-1.5 -16.5t-3.5 -7.5h-330q-2 0 -3.5 8z" />
    <glyph glyph-name="grave" unicode="`" horiz-adv-x="213" 
d="M37 731q22 0 53 -5.5t32 -9.5l32 -240q0 -2 -4.5 -3.5t-5.5 1.5l-121 253q-1 4 14 4z" />
    <glyph glyph-name="a" unicode="a" horiz-adv-x="421" 
d="M419 54q4 0 5.5 -4.5t-2.5 -6.5l-103 -49q-4 -2 -10 -2q-15 0 -29.5 15t-20.5 41l-46 -25q-26 -13 -54 -21.5t-50 -8.5q-32 0 -50.5 16.5t-18.5 47.5q0 23 11.5 37t33 23.5t68.5 25.5l102 33v79q0 60 -12 88.5t-39 28.5q-24 0 -38 -18t-17 -59q-6 -56 -59 -56
q-47 0 -47 41q0 27 34 54t82 44t84 17q47 0 76.5 -28t29.5 -82v-177q0 -29 10.5 -45t29.5 -16q14 0 29 7h1zM256 64q-1 7 -1 21v74l-55 -20q-27 -10 -38.5 -22t-11.5 -29q0 -21 12 -33t30 -12q22 0 51 14z" />
    <glyph glyph-name="b" unicode="b" horiz-adv-x="516" 
d="M401 378q38 -21 60.5 -63t22.5 -102q0 -72 -30.5 -123t-80 -77t-105.5 -26q-38 0 -74.5 12t-66.5 35l-91 -41h-2q-4 0 -5 4t3 5q24 14 36.5 38.5t12.5 62.5v486q0 35 -6.5 50t-23.5 15q-13 0 -37 -11h-1q-4 0 -6 5.5t0 6.5l146 69l5 1q5 0 10.5 -4.5t5.5 -8.5v-380
q33 31 67 49t77 18q45 0 83 -21zM358 51q23 44 23 123q0 87 -29 129.5t-81 42.5q-47 0 -97 -34v-147q0 -55 19 -90.5t46 -51.5t53 -16q43 0 66 44z" />
    <glyph glyph-name="c" unicode="c" horiz-adv-x="425" 
d="M122.5 16.5q-45.5 28.5 -68 74t-22.5 95.5q0 63 35 110.5t89.5 73t111.5 25.5q48 0 86.5 -20t38.5 -55q0 -19 -14.5 -32.5t-40.5 -13.5q-24 0 -38 12.5t-23 38.5q-9 28 -17.5 38.5t-30.5 10.5q-43 0 -68.5 -42.5t-25.5 -112.5q0 -83 37 -132.5t118 -49.5q27 0 46.5 6
t49.5 20h1q3 0 5.5 -3t0.5 -5q-37 -34 -74 -50.5t-85 -16.5q-66 0 -111.5 28.5z" />
    <glyph glyph-name="d" unicode="d" horiz-adv-x="510" 
d="M503 65q3 0 5.5 -5t0.5 -6l-138 -67l-5 -1q-9 0 -16.5 19t-9.5 52q-74 -70 -151 -70q-44 0 -79.5 23t-56.5 67.5t-21 104.5q0 76 35.5 124.5t88 70.5t105.5 22q37 0 78 -12v202q0 35 -6.5 50t-22.5 15q-13 0 -37 -11h-1q-4 0 -6.5 5.5t-0.5 6.5l147 69l4 1q5 0 11 -4.5
t6 -8.5v-596q0 -34 6.5 -48t21.5 -14q13 0 41 11h1zM339 77v5v243q-18 25 -40.5 36.5t-52.5 11.5q-54 0 -82.5 -37.5t-28.5 -121.5t30 -131.5t79 -47.5q50 0 95 42z" />
    <glyph glyph-name="e" unicode="e" horiz-adv-x="418" 
d="M388 66q2 0 4.5 -4t0.5 -6q-37 -36 -75 -52t-83 -16q-63 0 -109 26.5t-70 71t-24 95.5q0 58 30 107.5t82 78t116 28.5q62 0 95 -26.5t33 -72.5q0 -29 -11 -29h-61l-180 -2q-3 -19 -3 -42q0 -86 40.5 -136t111.5 -50q25 0 52 7t49 21zM171 351q-22 -24 -32 -66l142 3
q-3 87 -58 87q-30 0 -52 -24z" />
    <glyph glyph-name="f" unicode="f" horiz-adv-x="305" 
d="M406 710.5q31 -15.5 31 -43.5q0 -23 -15.5 -36t-35.5 -13q-24 0 -35 11t-20 32t-19 31.5t-32 10.5q-46 0 -72.5 -64t-26.5 -200v-61q31 1 110 9q3 0 5 -7.5t2 -16.5q0 -10 -3.5 -19.5t-6.5 -8.5q-48 12 -107 15v-269q0 -31 6 -45t24.5 -19t58.5 -5q4 0 4 -6t-4 -6l-69 1
q-23 1 -68 1l-61 -1q-16 -1 -45 -1q-4 0 -4 6t4 6q26 0 38.5 5t17 19.5t4.5 44.5v225q0 31 -13 40.5t-51 9.5q-3 0 -3 9t3 9q35 0 48 9.5t14 34.5q5 163 62 235.5t172 72.5q56 0 87 -15.5z" />
    <glyph glyph-name="g" unicode="g" horiz-adv-x="451" 
d="M350 24q35 -10 60.5 -34t25.5 -68q0 -54 -34.5 -101t-93 -75t-126.5 -28q-74 0 -121 32t-47 83q0 34 22 70t82 79q-30 9 -46.5 26t-16.5 46q0 25 19.5 51.5t60.5 49.5q-44 15 -68 46t-24 67q0 40 26 68t66 42.5t80 14.5q67 0 111 -33q27 18 53 27t56 9q8 0 8 -28
q0 -14 -4 -31t-7 -14q-42 17 -75 17h-8q26 -31 26 -70q0 -38 -25.5 -66.5t-65.5 -43.5t-82 -15q-27 0 -51 6q-20 -16 -20 -41q0 -22 16.5 -34t40.5 -18t68 -14q59 -10 94 -20zM140 295q0 -52 25 -92t64 -40q19 0 33.5 20t14.5 63q0 54 -28 91t-67 37q-42 0 -42 -79z
M319.5 -219.5q32.5 30.5 32.5 81.5q0 38 -21.5 58.5t-52 29t-83.5 16.5l-54 9q-28 -33 -28 -94q0 -63 34 -97t88 -34q52 0 84.5 30.5z" />
    <glyph glyph-name="h" unicode="h" horiz-adv-x="509" 
d="M495 6q0 -6 -4 -6q-26 0 -42 1l-58 1l-60 -1q-15 -1 -41 -1q-2 0 -2 6t2 6q31 0 42.5 14.5t11.5 54.5v144q0 54 -20 80t-62 26q-24 0 -49.5 -10t-44.5 -27v-213q0 -40 11.5 -54.5t42.5 -14.5q4 0 4 -6t-4 -6q-26 0 -42 1l-58 1l-60 -1q-15 -1 -41 -1q-2 0 -2 6t2 6
q31 0 42.5 14.5t11.5 54.5v508q0 35 -6.5 50t-22.5 15q-14 0 -38 -11h-1q-3 0 -5.5 5.5t-0.5 6.5l146 69l5 1q5 0 10.5 -4.5t5.5 -8.5v-396q71 82 152 82q54 0 85.5 -34.5t31.5 -90.5v-192q0 -40 11.5 -54.5t42.5 -14.5q4 0 4 -6z" />
    <glyph glyph-name="i" unicode="i" horiz-adv-x="263" 
d="M16 0zM36 6q0 6 3 6q31 0 42 14.5t11 54.5v179q0 34 -7 49t-23 15q-13 0 -37 -11h-1q-4 0 -6 5.5t1 6.5l151 70l3 1q5 0 10 -5t5 -9v-22q-2 -40 -2 -98v-181q0 -40 11.5 -54.5t42.5 -14.5q3 0 3 -6t-3 -6q-26 0 -41 1l-60 1l-59 -1q-15 -1 -41 -1q-3 0 -3 6zM90 511
q-16 16 -16 45q0 26 16.5 41.5t44.5 15.5t43 -15t15 -42q0 -29 -15 -45t-43 -16q-29 0 -45 16z" />
    <glyph glyph-name="j" unicode="j" horiz-adv-x="263" 
d="M1 0zM188 360q-2 -40 -2 -98v-310q0 -68 -16.5 -111.5t-55 -72.5t-106.5 -50q-2 -1 -4.5 4.5t0.5 6.5q48 21 68 67t20 133v331q0 34 -6.5 49t-22.5 15q-13 0 -37 -11h-1q-4 0 -6.5 5.5t0.5 6.5l151 70l3 1q5 0 10 -5t5 -9v-22zM88 511q-16 16 -16 45q0 26 16.5 41.5
t44.5 15.5t43 -15t15 -42q0 -29 -15 -45t-43 -16q-29 0 -45 16z" />
    <glyph glyph-name="k" unicode="k" horiz-adv-x="491" 
d="M500 6q0 -6 -3 -6q-26 0 -41 1l-60 1l-77 -1q-17 -1 -46 -1q-3 0 -3 6t3 6q36 0 36 21q0 11 -8 20l-114 146l-19 -17v-101q0 -40 11.5 -54.5t42.5 -14.5q4 0 4 -6t-4 -6q-26 0 -42 1l-58 1l-60 -1q-15 -1 -41 -1q-2 0 -2 6t2 6q31 0 42.5 14.5t11.5 54.5v508
q0 35 -6.5 50t-22.5 15q-14 0 -38 -11h-1q-3 0 -5.5 5.5t-0.5 6.5l146 69l5 1q5 0 10.5 -4.5t5.5 -8.5v-507l93 90q26 24 26 49q0 13 -10 21.5t-28 8.5q-2 0 -2 6t2 6q29 0 45 -1l79 -1l73 1q14 1 39 1q3 0 3 -6t-3 -6q-43 0 -98.5 -21.5t-99.5 -62.5l-36 -33l137 -176
q29 -36 55.5 -52.5t53.5 -16.5q3 0 3 -6z" />
    <glyph glyph-name="l" unicode="l" horiz-adv-x="268" 
d="M33 6q0 6 2 6q31 0 42.5 14.5t11.5 54.5l1 508q0 35 -6.5 50t-22.5 15q-13 0 -38 -11h-1q-3 0 -5.5 5.5t-0.5 6.5l147 69l4 1q5 0 11 -4.5t6 -8.5v-631q0 -40 11 -54.5t42 -14.5q4 0 4 -6t-4 -6q-25 0 -40 1l-61 1l-60 -1q-15 -1 -41 -1q-2 0 -2 6z" />
    <glyph glyph-name="m" unicode="m" horiz-adv-x="777" 
d="M763 6q0 -6 -4 -6q-26 0 -41 1l-60 1l-58 -1q-16 -1 -42 -1q-3 0 -3 6t3 6q31 0 42.5 14.5t11.5 54.5v144q0 54 -18.5 80t-56.5 26q-26 0 -51 -11t-43 -30v-6v-203q0 -40 11.5 -54.5t42.5 -14.5q4 0 4 -6t-4 -6q-26 0 -41 1l-60 1l-58 -1q-16 -1 -42 -1q-3 0 -3 6t3 6
q31 0 42.5 14.5t11.5 54.5v144q0 54 -18.5 80t-56.5 26q-24 0 -47.5 -9.5t-41.5 -26.5v-214q0 -40 11.5 -54.5t42.5 -14.5q3 0 3 -6t-3 -6q-26 0 -41 1l-60 1l-59 -1q-15 -1 -41 -1q-3 0 -3 6t3 6q31 0 42 14.5t11 54.5v188q0 31 -7.5 45.5t-23.5 14.5q-17 0 -48 -14h-2
q-3 0 -4.5 5t0.5 6l139 68q6 2 7 2q11 0 21 -21.5t12 -57.5q68 81 146 81q47 0 75 -23t34 -66q69 89 153 89q54 0 82.5 -31t28.5 -94v-192q0 -40 11.5 -54.5t42.5 -14.5q4 0 4 -6z" />
    <glyph glyph-name="n" unicode="n" horiz-adv-x="526" 
d="M512 6q0 -6 -3 -6q-26 0 -41 1l-60 1l-58 -1q-16 -1 -42 -1q-3 0 -3 6t3 6q31 0 42 14.5t11 54.5v144q0 54 -19.5 80t-61.5 26q-24 0 -49.5 -10t-44.5 -27v-213q0 -40 11.5 -54.5t42.5 -14.5q3 0 3 -6t-3 -6q-26 0 -41 1l-60 1l-59 -1q-15 -1 -41 -1q-3 0 -3 6t3 6
q31 0 42 14.5t11 54.5v188q0 31 -7.5 45.5t-23.5 14.5q-17 0 -48 -14h-2q-3 0 -4.5 5t0.5 6l139 68q6 2 7 2q11 0 21 -21.5t12 -58.5q69 82 152 82q54 0 85.5 -34.5t31.5 -90.5v-192q0 -40 11.5 -54.5t42.5 -14.5q3 0 3 -6z" />
    <glyph glyph-name="o" unicode="o" horiz-adv-x="489" 
d="M128.5 15.5q-46.5 28.5 -71.5 77t-25 105.5q0 65 33 110.5t84 68t105 22.5q62 0 108 -29t70.5 -76.5t24.5 -101.5q0 -60 -30 -106.5t-80.5 -72.5t-109.5 -26q-62 0 -108.5 28.5zM326.5 46.5q20.5 38.5 20.5 110.5q0 70 -18 120t-47 75.5t-62 25.5q-80 0 -80 -143
q0 -67 17 -118.5t46 -80t64 -28.5q39 0 59.5 38.5z" />
    <glyph glyph-name="p" unicode="p" horiz-adv-x="513" 
d="M175 -2v-192q0 -30 6.5 -44t25 -19.5t57.5 -5.5q3 0 3 -6t-3 -6q-37 0 -58 1l-79 1l-59 -1q-15 -1 -42 -1q-3 0 -3 6t3 6q24 0 35.5 5.5t16 19.5t4.5 44v463q0 32 -7 46t-25 14q-16 0 -46 -14h-2q-3 0 -5.5 5t-0.5 6l142 69q2 1 5 1q10 0 18.5 -17t11.5 -46q73 66 150 66
q42 0 78.5 -22t58.5 -64t22 -98q0 -80 -33 -131.5t-83.5 -74t-104.5 -22.5q-49 0 -86 11zM175 311v-8v-241q22 -25 46 -37.5t59 -12.5q101 0 101 172q0 76 -35.5 117.5t-88.5 41.5q-45 0 -82 -32z" />
    <glyph glyph-name="q" unicode="q" horiz-adv-x="502" 
d="M494 -269q0 -6 -3 -6q-26 0 -42 1l-60 1l-71 -1q-19 -1 -54 -1q-2 0 -2 6t2 6q34 0 50 5.5t22 19.5t6 44v250q-33 -32 -67 -50.5t-77 -18.5q-45 0 -83 21t-60.5 63t-22.5 102q0 72 32 123t83.5 77t108.5 26q84 0 143 -40l81 29l2 1q3 0 4 -5t-2 -6q-25 -13 -37 -33
t-12 -50v-489q0 -30 4.5 -44t16 -19.5t35.5 -5.5q3 0 3 -6zM342 75v188q0 39 -17 65t-42 38t-48 12q-50 0 -75 -42.5t-25 -123.5q0 -87 29 -129.5t80 -42.5q49 0 98 35z" />
    <glyph glyph-name="r" unicode="r" horiz-adv-x="379" 
d="M343.5 379.5q21.5 -16.5 21.5 -39.5q0 -21 -13 -34.5t-34 -13.5q-15 0 -24.5 6t-19.5 18q-9 10 -15.5 14.5t-15.5 4.5q-10 0 -21.5 -7.5t-35.5 -31.5v-215q0 -40 19 -54.5t70 -14.5q4 0 4 -6t-4 -6q-35 0 -55 1l-81 1l-59 -1q-15 -1 -41 -1q-3 0 -3 6t3 6q31 0 42 14.5
t11 54.5v188q0 31 -7.5 45.5t-23.5 14.5q-17 0 -48 -14h-2q-3 0 -4.5 5t0.5 6l139 68q6 2 7 2q11 0 20.5 -20.5t11.5 -55.5q41 42 67.5 59t46.5 17q23 0 44.5 -16.5z" />
    <glyph glyph-name="s" unicode="s" horiz-adv-x="337" 
d="M138.5 288q20.5 -21 59.5 -44q38 -22 56.5 -34.5t33.5 -35t15 -54.5q0 -34 -17 -64t-51 -48.5t-81 -18.5q-55 0 -104 27q-6 6 -6 12l-2 99q0 3 5.5 3.5t6.5 -1.5q16 -50 53 -85t75 -35q21 0 33.5 13t12.5 38q0 37 -21 58.5t-62 44.5q-35 19 -53 31t-32 34t-14 54
q0 59 42 86.5t103 27.5q23 0 41.5 -3t41.5 -12q9 -3 9 -11q0 -25 -1 -39l-1 -50q0 -3 -6 -3t-6 3q0 19 -16 41.5t-41.5 38.5t-52.5 16q-41 0 -41 -39q0 -29 20.5 -50z" />
    <glyph glyph-name="t" unicode="t" horiz-adv-x="336" 
d="M324 70q4 0 6.5 -4t-0.5 -6q-37 -37 -72 -54.5t-74 -17.5q-44 0 -75 21t-31 71v222q0 31 -11 43t-40 12q-1 0 -2.5 3t-1.5 6q0 4 1 6.5t3 2.5q51 2 82.5 22t48.5 61q2 4 8.5 4t6.5 -4v-80q58 1 130 9q2 0 4.5 -7.5t2.5 -16.5q0 -10 -3.5 -19.5t-7.5 -8.5q-65 14 -126 15
v-237q0 -38 19.5 -56t51.5 -18q40 0 78 30z" />
    <glyph glyph-name="u" unicode="u" horiz-adv-x="505" 
d="M499 65q3 0 5.5 -5t-0.5 -6l-138 -67q-2 -1 -5 -1q-10 0 -17.5 21.5t-8.5 58.5q-66 -78 -143 -78q-55 0 -86.5 34.5t-31.5 90.5v147q0 65 -31 65q-11 0 -25 -7h-1q-4 0 -6 5.5t1 6.5l134 64l5 1q5 0 10.5 -4.5t5.5 -8.5v-221q0 -108 83 -108q22 0 44.5 9.5t40.5 26.5v171
q0 65 -31 65q-11 0 -26 -7h-1q-3 0 -5 5.5t1 6.5l134 64q2 1 5 1q5 0 10.5 -4.5t5.5 -8.5v-266q0 -34 6.5 -48t21.5 -14q14 0 41 11h2z" />
    <glyph glyph-name="v" unicode="v" horiz-adv-x="440" 
d="M456 380q0 -6 -2 -6q-29 0 -51.5 -22t-42.5 -68l-123 -284q-1 -5 -11 -5q-8 0 -11 5l-153 303q-21 44 -37 57.5t-39 13.5q-3 0 -3 6t3 6q18 0 30 -1l67 -1l77 1q17 1 47 1q3 0 3 -6t-3 -6q-58 0 -58 -23q0 -6 5 -16l112 -210l66 160q8 21 8 36q0 25 -17 39t-47 14
q-2 0 -2 6t2 6q27 0 41 -1l60 -1l40 1q12 1 37 1q2 0 2 -6z" />
    <glyph glyph-name="w" unicode="w" horiz-adv-x="685" 
d="M702 380q0 -6 -3 -6q-28 0 -50.5 -21.5t-42.5 -68.5l-123 -283q0 -4 -10 -4q-11 0 -12 4l-121 238l-103 -238q0 -4 -10 -4q-9 0 -12 4l-153 302q-22 43 -37.5 57t-38.5 14q-3 0 -3 6t3 6q18 0 30 -1l67 -1l71 1q15 1 41 1q3 0 3 -6t-3 -6q-51 0 -51 -22q0 -6 6 -17
l116 -209l59 143l-17 34q-23 44 -35 57.5t-30 13.5q-2 0 -2 6t2 6q16 0 26 -1l60 -1l71 1q15 1 41 1q2 0 2 -6t-2 -6q-20 0 -32.5 -6.5t-12.5 -17.5q0 -8 4 -15l112 -210l66 160q8 21 8 36q0 25 -17.5 39t-46.5 14q-3 0 -3 6t3 6q27 0 40 -1l60 -1l41 1q11 1 36 1q3 0 3 -6z
" />
    <glyph glyph-name="x" unicode="x" horiz-adv-x="440" 
d="M439 6q0 -6 -3 -6l-36 1q-13 1 -37 1l-71 -1q-16 -1 -44 -1q-3 0 -3 6t3 6q22 0 22 14q0 11 -10 25l-65 98l-35 -51q-23 -33 -23 -56q0 -30 44 -30q3 0 3 -6t-3 -6q-27 0 -40 1l-60 1l-41 -1q-11 -1 -36 -1q-3 0 -3 6t3 6q31 0 66 25t66 68l46 63l-90 135q-47 71 -78 71
q-2 0 -2 6t2 6q21 0 31 -1l31 -1l70 1q16 1 45 1q2 0 2 -6t-2 -6q-22 0 -22 -15q0 -10 10 -24l58 -88l28 41q24 35 24 56q0 30 -45 30q-2 0 -2 6t2 6q27 0 41 -1l60 -1l41 1q11 1 36 1q3 0 3 -6t-3 -6q-31 0 -66 -25t-66 -68l-40 -53l96 -145q24 -36 47.5 -53.5t42.5 -17.5
q3 0 3 -6z" />
    <glyph glyph-name="y" unicode="y" horiz-adv-x="427" 
d="M443 380q0 -6 -2 -6q-32 0 -55.5 -27.5t-42.5 -79.5l-111 -295q-53 -140 -101.5 -196.5t-107.5 -56.5q-30 0 -46 12.5t-16 36.5q0 23 14 35t34 12q11 0 18.5 -3t18.5 -10q19 -13 36 -13q23 0 41.5 17.5t38.5 58t48 115.5l-160 323q-22 43 -34.5 57t-30.5 14q-3 0 -3 6
t3 6q28 0 43 -1l42 -1l69 1q16 1 43 1q3 0 3 -6t-3 -6q-26 0 -38 -4.5t-12 -14.5q0 -8 6 -20l118 -241l60 174q9 26 9 47q0 28 -16 43.5t-46 15.5q-2 0 -2 6t2 6q27 0 41 -1l60 -1l40 1q12 1 37 1q2 0 2 -6z" />
    <glyph glyph-name="z" unicode="z" horiz-adv-x="405" 
d="M256 364q4 7 -5 7q-82 0 -136 -26.5t-72 -79.5q0 -1 -4 -1q-8 0 -7 4l42 157q0 1 4 1q8 0 7 -4q-2 -8 -2 -12q0 -14 12 -19t40 -5h230q4 0 7 -4t1 -8l-228 -349q-3 -7 5 -7q98 0 151 28t66 86q1 3 6.5 3t5.5 -3l-2 -121q0 -4 -3 -7.5t-7 -3.5h-327q-4 0 -6.5 4t-0.5 8z
" />
    <glyph glyph-name="braceleft" unicode="{" horiz-adv-x="289" 
d="M29 304.5q0 6.5 3 6.5q35 6 46.5 64.5t11.5 153.5q0 86 13 126.5t45.5 55t101.5 14.5q4 0 4 -6t-4 -6q-26 0 -40 -27.5t-15 -78.5q-2 -122 -8.5 -172t-29.5 -78.5t-79 -51.5q56 -24 79 -53.5t29.5 -79.5t8.5 -171q1 -51 15 -78.5t40 -27.5q4 0 4 -6t-4 -6
q-69 0 -102 14.5t-45.5 55.5t-12.5 127q0 96 -11.5 154t-46.5 64q-3 0 -3 6.5z" />
    <glyph glyph-name="bar" unicode="|" horiz-adv-x="168" 
d="M62 731q0 7 24 7q23 0 23 -7v-885q0 -4 -7 -6t-16 -2q-10 0 -17 2t-7 6v885z" />
    <glyph glyph-name="braceright" unicode="}" horiz-adv-x="283" 
d="M204.5 234q-11.5 -58 -11.5 -154q0 -86 -12.5 -127t-45.5 -55.5t-102 -14.5q-4 0 -4 6t4 6q26 0 40 27.5t15 78.5q2 121 8.5 171t29.5 79.5t79 53.5q-56 23 -79 51.5t-29.5 78.5t-8.5 172q-1 51 -15 78.5t-40 27.5q-4 0 -4 6t4 6q69 0 101.5 -14.5t45.5 -55t13 -126.5
q0 -95 11.5 -153.5t46.5 -64.5q3 0 3 -6.5t-3 -6.5q-35 -6 -46.5 -64z" />
    <glyph glyph-name="asciitilde" unicode="~" horiz-adv-x="443" 
d="M357.5 222q15.5 10 31.5 28l2 1q2 0 4 -3t1 -5q-39 -62 -63 -83t-53 -21q-17 0 -31.5 4t-40.5 13q-46 19 -79 19q-24 0 -37 -7t-23.5 -17.5l-13.5 -13.5h-1q-2 0 -4.5 2.5t-1.5 4.5q63 104 123 104q13 0 29 -5t32 -11q25 -10 44 -15t39 -5q27 0 42.5 10z" />
    <glyph glyph-name="uni00A0" unicode="&#xa0;" horiz-adv-x="234" 
 />
    <glyph glyph-name="exclamdown" unicode="&#xa1;" horiz-adv-x="263" 
d="M182.5 348.5q16.5 -16.5 16.5 -44.5q0 -26 -16.5 -42t-44.5 -16t-43.5 15.5t-15.5 42.5q0 29 15.5 45t43.5 16t44.5 -16.5zM181 -271.5q-23 -3.5 -49 -3.5t-49.5 3.5t-21.5 10.5q22 76 32.5 166t21.5 228q0 10 2 32q0 5 17 5t17 -5q9 -148 19 -245.5t32 -180.5
q2 -7 -21 -10.5z" />
    <glyph glyph-name="cent" unicode="&#xa2;" horiz-adv-x="530" 
d="M480 143q5 -1 5 -4l-8 -106q-1 -8 -3 -11t-11 -7q-77 -27 -160 -27h-1v-90q0 -7 -14 -7q-15 0 -15 7v91q-85 6 -139.5 45t-79 93t-24.5 109q0 63 31.5 116t87 86t124.5 40v83q0 4 4.5 6t10.5 2t10 -2t4 -6v-81h6q37 0 80.5 -8t71.5 -21q7 -3 9 -6.5t2 -10.5l5 -103
q0 -3 -5 -4t-7 3q-37 64 -75.5 95t-86.5 33v-448q5 -1 16 -1q51 0 86.5 31t69.5 100q1 4 6 3zM180 101.5q31 -66.5 93 -86.5v441q-60 -9 -92 -64t-32 -141q0 -83 31 -149.5z" />
    <glyph glyph-name="sterling" unicode="&#xa3;" horiz-adv-x="432" 
d="M372 131q3 0 5.5 -1t2.5 -3q-9 -52 -9 -112q0 -8 -3.5 -11.5t-11.5 -3.5h-343q-3 0 -3 5.5t3 6.5q51 12 69.5 36.5t18.5 59.5q0 54 -17 107h-41q-3 0 -5 4.5t-2 10.5q0 5 2 9.5t5 4.5h31q-9 26 -13 44t-4 39q0 79 54 116t136 37q46 0 89 -13q15 -6 16 -19l7 -104
q0 -4 -5 -4q-4 0 -7 4q-34 61 -58.5 88.5t-62.5 27.5t-54 -27.5t-16 -69.5q0 -28 6 -53t19 -66h93q7 0 7 -14q0 -15 -7 -15h-85q9 -38 9 -66q0 -37 -12 -60t-33 -41h98q44 0 65.5 6t32.5 22.5t19 52.5q0 2 4 2z" />
    <glyph glyph-name="currency" unicode="&#xa4;" horiz-adv-x="414" 
d="M329 32l-49 55q-41 -22 -84 -22q-39 0 -68 17l-45 -50l-33 32l45 46q-34 40 -34 92q0 50 34 86l-49 50l37 35l52 -56q36 18 76 18q39 0 72 -19l52 54l31 -32l-49 -49q32 -38 32 -88q0 -48 -31 -84l49 -49zM258 113q16 24 16 67q0 53 -23.5 92t-62.5 39q-25 0 -40 -22.5
t-15 -65.5q0 -52 21 -93t61 -41q27 0 43 24z" />
    <glyph glyph-name="yen" unicode="&#xa5;" horiz-adv-x="498" 
d="M500 462q0 -6 -3 -6q-61 0 -111 -90l-76 -137v-16h91q4 0 6 -4t2 -9t-2 -9t-6 -4h-289q-3 0 -5 4t-2 9t2 9t5 4h94v1l-110 171q-24 38 -45.5 54.5t-44.5 16.5q-3 0 -3 6t3 6l37 -1l40 -2q30 0 94 2l63 1q2 0 2 -6t-2 -6q-49 0 -49 -25q0 -12 13 -31l93 -145l61 112
q15 27 15 48q0 19 -12.5 30t-38.5 11q-3 0 -3 6t3 6l48 -1q40 -2 73 -2q12 0 30 2l24 1q3 0 3 -6zM407 138q2 -4 2 -9t-2 -9t-6 -4h-91v-35q0 -31 5 -45t20 -19t49 -5q2 0 2 -6t-2 -6q-33 0 -52 1l-75 1l-71 -1q-20 -1 -55 -1q-3 0 -3 6t3 6q33 0 48.5 5t21 19.5t5.5 44.5
v35h-94q-3 0 -5 4t-2 9t2 9t5 4h289q4 0 6 -4z" />
    <glyph glyph-name="brokenbar" unicode="&#xa6;" horiz-adv-x="168" 
d="M62 731q0 7 24 7q23 0 23 -7v-371q0 -3 -7 -5t-16 -2t-16.5 2t-7.5 5v371zM62 216q0 4 7 6t17 2q9 0 16 -2t7 -6v-370q0 -4 -7 -6t-16 -2q-10 0 -17 2t-7 6v370z" />
    <glyph glyph-name="section" unicode="&#xa7;" horiz-adv-x="488" 
d="M398 -58q0 -63 -50 -96.5t-120 -33.5q-50 0 -86 18q-11 7 -11 17l-8 117q0 2 5.5 2t6.5 -2l19.5 -39t47 -62.5t59.5 -27.5q23 0 37 17t14 50q0 35 -14.5 60.5t-36 43t-58.5 42.5q-40 26 -64 46.5t-40.5 51.5t-16.5 73q0 35 16.5 65t59.5 66q-41 41 -41 92q0 63 50 96.5
t120 33.5q51 0 86 -19q11 -5 11 -16l8 -117q0 -3 -5.5 -3t-6.5 3q-2 3 -19.5 38.5t-47 63t-59.5 27.5q-24 0 -38 -17t-14 -50q0 -35 15 -60.5t37 -44t58 -41.5q40 -27 64 -47.5t40.5 -51t16.5 -72.5q0 -35 -16.5 -65t-60.5 -66q42 -40 42 -92zM176 189q18 -33 44 -55t68 -49
q10 -7 26.5 -18.5t26.5 -19.5q16 26 16 69q0 45 -18 78t-43 54t-68 50q-33 21 -55 39q-15 -26 -15 -69q0 -46 18 -79z" />
    <glyph glyph-name="dieresis" unicode="&#xa8;" horiz-adv-x="322" 
d="M34.5 478.5q-14.5 14.5 -14.5 40.5q0 24 15 38t40 14t38.5 -14t13.5 -38q0 -26 -13.5 -40.5t-38.5 -14.5q-26 0 -40.5 14.5zM209 478.5q-14 14.5 -14 40.5q0 24 14.5 37.5t39.5 13.5t38.5 -13.5t13.5 -37.5q0 -26 -13.5 -40.5t-38.5 -14.5q-26 0 -40 14.5z" />
    <glyph glyph-name="copyright" unicode="&#xa9;" horiz-adv-x="727" 
d="M222.5 -71q-72.5 35 -115.5 101.5t-43 156.5q0 91 49 163t129.5 112.5t169.5 40.5q78 0 138 -32.5t92.5 -86.5t32.5 -116q0 -59 -34 -111.5t-94.5 -85t-135.5 -32.5q-94 0 -139 46t-45 110q0 52 25.5 90t66 58.5t85.5 20.5q42 0 74.5 -15.5t32.5 -45.5q0 -42 -43 -42
q-15 0 -25 9.5t-18 26.5q-12 22 -23 32.5t-31 10.5q-31 0 -42 -26t-11 -84q0 -71 36 -117t110 -46q37 0 70.5 21t53.5 59.5t20 88.5q0 67 -30 123t-83 88.5t-118 32.5q-74 0 -128.5 -36t-82.5 -97t-28 -134q0 -86 34.5 -150t97.5 -99t148 -35q51 0 94.5 11t89.5 40h1
q3 0 5.5 -3.5t-0.5 -4.5q-56 -44 -111.5 -61t-115.5 -17q-86 0 -158.5 35z" />
    <glyph glyph-name="ordfeminine" unicode="&#xaa;" horiz-adv-x="288" 
d="M276 407q4 0 5.5 -3.5t-0.5 -5.5l-68 -32q-6 -2 -10 -2q-11 0 -19.5 10t-11.5 27l-30 -16q-22 -12 -36 -16t-31 -4q-23 0 -36 11t-13 28q0 18 9.5 30t34.5 21l100 34v49q0 46 -9 60t-25 14q-14 0 -23 -14.5t-11 -36.5q-7 -38 -38 -38q-17 0 -27.5 9.5t-10.5 25.5
q0 18 23.5 34.5t56 27t57.5 10.5q31 0 51 -18t20 -54v-117q0 -23 3.5 -33t12.5 -10q5 0 25 9h1zM170 413v6v59l-43 -17q-28 -11 -28 -36q0 -13 7.5 -21t18.5 -8q10 0 22 5zM267.5 312.5q1.5 -5.5 1.5 -11.5q0 -7 -1.5 -12.5t-3.5 -5.5h-224q-2 0 -3.5 6t-1.5 13q0 6 1.5 11
t2.5 5h225q2 0 3.5 -5.5z" />
    <glyph glyph-name="guillemotleft" unicode="&#xab;" horiz-adv-x="475" 
d="M53 189q-4 4 -4 12q0 7 4 11l188 149q0 1 2 1t4 -2.5t1 -3.5l-92 -155l92 -155q1 -2 -2.5 -5.5t-4.5 -0.5zM223 189q-4 6 -4 12q0 5 4 11l189 149q0 1 2 1t4 -2.5t1 -3.5l-93 -155l93 -155q1 -2 -2.5 -5.5t-4.5 -0.5z" />
    <glyph glyph-name="logicalnot" unicode="&#xac;" horiz-adv-x="395" 
d="M364 77q0 -2 -8 -3.5t-17 -1.5q-8 0 -15 1t-7 3v149h-283q-2 0 -3.5 8t-1.5 17q0 8 1 14.5t3 6.5h331v-194z" />
    <glyph glyph-name="uni00AD" unicode="&#xad;" horiz-adv-x="323" 
d="M27 153zM28.5 163q-1.5 10 -1.5 21q0 24 3 24l261 47q2 1 3.5 -7.5t1.5 -18.5t-1.5 -18.5t-3.5 -9.5l-259 -47q-2 -1 -3.5 9z" />
    <glyph glyph-name="registered" unicode="&#xae;" horiz-adv-x="740" 
d="M550 689.5q66 -35.5 102 -98t36 -140.5q0 -86 -43 -157.5t-117.5 -113.5t-163.5 -42q-77 0 -146 35t-111.5 99t-42.5 147q0 92 46 161.5t122.5 107t165.5 37.5q86 0 152 -35.5zM565.5 234q55.5 70 55.5 184q0 88 -33 152t-92.5 97.5t-136.5 33.5q-79 0 -131.5 -33.5
t-77 -88.5t-24.5 -123q0 -84 36.5 -150.5t99.5 -104t140 -37.5q108 0 163.5 70zM563 277.5q0 -3.5 -2 -3.5h-98q-9 0 -29.5 38t-60.5 122q-24 -2 -37 -2v-102q0 -30 7.5 -37.5t34.5 -7.5q2 0 2 -5.5t-2 -5.5l-73 1l-71 -1q-1 0 -1 5.5t1 5.5q15 0 21 3t8 12t2 30v215
q0 28 -5.5 36t-25.5 8q-1 0 -1 6t1 6l71 -1q12 0 44 2q28 2 38 2q51 0 76 -16.5t25 -52.5q0 -29 -15 -50.5t-41 -33.5q36 -75 64 -111.5t65 -57.5q2 -1 2 -4.5zM398.5 458.5q16.5 14.5 16.5 56.5q0 76 -44 76q-15 0 -22 -2.5t-10 -12.5t-3 -33v-96q46 -3 62.5 11.5z" />
    <glyph glyph-name="macron" unicode="&#xaf;" horiz-adv-x="345" 
d="M40 479.5q-3 5.5 -3 13.5q0 7 3 12.5t7 5.5h251q5 0 8 -5.5t3 -12.5q0 -8 -3 -13.5t-8 -5.5h-251q-4 0 -7 5.5z" />
    <glyph glyph-name="degree" unicode="&#xb0;" horiz-adv-x="332" 
d="M67.5 410q-38.5 37 -38.5 93q0 53 38.5 90t99.5 37t98.5 -37t37.5 -92t-37.5 -91.5t-98.5 -36.5t-99.5 37zM217 413q10 26 10 81q0 62 -16 92t-50 30q-32 0 -43.5 -28t-11.5 -82q0 -57 15 -88t53 -31q33 0 43 26z" />
    <glyph glyph-name="plusminus" unicode="&#xb1;" horiz-adv-x="398" 
d="M30.5 236q-1.5 8 -1.5 18q0 9 1 16t3 7h141v141q0 4 25 4q24 0 24 -4v-141h141q2 0 3.5 -7.5t1.5 -16.5t-1.5 -17t-3.5 -8h-141v-140q0 -2 -8 -3.5t-18 -1.5q-9 0 -16 1t-7 3v141h-140q-2 0 -3.5 8zM367.5 37.5q1.5 -6.5 1.5 -14.5t-1.5 -15t-3.5 -7h-330q-2 0 -3.5 7.5
t-1.5 15.5q0 7 1.5 13.5t2.5 6.5h331q2 0 3.5 -6.5z" />
    <glyph glyph-name="uni00B2" unicode="&#xb2;" horiz-adv-x="253" 
d="M50 488.5q18 29.5 45 59.5q24 27 34.5 46t10.5 50q0 58 -41 58q-22 0 -38.5 -14t-23.5 -37q0 -2 -4 -2q-3 0 -5.5 1.5t-1.5 3.5q11 35 34 55.5t67 20.5t66 -20.5t22 -53.5t-20 -56.5t-59 -52.5q-31 -23 -48.5 -40t-24.5 -39q-1 -4 2 -4q62 0 92.5 3t43 11.5t12.5 25.5
q0 2 6 2t6 -2l-2 -96q0 -4 -4 -4h-196q-5 0 -3 5q12 50 30 79.5z" />
    <glyph glyph-name="uni00B3" unicode="&#xb3;" horiz-adv-x="251" 
d="M209 548q20 -20 20 -50q0 -24 -13 -47.5t-38.5 -39t-61.5 -15.5q-39 0 -61 18t-34 51q-1 4 5 5.5t7 -2.5q10 -21 27.5 -33t38.5 -12q23 0 38.5 17t15.5 54q0 70 -75 70q-5 0 -4.5 5.5t4.5 5.5q30 0 46 18.5t16 49.5q0 29 -11.5 42t-30.5 13q-22 0 -38.5 -14.5
t-20.5 -33.5q-2 -2 -5 -2t-5.5 1.5t-1.5 3.5q10 35 34.5 55.5t65.5 20.5q43 0 66 -21t23 -53q0 -26 -17 -48t-42 -32q32 -7 52 -27z" />
    <glyph glyph-name="acute" unicode="&#xb4;" horiz-adv-x="212" 
d="M65 472q-3 0 -5.5 1.5t-1.5 2.5l33 240q2 4 33 9.5t52 5.5q14 0 13 -4l-120 -253q0 -2 -4 -2z" />
    <glyph glyph-name="paragraph" unicode="&#xb6;" horiz-adv-x="657" 
d="M284.5 -177.5q-24.5 15.5 -24.5 44.5q0 20 12.5 32.5t37.5 12.5q28 0 36.5 -13.5t11.5 -39.5q2 -17 5.5 -25t14.5 -8q20 0 27.5 38.5t7.5 143.5v117q-19 -3 -45 -3q-80 0 -151 26t-117 85t-46 153q0 119 76.5 180.5t211.5 61.5q30 0 64 -3q75 -3 84 -3q20 0 58 2l52 1
q3 0 3 -6t-3 -6q-43 0 -66 -21t-23 -60l1 -477q0 -129 -37.5 -188.5t-121.5 -59.5q-44 0 -68.5 15.5z" />
    <glyph glyph-name="periodcentered" unicode="&#xb7;" horiz-adv-x="195" 
d="M52.5 157.5q-16.5 16.5 -16.5 44.5q0 26 16.5 42t44.5 16t43.5 -15.5t15.5 -42.5q0 -29 -15.5 -45t-43.5 -16t-44.5 16.5z" />
    <glyph glyph-name="cedilla" unicode="&#xb8;" horiz-adv-x="232" 
d="M116 -32q0 -19 9.5 -33.5t30.5 -26.5q26 -16 40.5 -33.5t14.5 -44.5q0 -42 -30.5 -73.5t-91.5 -31.5q-75 0 -75 48q0 15 12 27t28 12q19 0 27 -8.5t13 -24.5q5 -15 11.5 -22.5t23.5 -7.5q22 0 22 24q0 26 -18.5 47t-64.5 47q-9 3 -9 12q0 7 4 16q15 36 32 83q0 1 8 21
l17 -1q-4 -15 -4 -30z" />
    <glyph glyph-name="uni00B9" unicode="&#xb9;" horiz-adv-x="262" 
d="M35 409.5q0 5.5 2 5.5q31 0 43.5 4.5t16.5 18t4 46.5v118q0 41 -4 56t-18 15q-11 0 -46 -15h-1q-4 0 -6 5t1 6l136 60h2q3 0 5.5 -2.5t2.5 -4.5v-238q0 -34 3.5 -47.5t15.5 -17.5t41 -4q2 0 2 -5.5t-2 -5.5q-26 0 -41 1l-54 1l-58 -1q-16 -1 -43 -1q-2 0 -2 5.5z" />
    <glyph glyph-name="ordmasculine" unicode="&#xba;" horiz-adv-x="325" 
d="M65.5 399.5q-35.5 40.5 -35.5 98.5q0 43 21 72.5t53 44.5t66 15q38 0 66.5 -19t44 -50t15.5 -66q0 -37 -19 -68.5t-50.5 -49.5t-68.5 -18q-57 0 -92.5 40.5zM209.5 401.5q13.5 27.5 13.5 75.5q0 58 -20.5 97.5t-51.5 39.5q-23 0 -35.5 -25t-12.5 -72q0 -58 20 -100.5
t50 -42.5q23 0 36.5 27.5zM38.5 289q-1.5 6 -1.5 13q0 6 1.5 11t2.5 5h243q2 0 3.5 -5.5t1.5 -11.5q0 -7 -1.5 -12.5t-3.5 -5.5h-242q-2 0 -3.5 6z" />
    <glyph glyph-name="guillemotright" unicode="&#xbb;" horiz-adv-x="475" 
d="M251 212q5 -5 5 -11q0 -7 -5 -12l-188 -149q0 -1 -2 -1t-4 2.5t-1 4.5l93 154l-93 156q-1 2 2.5 5t4.5 0zM422 212q5 -5 5 -11q0 -7 -5 -12l-188 -149q0 -1 -2 -1t-4 2.5t-1 4.5l92 154l-92 156q-1 2 2.5 5t4.5 0z" />
    <glyph glyph-name="onequarter" unicode="&#xbc;" horiz-adv-x="607" 
d="M24 0zM35 314.5q0 5.5 2 5.5q31 0 43.5 4.5t16.5 18t4 46.5v119q0 41 -4 56t-18 15q-7 0 -19.5 -4.5t-26.5 -10.5h-2q-3 0 -5 4.5t1 5.5l136 60h2q3 0 5.5 -2.5t2.5 -4.5v-238q0 -34 3.5 -47.5t15.5 -17.5t41 -4q2 0 2 -5.5t-2 -5.5q-26 0 -41 1l-54 1l-58 -1
q-16 -1 -43 -1q-2 0 -2 5.5zM172 4q-16 8 -15 10l279 616q2 4 18 -3.5t15 -10.5l-280 -617q-1 -3 -17 5zM547 90v-49q0 -14 2 -19.5t10 -8t27 -2.5q1 -2 1 -6t-1 -6l-70 1l-88 -1q-1 0 -1 6t1 6q23 0 33 2t13.5 8t3.5 20v51q-70 2 -126 2q-4 0 -6 4t1 7l166 215q3 4 16 4
q7 0 12.5 -1.5t5.5 -3.5v-206l39 2q3 0 3 -13q0 -14 -3 -14zM478 110v129l-96 -127q-3 -3 2 -3z" />
    <glyph glyph-name="onehalf" unicode="&#xbd;" horiz-adv-x="612" 
d="M24 0zM35 314.5q0 5.5 2 5.5q31 0 43.5 4.5t16.5 18t4 46.5v119q0 41 -4 56t-18 15q-7 0 -19.5 -4.5t-26.5 -10.5h-2q-3 0 -5 4.5t1 5.5l136 60h2q3 0 5.5 -2.5t2.5 -4.5v-238q0 -34 3.5 -47.5t15.5 -17.5t41 -4q2 0 2 -5.5t-2 -5.5q-26 0 -41 1l-54 1l-58 -1
q-16 -1 -43 -1q-2 0 -2 5.5zM172 4q-16 8 -15 10l279 616q2 4 18 -3.5t15 -10.5l-280 -617q-1 -3 -17 5zM408.5 84q17.5 29 45.5 61q23 25 34 45t11 51q0 57 -41 57q-22 0 -38.5 -14t-23.5 -36q0 -3 -4 -3q-3 0 -5.5 1.5t-1.5 3.5q11 35 34 55.5t67 20.5t66 -20t22 -53
t-20 -56.5t-59 -52.5q-32 -25 -49 -41.5t-24 -38.5q-1 -3 2 -3q62 0 92.5 3t43 11.5t12.5 25.5q0 2 6 2t6 -2l-2 -96q0 -5 -4 -5h-196q-4 0 -3 6q12 49 29.5 78z" />
    <glyph glyph-name="threequarters" unicode="&#xbe;" horiz-adv-x="596" 
d="M20 0zM208.5 453q20.5 -20 20.5 -49q0 -24 -12.5 -47.5t-38.5 -39t-62 -15.5q-39 0 -61 18t-34 51q-1 3 5 4.5t7 -2.5q10 -21 27.5 -32.5t38.5 -11.5q23 0 38.5 16.5t15.5 53.5q0 70 -75 70q-2 0 -3.5 1.5t-1.5 3.5t1.5 4.5t3.5 2.5q30 0 46 18.5t16 49.5
q0 28 -11.5 41.5t-30.5 13.5q-21 0 -38 -15t-21 -33q-1 -3 -5 -3q-3 0 -5.5 1.5t-1.5 3.5q10 35 34.5 55.5t65.5 20.5q43 0 66 -21t23 -53q0 -27 -17.5 -48t-42.5 -32q32 -7 52.5 -27zM161 4q-16 8 -15 10l279 616q2 4 18 -3.5t15 -10.5l-280 -617q-1 -3 -17 5zM536 90v-49
q0 -14 2 -19.5t10 -8t27 -2.5q1 -2 1 -6t-1 -6l-70 1l-88 -1q-1 0 -1 6t1 6q23 0 33 2t13.5 8t3.5 20v51q-70 2 -126 2q-4 0 -6 4t1 7l166 215q3 4 16 4q7 0 12.5 -1.5t5.5 -3.5v-206l39 2q3 0 3 -13q0 -14 -3 -14zM467 110v129l-96 -127q-3 -3 2 -3z" />
    <glyph glyph-name="questiondown" unicode="&#xbf;" horiz-adv-x="327" 
d="M218.5 344.5q16.5 -16.5 16.5 -44.5q0 -26 -16.5 -42t-44.5 -16t-43.5 15.5t-15.5 42.5q0 29 15.5 45t43.5 16t44.5 -16.5zM182 -245q6 11 8 30q2 28 13.5 48.5t43.5 20.5q26 0 38 -14t12 -33q0 -35 -38.5 -58.5t-96.5 -23.5q-65 0 -109.5 31t-44.5 88q0 38 19 62.5
t56 54.5l22 18q31 27 45 56.5t14 66.5q0 15 -5 53q-1 3 7 5t9 -1q12 -27 19 -62t7 -59q0 -30 -9.5 -49.5t-28.5 -43.5q-21 -26 -32.5 -50.5t-11.5 -63.5q0 -38 11.5 -62.5t31.5 -24.5q14 0 20 11z" />
    <glyph glyph-name="Agrave" unicode="&#xc0;" 
d="M0 0zM722 6q0 -6 -5 -6q-20 0 -62 2q-44 2 -63 2q-25 0 -61 -2q-34 -2 -54 -2q-4 0 -4 6t4 6q26 0 37.5 5.5t11.5 19.5q0 17 -20 57l-104 205h-178l-71 -157q-13 -29 -13 -54q0 -36 25.5 -56t68.5 -20q5 0 5 -6t-5 -6q-18 0 -52 2q-38 2 -66 2q-27 0 -65 -2
q-34 -2 -55 -2q-4 0 -4 6t4 6q28 0 47 11.5t38 41t45 87.5l217 477q2 3 9 3q8 0 9 -3l250 -492q35 -71 58 -98t48 -27q5 0 5 -6zM237 327h151l-80 158zM232 756q-12 2 11.5 13.5t54 20t35.5 3.5l47 -40q44 -38 78 -64q3 -1 3 -4t-2 -5t-5 -1q-112 50 -222 77z" />
    <glyph glyph-name="Aacute" unicode="&#xc1;" 
d="M0 0zM722 6q0 -6 -5 -6q-20 0 -62 2q-44 2 -63 2q-25 0 -61 -2q-34 -2 -54 -2q-4 0 -4 6t4 6q26 0 37.5 5.5t11.5 19.5q0 17 -20 57l-104 205h-178l-71 -157q-13 -29 -13 -54q0 -36 25.5 -56t68.5 -20q5 0 5 -6t-5 -6q-18 0 -52 2q-38 2 -66 2q-27 0 -65 -2
q-34 -2 -55 -2q-4 0 -4 6t4 6q28 0 47 11.5t38 41t45 87.5l217 477q2 3 9 3q8 0 9 -3l250 -492q35 -71 58 -98t48 -27q5 0 5 -6zM237 327h151l-80 158zM255 678q-4 0 -5 4.5t2 6.5q29 21 81 66q30 26 45 38q5 5 35.5 -3.5t54 -20t11.5 -13.5q-62 -15 -113.5 -33.5
t-108.5 -43.5z" />
    <glyph glyph-name="Acircumflex" unicode="&#xc2;" 
d="M0 0zM722 6q0 -6 -5 -6q-20 0 -62 2q-44 2 -63 2q-25 0 -61 -2q-34 -2 -54 -2q-4 0 -4 6t4 6q26 0 37.5 5.5t11.5 19.5q0 17 -20 57l-104 205h-178l-71 -157q-13 -29 -13 -54q0 -36 25.5 -56t68.5 -20q5 0 5 -6t-5 -6q-18 0 -52 2q-38 2 -66 2q-27 0 -65 -2
q-34 -2 -55 -2q-4 0 -4 6t4 6q28 0 47 11.5t38 41t45 87.5l217 477q2 3 9 3q8 0 9 -3l250 -492q35 -71 58 -98t48 -27q5 0 5 -6zM237 327h151l-80 158zM342 771q5 5 11 5q7 0 12 -5l102 -116q1 0 1 -2t-2.5 -4t-3.5 -1l-108 39l-109 -39q-2 -1 -5 2.5t-1 4.5z" />
    <glyph glyph-name="Atilde" unicode="&#xc3;" 
d="M0 0zM722 6q0 -6 -5 -6q-20 0 -62 2q-44 2 -63 2q-25 0 -61 -2q-34 -2 -54 -2q-4 0 -4 6t4 6q26 0 37.5 5.5t11.5 19.5q0 17 -20 57l-104 205h-178l-71 -157q-13 -29 -13 -54q0 -36 25.5 -56t68.5 -20q5 0 5 -6t-5 -6q-18 0 -52 2q-38 2 -66 2q-27 0 -65 -2
q-34 -2 -55 -2q-4 0 -4 6t4 6q28 0 47 11.5t38 41t45 87.5l217 477q2 3 9 3q8 0 9 -3l250 -492q35 -71 58 -98t48 -27q5 0 5 -6zM237 327h151l-80 158zM462.5 767q10.5 6 23.5 21h1q3 0 5.5 -2.5t0.5 -4.5q-26 -48 -43.5 -64.5t-39.5 -16.5q-19 0 -56 11q-4 1 -26.5 7
t-42.5 6q-19 0 -27 -5t-24 -22h-1q-3 0 -5.5 2.5t-1.5 4.5q19 34 40.5 57.5t47.5 23.5q10 0 46 -10q6 -1 30 -7.5t45 -6.5q17 0 27.5 6z" />
    <glyph glyph-name="Adieresis" unicode="&#xc4;" 
d="M0 0zM722 6q0 -6 -5 -6q-20 0 -62 2q-44 2 -63 2q-25 0 -61 -2q-34 -2 -54 -2q-4 0 -4 6t4 6q26 0 37.5 5.5t11.5 19.5q0 17 -20 57l-104 205h-178l-71 -157q-13 -29 -13 -54q0 -36 25.5 -56t68.5 -20q5 0 5 -6t-5 -6q-18 0 -52 2q-38 2 -66 2q-27 0 -65 -2
q-34 -2 -55 -2q-4 0 -4 6t4 6q28 0 47 11.5t38 41t45 87.5l217 477q2 3 9 3q8 0 9 -3l250 -492q35 -71 58 -98t48 -27q5 0 5 -6zM237 327h151l-80 158zM227.5 717.5q-14.5 14.5 -14.5 40.5q0 24 15 38t40 14t38.5 -14t13.5 -38q0 -26 -13.5 -40.5t-38.5 -14.5
q-26 0 -40.5 14.5zM402 717.5q-14 14.5 -14 40.5q0 24 14.5 37.5t39.5 13.5t38.5 -13.5t13.5 -37.5q0 -26 -13.5 -40.5t-38.5 -14.5q-26 0 -40 14.5z" />
    <glyph glyph-name="Aring" unicode="&#xc5;" 
d="M0 0zM722 6q0 -6 -5 -6q-20 0 -62 2q-44 2 -63 2q-25 0 -61 -2q-34 -2 -54 -2q-4 0 -4 6t4 6q26 0 37.5 5.5t11.5 19.5q0 17 -20 57l-104 205h-178l-71 -157q-13 -29 -13 -54q0 -36 25.5 -56t68.5 -20q5 0 5 -6t-5 -6q-18 0 -52 2q-38 2 -66 2q-27 0 -65 -2
q-34 -2 -55 -2q-4 0 -4 6t4 6q28 0 47 11.5t38 41t45 87.5l217 477q2 3 9 3q8 0 9 -3l250 -492q35 -71 58 -98t48 -27q5 0 5 -6zM237 327h151l-80 158zM268 683.5q-29 23.5 -29 55.5q0 36 35.5 56.5t80.5 20.5q44 0 75 -23t31 -56q0 -35 -35 -56t-80 -21q-49 0 -78 23.5z
M388 719q0 34 -15.5 58.5t-37.5 24.5q-23 0 -23 -43q0 -33 13 -59t36 -26q27 0 27 45z" />
    <glyph glyph-name="AE" unicode="&#xc6;" horiz-adv-x="888" 
d="M835 161q3 0 5.5 -1t2.5 -3q-9 -88 -9 -142q0 -8 -3.5 -11.5t-11.5 -3.5h-437q-2 0 -2 6t2 6q32 0 46.5 5t20 19.5t5.5 44.5v230h-150l-110 -173q-26 -40 -26 -72q0 -26 19 -40t55 -14q5 0 5 -6t-5 -6q-21 0 -61 2q-46 2 -80 2q-25 0 -59 -2q-30 -2 -49 -2q-5 0 -5 6t5 6
q42 0 76.5 27t77.5 93l288 442q13 18 13 25q0 9 -16.5 11.5t-60.5 2.5q-3 0 -3 6t3 6h430q10 0 10 -9l2 -133q0 -2 -5.5 -3t-6.5 2q-6 23 -27 50t-51.5 45.5t-64.5 18.5h-42q-29 0 -43 -13t-14 -40v-204h83q58 0 88.5 20t30.5 56q0 3 6 3t6 -3l-1 -90q0 -32 1 -48l1 -54
q0 -2 -5.5 -2t-5.5 2q0 41 -31.5 64.5t-90.5 23.5h-82v-226q0 -29 11 -43t35 -14h44q37 0 75.5 18t67.5 48.5t40 64.5q0 2 3 2zM322 339h132v208z" />
    <glyph glyph-name="Ccedilla" unicode="&#xc7;" horiz-adv-x="669" 
d="M620.5 184q5.5 -1 5.5 -4l-15 -136q-2 -12 -4.5 -15.5t-11.5 -7.5q-89 -33 -183 -33h-17q-2 -14 -2 -21q0 -19 9.5 -33t30.5 -26q26 -16 40.5 -33.5t14.5 -44.5q0 -42 -30.5 -73.5t-91.5 -31.5q-75 0 -75 48q0 15 12 27t28 12q19 0 27 -8.5t13 -24.5q5 -15 11.5 -22.5
t23.5 -7.5q22 0 22 24q0 26 -18.5 47t-64.5 47q-9 3 -9 12q0 7 4 16q18 44 36 94q-110 8 -183.5 57t-108.5 121t-35 148q0 95 51.5 168t137 113t183.5 40q44 0 92 -7.5t75 -19.5q9 -3 11.5 -7.5t4.5 -15.5l12 -139q0 -3 -5 -4t-6 3q-34 79 -91 122t-132 43q-99 0 -153 -73
t-54 -196q0 -92 29.5 -168t83 -120.5t121.5 -44.5q64 0 114.5 42.5t90.5 129.5q1 4 6.5 3z" />
    <glyph glyph-name="Egrave" unicode="&#xc8;" horiz-adv-x="552" 
d="M38 0zM500 161q3 0 5.5 -1.5t2.5 -2.5q-10 -78 -10 -142q0 -8 -3 -11.5t-12 -3.5h-442q-3 0 -3 6t3 6q32 0 46.5 5t19.5 19.5t5 44.5v463q0 30 -5 44t-20 19.5t-46 5.5q-3 0 -3 6t3 6h424q10 0 10 -9l2 -133q0 -2 -5.5 -3t-6.5 2q-16 58 -54 86t-100 28h-30
q-30 0 -44 -13t-14 -40v-204h83q58 0 89 20t31 56q0 3 5.5 3t5.5 -3l-1 -90l1 -48q2 -34 2 -54q0 -2 -6 -2t-6 2q0 41 -31.5 64.5t-90.5 23.5h-82v-226q0 -29 11 -43t35 -14h33q78 0 125 32t69 99q0 2 4 2zM176 756q-12 2 11.5 13.5t54 20t35.5 3.5l47 -40q44 -38 78 -64
q3 -1 3 -4t-2 -5t-5 -1q-112 50 -222 77z" />
    <glyph glyph-name="Eacute" unicode="&#xc9;" horiz-adv-x="552" 
d="M38 0zM500 161q3 0 5.5 -1.5t2.5 -2.5q-10 -78 -10 -142q0 -8 -3 -11.5t-12 -3.5h-442q-3 0 -3 6t3 6q32 0 46.5 5t19.5 19.5t5 44.5v463q0 30 -5 44t-20 19.5t-46 5.5q-3 0 -3 6t3 6h424q10 0 10 -9l2 -133q0 -2 -5.5 -3t-6.5 2q-16 58 -54 86t-100 28h-30
q-30 0 -44 -13t-14 -40v-204h83q58 0 89 20t31 56q0 3 5.5 3t5.5 -3l-1 -90l1 -48q2 -34 2 -54q0 -2 -6 -2t-6 2q0 41 -31.5 64.5t-90.5 23.5h-82v-226q0 -29 11 -43t35 -14h33q78 0 125 32t69 99q0 2 4 2zM199 678q-4 0 -5 4.5t2 6.5q29 21 81 66q30 26 45 38
q5 5 35.5 -3.5t54 -20t11.5 -13.5q-62 -15 -113.5 -33.5t-108.5 -43.5z" />
    <glyph glyph-name="Ecircumflex" unicode="&#xca;" horiz-adv-x="552" 
d="M38 0zM500 161q3 0 5.5 -1.5t2.5 -2.5q-10 -78 -10 -142q0 -8 -3 -11.5t-12 -3.5h-442q-3 0 -3 6t3 6q32 0 46.5 5t19.5 19.5t5 44.5v463q0 30 -5 44t-20 19.5t-46 5.5q-3 0 -3 6t3 6h424q10 0 10 -9l2 -133q0 -2 -5.5 -3t-6.5 2q-16 58 -54 86t-100 28h-30
q-30 0 -44 -13t-14 -40v-204h83q58 0 89 20t31 56q0 3 5.5 3t5.5 -3l-1 -90l1 -48q2 -34 2 -54q0 -2 -6 -2t-6 2q0 41 -31.5 64.5t-90.5 23.5h-82v-226q0 -29 11 -43t35 -14h33q78 0 125 32t69 99q0 2 4 2zM287 818q5 5 12 5q6 0 11 -5l102 -116q1 0 1 -2t-2.5 -4t-3.5 -1
l-108 39l-109 -39q-2 -1 -5 2.5t-1 4.5z" />
    <glyph glyph-name="Edieresis" unicode="&#xcb;" horiz-adv-x="552" 
d="M38 0zM500 161q3 0 5.5 -1.5t2.5 -2.5q-10 -78 -10 -142q0 -8 -3 -11.5t-12 -3.5h-442q-3 0 -3 6t3 6q32 0 46.5 5t19.5 19.5t5 44.5v463q0 30 -5 44t-20 19.5t-46 5.5q-3 0 -3 6t3 6h424q10 0 10 -9l2 -133q0 -2 -5.5 -3t-6.5 2q-16 58 -54 86t-100 28h-30
q-30 0 -44 -13t-14 -40v-204h83q58 0 89 20t31 56q0 3 5.5 3t5.5 -3l-1 -90l1 -48q2 -34 2 -54q0 -2 -6 -2t-6 2q0 41 -31.5 64.5t-90.5 23.5h-82v-226q0 -29 11 -43t35 -14h33q78 0 125 32t69 99q0 2 4 2zM171.5 717.5q-14.5 14.5 -14.5 40.5q0 24 15 38t40 14t38.5 -14
t13.5 -38q0 -26 -13.5 -40.5t-38.5 -14.5q-26 0 -40.5 14.5zM346 717.5q-14 14.5 -14 40.5q0 24 14.5 37.5t39.5 13.5t38.5 -13.5t13.5 -37.5q0 -26 -13.5 -40.5t-38.5 -14.5q-26 0 -40 14.5z" />
    <glyph glyph-name="Igrave" unicode="&#xcc;" horiz-adv-x="342" 
d="M37 0zM232 36q5 -14 19.5 -19t46.5 -5q3 0 3 -6t-3 -6q-33 0 -52 1l-76 1l-74 -1q-20 -1 -54 -1q-2 0 -2 6t2 6q32 0 47 5t20.5 19.5t5.5 44.5v463q0 30 -5.5 44t-20.5 19.5t-47 5.5q-2 0 -2 6t2 6l54 -1q46 -2 74 -2q31 0 77 2l51 1q3 0 3 -6t-3 -6q-31 0 -46 -6
t-20 -20.5t-5 -44.5v-461q0 -31 5 -45zM49 756q-12 2 11.5 13.5t54 20t35.5 3.5l47 -40q44 -38 78 -64q3 -1 3 -4t-2 -5t-5 -1q-112 50 -222 77z" />
    <glyph glyph-name="Iacute" unicode="&#xcd;" horiz-adv-x="342" 
d="M40 0zM232 36q5 -14 19.5 -19t46.5 -5q3 0 3 -6t-3 -6q-33 0 -52 1l-76 1l-74 -1q-20 -1 -54 -1q-2 0 -2 6t2 6q32 0 47 5t20.5 19.5t5.5 44.5v463q0 30 -5.5 44t-20.5 19.5t-47 5.5q-2 0 -2 6t2 6l54 -1q46 -2 74 -2q31 0 77 2l51 1q3 0 3 -6t-3 -6q-31 0 -46 -6
t-20 -20.5t-5 -44.5v-461q0 -31 5 -45zM72 678q-4 0 -5 4.5t2 6.5q29 21 81 66q30 26 45 38q5 5 35.5 -3.5t54 -20t11.5 -13.5q-62 -15 -113.5 -33.5t-108.5 -43.5z" />
    <glyph glyph-name="Icircumflex" unicode="&#xce;" horiz-adv-x="342" 
d="M40 0zM232 36q5 -14 19.5 -19t46.5 -5q3 0 3 -6t-3 -6q-33 0 -52 1l-76 1l-74 -1q-20 -1 -54 -1q-2 0 -2 6t2 6q32 0 47 5t20.5 19.5t5.5 44.5v463q0 30 -5.5 44t-20.5 19.5t-47 5.5q-2 0 -2 6t2 6l54 -1q46 -2 74 -2q31 0 77 2l51 1q3 0 3 -6t-3 -6q-31 0 -46 -6
t-20 -20.5t-5 -44.5v-461q0 -31 5 -45zM160 818q5 5 12 5q6 0 11 -5l102 -116q1 0 1 -2t-2.5 -4t-3.5 -1l-108 39l-109 -39q-2 -1 -5 2.5t-1 4.5z" />
    <glyph glyph-name="Idieresis" unicode="&#xcf;" horiz-adv-x="342" 
d="M40 0zM232 36q5 -14 19.5 -19t46.5 -5q3 0 3 -6t-3 -6q-33 0 -52 1l-76 1l-74 -1q-20 -1 -54 -1q-2 0 -2 6t2 6q32 0 47 5t20.5 19.5t5.5 44.5v463q0 30 -5.5 44t-20.5 19.5t-47 5.5q-2 0 -2 6t2 6l54 -1q46 -2 74 -2q31 0 77 2l51 1q3 0 3 -6t-3 -6q-31 0 -46 -6
t-20 -20.5t-5 -44.5v-461q0 -31 5 -45zM54.5 717.5q-14.5 14.5 -14.5 40.5q0 24 15 38t40 14t39 -14t14 -38q0 -26 -14 -40.5t-39 -14.5q-26 0 -40.5 14.5zM208 717.5q-14 14.5 -14 40.5q0 24 14 37.5t39 13.5t38.5 -13.5t13.5 -37.5q0 -26 -13.5 -40.5t-38.5 -14.5
t-39 14.5z" />
    <glyph glyph-name="Eth" unicode="&#xd0;" horiz-adv-x="705" 
d="M491.5 587q78.5 -40 121.5 -109t43 -155q0 -97 -44.5 -171.5t-120 -115t-165.5 -40.5q-32 0 -76 3q-16 1 -39.5 2t-52.5 1l-74 -1q-20 -1 -54 -1q-2 0 -2 6t2 6q32 0 47 5t20.5 19.5t5.5 44.5v216h-50q-4 0 -4 14t4 14h50v219q0 30 -5.5 44t-20 19.5t-45.5 5.5q-3 0 -3 6
t3 6l53 -1q46 -2 73 -2q41 0 84 3q52 2 70 2q101 0 179.5 -40zM429 51.5q49 32.5 76.5 96.5t27.5 153q0 85 -26 154.5t-74 109.5t-111 40q-62 0 -85 -12t-23 -51v-217h136q2 0 3.5 -4.5t1.5 -9.5t-1.5 -9.5t-3.5 -4.5h-136v-205q0 -40 21 -56.5t81 -16.5q64 0 113 32.5z" />
    <glyph glyph-name="Ntilde" unicode="&#xd1;" horiz-adv-x="735" 
d="M20 0zM725 619q0 -6 -2 -6q-40 0 -63 -31.5t-23 -84.5v-512q0 -3 -4.5 -4t-6.5 1l-469 534v-389q0 -53 22 -84t61 -31q2 0 2 -6t-2 -6q-28 0 -43 1l-54 1l-62 -1q-17 -1 -49 -1q-3 0 -3 6t3 6q44 0 69.5 31t25.5 84v423q-33 36 -56.5 49.5t-48.5 13.5q-2 0 -2 6t2 6
l42 -1q13 -1 38 -1l76 1q14 1 34 1q8 0 12 -4t14 -17q17 -23 24 -31l346 -399v323q0 54 -22 85t-61 31q-2 0 -2 6t2 6l43 -1q32 -2 54 -2q20 0 56 2l45 1q2 0 2 -6zM490.5 767q10.5 6 23.5 21h1q3 0 5.5 -2.5t0.5 -4.5q-26 -48 -43.5 -64.5t-39.5 -16.5q-19 0 -56 11
q-4 1 -26.5 7t-42.5 6q-19 0 -27 -5t-24 -22h-1q-3 0 -5.5 2.5t-1.5 4.5q19 34 40.5 57.5t47.5 23.5q10 0 46 -10q6 -1 30 -7.5t45 -6.5q17 0 27.5 6z" />
    <glyph glyph-name="Ograve" unicode="&#xd2;" horiz-adv-x="766" 
d="M49 0zM200.5 31.5q-72.5 43.5 -112 118t-39.5 162.5q0 103 52 176.5t133.5 110.5t166.5 37q95 0 167 -44.5t110.5 -117.5t38.5 -155q0 -91 -48 -167t-128.5 -120t-174.5 -44q-93 0 -165.5 43.5zM499.5 45.5q44.5 32.5 69.5 95t25 149.5q0 92 -28 164.5t-81 113.5t-124 41
q-91 0 -140 -68.5t-49 -191.5q0 -97 29.5 -173.5t81 -119.5t116.5 -43q56 0 100.5 32.5zM266 756q-12 2 11.5 13.5t54 20t35.5 3.5l47 -40q44 -38 78 -64q3 -1 3 -4t-2 -5t-5 -1q-112 50 -222 77z" />
    <glyph glyph-name="Oacute" unicode="&#xd3;" horiz-adv-x="766" 
d="M49 0zM200.5 31.5q-72.5 43.5 -112 118t-39.5 162.5q0 103 52 176.5t133.5 110.5t166.5 37q95 0 167 -44.5t110.5 -117.5t38.5 -155q0 -91 -48 -167t-128.5 -120t-174.5 -44q-93 0 -165.5 43.5zM499.5 45.5q44.5 32.5 69.5 95t25 149.5q0 92 -28 164.5t-81 113.5t-124 41
q-91 0 -140 -68.5t-49 -191.5q0 -97 29.5 -173.5t81 -119.5t116.5 -43q56 0 100.5 32.5zM289 678q-4 0 -5 4.5t2 6.5q29 21 81 66q30 26 45 38q5 5 35.5 -3.5t54 -20t11.5 -13.5q-62 -15 -113.5 -33.5t-108.5 -43.5z" />
    <glyph glyph-name="Ocircumflex" unicode="&#xd4;" horiz-adv-x="766" 
d="M49 0zM200.5 31.5q-72.5 43.5 -112 118t-39.5 162.5q0 103 52 176.5t133.5 110.5t166.5 37q95 0 167 -44.5t110.5 -117.5t38.5 -155q0 -91 -48 -167t-128.5 -120t-174.5 -44q-93 0 -165.5 43.5zM499.5 45.5q44.5 32.5 69.5 95t25 149.5q0 92 -28 164.5t-81 113.5t-124 41
q-91 0 -140 -68.5t-49 -191.5q0 -97 29.5 -173.5t81 -119.5t116.5 -43q56 0 100.5 32.5zM377 818q5 5 12 5q6 0 11 -5l102 -116q1 0 1 -2t-2.5 -4t-3.5 -1l-108 39l-109 -39q-2 -1 -5 2.5t-1 4.5z" />
    <glyph glyph-name="Otilde" unicode="&#xd5;" horiz-adv-x="766" 
d="M49 0zM200.5 31.5q-72.5 43.5 -112 118t-39.5 162.5q0 103 52 176.5t133.5 110.5t166.5 37q95 0 167 -44.5t110.5 -117.5t38.5 -155q0 -91 -48 -167t-128.5 -120t-174.5 -44q-93 0 -165.5 43.5zM499.5 45.5q44.5 32.5 69.5 95t25 149.5q0 92 -28 164.5t-81 113.5t-124 41
q-91 0 -140 -68.5t-49 -191.5q0 -97 29.5 -173.5t81 -119.5t116.5 -43q56 0 100.5 32.5zM496.5 767q10.5 6 23.5 21h1q3 0 5.5 -2.5t0.5 -4.5q-26 -48 -43.5 -64.5t-39.5 -16.5q-19 0 -56 11q-4 1 -26.5 7t-42.5 6q-19 0 -27 -5t-24 -22h-1q-3 0 -5.5 2.5t-1.5 4.5
q19 34 40.5 57.5t47.5 23.5q10 0 46 -10q6 -1 30 -7.5t45 -6.5q17 0 27.5 6z" />
    <glyph glyph-name="Odieresis" unicode="&#xd6;" horiz-adv-x="766" 
d="M49 0zM200.5 31.5q-72.5 43.5 -112 118t-39.5 162.5q0 103 52 176.5t133.5 110.5t166.5 37q95 0 167 -44.5t110.5 -117.5t38.5 -155q0 -91 -48 -167t-128.5 -120t-174.5 -44q-93 0 -165.5 43.5zM499.5 45.5q44.5 32.5 69.5 95t25 149.5q0 92 -28 164.5t-81 113.5t-124 41
q-91 0 -140 -68.5t-49 -191.5q0 -97 29.5 -173.5t81 -119.5t116.5 -43q56 0 100.5 32.5zM261.5 717.5q-14.5 14.5 -14.5 40.5q0 24 15 38t40 14t38.5 -14t13.5 -38q0 -26 -13.5 -40.5t-38.5 -14.5q-26 0 -40.5 14.5zM436 717.5q-14 14.5 -14 40.5q0 24 14.5 37.5t39.5 13.5
t38.5 -13.5t13.5 -37.5q0 -26 -13.5 -40.5t-38.5 -14.5q-26 0 -40 14.5z" />
    <glyph glyph-name="multiply" unicode="&#xd7;" horiz-adv-x="399" 
d="M319.5 70q-17.5 -18 -20.5 -14l-99 99l-99 -100q-4 -3 -21.5 14t-15.5 20l101 101l-100 99q-2 4 15 21t19 15l101 -100l98 98q4 3 21.5 -14.5t13.5 -19.5l-99 -99l99 -99q4 -3 -13.5 -21z" />
    <glyph glyph-name="Oslash" unicode="&#xd8;" horiz-adv-x="789" 
d="M695 438q22 -58 22 -119q0 -91 -48 -167t-128.5 -120t-174.5 -44q-119 0 -207 73l-69 -70l-1 -1q-5 0 -13 8.5t-5 12.5l68 69q-43 45 -66.5 105t-23.5 127q0 103 52 176.5t133.5 110.5t166.5 37q63 0 116 -20t94 -57l73 74h1q5 0 13.5 -8t5.5 -11l-73 -74q42 -44 64 -102
zM211 153l336 341q-31 55 -78.5 85t-107.5 30q-91 0 -140 -68.5t-49 -191.5q0 -112 39 -196zM499.5 45.5q44.5 32.5 69.5 95t25 149.5q0 101 -34 178l-336 -341q31 -54 76.5 -84t98.5 -30q56 0 100.5 32.5z" />
    <glyph glyph-name="Ugrave" unicode="&#xd9;" horiz-adv-x="703" 
d="M29 0zM546.5 582q-24.5 31 -68.5 31q-2 0 -2 6t2 6l48 -1q38 -2 61 -2q19 0 55 2l46 1q2 0 2 -6t-2 -6q-39 0 -61 -31t-22 -85v-278q0 -70 -31 -123t-87.5 -81.5t-130.5 -28.5t-131 28t-89.5 81.5t-32.5 125.5v323q0 30 -5.5 44t-20 19.5t-45.5 5.5q-3 0 -3 6t3 6l53 -1
q46 -2 73 -2q30 0 76 2l51 1q3 0 3 -6t-3 -6q-31 0 -45.5 -6t-20 -20.5t-5.5 -44.5v-286q0 -119 47 -176t133 -57q83 0 130 50.5t47 144.5v279q0 54 -24.5 85zM251 756q-12 2 11.5 13.5t54 20t35.5 3.5l47 -40q44 -38 78 -64q3 -1 3 -4t-2 -5t-5 -1q-112 50 -222 77z" />
    <glyph glyph-name="Uacute" unicode="&#xda;" horiz-adv-x="703" 
d="M29 0zM546.5 582q-24.5 31 -68.5 31q-2 0 -2 6t2 6l48 -1q38 -2 61 -2q19 0 55 2l46 1q2 0 2 -6t-2 -6q-39 0 -61 -31t-22 -85v-278q0 -70 -31 -123t-87.5 -81.5t-130.5 -28.5t-131 28t-89.5 81.5t-32.5 125.5v323q0 30 -5.5 44t-20 19.5t-45.5 5.5q-3 0 -3 6t3 6l53 -1
q46 -2 73 -2q30 0 76 2l51 1q3 0 3 -6t-3 -6q-31 0 -45.5 -6t-20 -20.5t-5.5 -44.5v-286q0 -119 47 -176t133 -57q83 0 130 50.5t47 144.5v279q0 54 -24.5 85zM274 678q-4 0 -5 4.5t2 6.5q29 21 81 66q30 26 45 38q5 5 35.5 -3.5t54 -20t11.5 -13.5q-62 -15 -113.5 -33.5
t-108.5 -43.5z" />
    <glyph glyph-name="Ucircumflex" unicode="&#xdb;" horiz-adv-x="703" 
d="M29 0zM546.5 582q-24.5 31 -68.5 31q-2 0 -2 6t2 6l48 -1q38 -2 61 -2q19 0 55 2l46 1q2 0 2 -6t-2 -6q-39 0 -61 -31t-22 -85v-278q0 -70 -31 -123t-87.5 -81.5t-130.5 -28.5t-131 28t-89.5 81.5t-32.5 125.5v323q0 30 -5.5 44t-20 19.5t-45.5 5.5q-3 0 -3 6t3 6l53 -1
q46 -2 73 -2q30 0 76 2l51 1q3 0 3 -6t-3 -6q-31 0 -45.5 -6t-20 -20.5t-5.5 -44.5v-286q0 -119 47 -176t133 -57q83 0 130 50.5t47 144.5v279q0 54 -24.5 85zM362 818q5 5 12 5q6 0 11 -5l102 -116q1 0 1 -2t-2.5 -4t-3.5 -1l-108 39l-109 -39q-2 -1 -5 2.5t-1 4.5z" />
    <glyph glyph-name="Udieresis" unicode="&#xdc;" horiz-adv-x="703" 
d="M29 0zM546.5 582q-24.5 31 -68.5 31q-2 0 -2 6t2 6l48 -1q38 -2 61 -2q19 0 55 2l46 1q2 0 2 -6t-2 -6q-39 0 -61 -31t-22 -85v-278q0 -70 -31 -123t-87.5 -81.5t-130.5 -28.5t-131 28t-89.5 81.5t-32.5 125.5v323q0 30 -5.5 44t-20 19.5t-45.5 5.5q-3 0 -3 6t3 6l53 -1
q46 -2 73 -2q30 0 76 2l51 1q3 0 3 -6t-3 -6q-31 0 -45.5 -6t-20 -20.5t-5.5 -44.5v-286q0 -119 47 -176t133 -57q83 0 130 50.5t47 144.5v279q0 54 -24.5 85zM246.5 717.5q-14.5 14.5 -14.5 40.5q0 24 15 38t40 14t38.5 -14t13.5 -38q0 -26 -13.5 -40.5t-38.5 -14.5
q-26 0 -40.5 14.5zM421 717.5q-14 14.5 -14 40.5q0 24 14.5 37.5t39.5 13.5t38.5 -13.5t13.5 -37.5q0 -26 -13.5 -40.5t-38.5 -14.5q-26 0 -40 14.5z" />
    <glyph glyph-name="Yacute" unicode="&#xdd;" horiz-adv-x="619" 
d="M2 0zM627 619q0 -6 -2 -6q-31 0 -76 -38.5t-80 -96.5l-104 -174v-223q0 -31 5 -45t19.5 -19t46.5 -5q3 0 3 -6t-3 -6q-33 0 -52 1l-75 1l-74 -1q-20 -1 -54 -1q-2 0 -2 6t2 6q32 0 47 5t20.5 19.5t5.5 44.5v202l-146 227q-37 58 -61.5 80.5t-41.5 22.5q-3 0 -3 6t3 6
l31 -1q22 -2 31 -2q35 0 101 2l66 1q2 0 2 -6t-2 -6q-17 0 -26.5 -8t-9.5 -21q0 -16 14 -38l137 -216l92 157q27 45 27 77q0 24 -14.5 36.5t-41.5 12.5q-3 0 -3 6t3 6l53 -1q46 -2 82 -2q17 0 41 2l37 1q2 0 2 -6zM225 678q-4 0 -5 4.5t2 6.5q29 21 81 66q30 26 45 38
q5 5 35.5 -3.5t54 -20t11.5 -13.5q-62 -15 -113.5 -33.5t-108.5 -43.5z" />
    <glyph glyph-name="Thorn" unicode="&#xde;" horiz-adv-x="549" 
d="M367.5 190.5q28.5 43.5 28.5 125.5q0 79 -32.5 120t-87.5 41q-29 0 -64 -5v-387q0 -32 7 -46.5t26.5 -20.5t62.5 -6q2 0 2 -6t-2 -6q-42 0 -65 1l-86 1l-67 -1q-18 -1 -49 -1q-3 0 -3 6t3 6q26 0 38.5 5t17 19.5t4.5 44.5v463q0 30 -4.5 44t-17 19.5t-38.5 5.5q-3 0 -3 6
t3 6l49 -1q42 -2 67 -2q32 0 86 2l65 1q2 0 2 -6t-2 -6q-43 0 -62.5 -6t-26.5 -21t-7 -47v-45q41 5 89 5q98 0 157 -40t59 -128q0 -65 -31.5 -110t-79.5 -66.5t-98 -21.5q-23 0 -50 5q-2 0 -2 5q0 3 1.5 6t3.5 2q24 -4 36 -4q42 0 70.5 43.5z" />
    <glyph glyph-name="germandbls" unicode="&#xdf;" horiz-adv-x="570" 
d="M276 16q-6 6 -6 12l-2 111q0 3 5.5 3.5t6.5 -2.5q24 -52 62 -90.5t64 -38.5q22 0 33 17.5t11 43.5q0 28 -12.5 52t-27.5 40t-51 51q-32 31 -48.5 49t-29 41.5t-12.5 50.5q0 25 9.5 45t29.5 53q24 38 36 66.5t12 66.5q0 49 -21.5 85t-61.5 36q-53 0 -77 -67.5t-24 -194.5
v-365q0 -31 4 -45t15 -19t36 -5q2 0 2 -6t-2 -6l-102 1l-107 -1q-3 0 -3 6t3 6q26 0 38 5.5t16.5 19.5t4.5 44l-1 367q0 134 60.5 206t179.5 72q69 0 108 -24t39 -72q0 -35 -19.5 -59.5t-56.5 -53.5q-31 -25 -46 -43t-15 -41q0 -30 23.5 -59t72.5 -75q57 -53 86 -90t29 -79
q0 -34 -20.5 -67t-56.5 -53.5t-80 -20.5q-56 0 -104 27z" />
    <glyph glyph-name="agrave" unicode="&#xe0;" horiz-adv-x="421" 
d="M40 0zM419 54q4 0 5.5 -4.5t-2.5 -6.5l-103 -49q-4 -2 -10 -2q-15 0 -29.5 15t-20.5 41l-46 -25q-26 -13 -54 -21.5t-50 -8.5q-32 0 -50.5 16.5t-18.5 47.5q0 23 11.5 37t33 23.5t68.5 25.5l102 33v79q0 60 -12 88.5t-39 28.5q-24 0 -38 -18t-17 -59q-6 -56 -59 -56
q-47 0 -47 41q0 27 34 54t82 44t84 17q47 0 76.5 -28t29.5 -82v-177q0 -29 10.5 -45t29.5 -16q14 0 29 7h1zM256 64q-1 7 -1 21v74l-55 -20q-27 -10 -38.5 -22t-11.5 -29q0 -21 12 -33t30 -12q22 0 51 14zM113 731q22 0 53 -5.5t32 -9.5l32 -240q0 -2 -4.5 -3.5t-5.5 1.5
l-121 253q-1 4 14 4z" />
    <glyph glyph-name="aacute" unicode="&#xe1;" horiz-adv-x="421" 
d="M40 0zM419 54q4 0 5.5 -4.5t-2.5 -6.5l-103 -49q-4 -2 -10 -2q-15 0 -29.5 15t-20.5 41l-46 -25q-26 -13 -54 -21.5t-50 -8.5q-32 0 -50.5 16.5t-18.5 47.5q0 23 11.5 37t33 23.5t68.5 25.5l102 33v79q0 60 -12 88.5t-39 28.5q-24 0 -38 -18t-17 -59q-6 -56 -59 -56
q-47 0 -47 41q0 27 34 54t82 44t84 17q47 0 76.5 -28t29.5 -82v-177q0 -29 10.5 -45t29.5 -16q14 0 29 7h1zM256 64q-1 7 -1 21v74l-55 -20q-27 -10 -38.5 -22t-11.5 -29q0 -21 12 -33t30 -12q22 0 51 14zM208 472q-3 0 -5.5 1.5t-1.5 2.5l33 240q2 4 33 9.5t52 5.5
q14 0 13 -4l-120 -253q0 -2 -4 -2z" />
    <glyph glyph-name="acircumflex" unicode="&#xe2;" horiz-adv-x="421" 
d="M40 0zM419 54q4 0 5.5 -4.5t-2.5 -6.5l-103 -49q-4 -2 -10 -2q-15 0 -29.5 15t-20.5 41l-46 -25q-26 -13 -54 -21.5t-50 -8.5q-32 0 -50.5 16.5t-18.5 47.5q0 23 11.5 37t33 23.5t68.5 25.5l102 33v79q0 60 -12 88.5t-39 28.5q-24 0 -38 -18t-17 -59q-6 -56 -59 -56
q-47 0 -47 41q0 27 34 54t82 44t84 17q47 0 76.5 -28t29.5 -82v-177q0 -29 10.5 -45t29.5 -16q14 0 29 7h1zM256 64q-1 7 -1 21v74l-55 -20q-27 -10 -38.5 -22t-11.5 -29q0 -21 12 -33t30 -12q22 0 51 14zM293 475q0 -2 -4.5 -3t-5.5 2l-68 108l-69 -108q-1 -3 -6.5 -1.5
t-4.5 3.5l68 249q0 5 11 5q9 0 12 -5l67 -249v-1z" />
    <glyph glyph-name="atilde" unicode="&#xe3;" horiz-adv-x="421" 
d="M40 0zM419 54q4 0 5.5 -4.5t-2.5 -6.5l-103 -49q-4 -2 -10 -2q-15 0 -29.5 15t-20.5 41l-46 -25q-26 -13 -54 -21.5t-50 -8.5q-32 0 -50.5 16.5t-18.5 47.5q0 23 11.5 37t33 23.5t68.5 25.5l102 33v79q0 60 -12 88.5t-39 28.5q-24 0 -38 -18t-17 -59q-6 -56 -59 -56
q-47 0 -47 41q0 27 34 54t82 44t84 17q47 0 76.5 -28t29.5 -82v-177q0 -29 10.5 -45t29.5 -16q14 0 29 7h1zM256 64q-1 7 -1 21v74l-55 -20q-27 -10 -38.5 -22t-11.5 -29q0 -21 12 -33t30 -12q22 0 51 14zM316.5 539q10.5 6 23.5 21l2 1q2 0 4 -3t1 -5q-27 -48 -43.5 -64
t-39.5 -16q-19 0 -56 11q-17 5 -35 9t-34 4q-19 0 -27 -5t-24 -22h-1q-3 0 -5.5 2.5t-0.5 4.5q45 81 87 81q11 0 47 -10q18 -6 38 -10.5t36 -4.5q17 0 27.5 6z" />
    <glyph glyph-name="adieresis" unicode="&#xe4;" horiz-adv-x="421" 
d="M40 0zM419 54q4 0 5.5 -4.5t-2.5 -6.5l-103 -49q-4 -2 -10 -2q-15 0 -29.5 15t-20.5 41l-46 -25q-26 -13 -54 -21.5t-50 -8.5q-32 0 -50.5 16.5t-18.5 47.5q0 23 11.5 37t33 23.5t68.5 25.5l102 33v79q0 60 -12 88.5t-39 28.5q-24 0 -38 -18t-17 -59q-6 -56 -59 -56
q-47 0 -47 41q0 27 34 54t82 44t84 17q47 0 76.5 -28t29.5 -82v-177q0 -29 10.5 -45t29.5 -16q14 0 29 7h1zM256 64q-1 7 -1 21v74l-55 -20q-27 -10 -38.5 -22t-11.5 -29q0 -21 12 -33t30 -12q22 0 51 14zM87.5 478.5q-14.5 14.5 -14.5 40.5q0 24 15 38t40 14t38.5 -14
t13.5 -38q0 -26 -13.5 -40.5t-38.5 -14.5q-26 0 -40.5 14.5zM262 478.5q-14 14.5 -14 40.5q0 24 14.5 37.5t39.5 13.5t38.5 -13.5t13.5 -37.5q0 -26 -13.5 -40.5t-38.5 -14.5q-26 0 -40 14.5z" />
    <glyph glyph-name="aring" unicode="&#xe5;" horiz-adv-x="421" 
d="M40 0zM419 54q4 0 5.5 -4.5t-2.5 -6.5l-103 -49q-4 -2 -10 -2q-15 0 -29.5 15t-20.5 41l-46 -25q-26 -13 -54 -21.5t-50 -8.5q-32 0 -50.5 16.5t-18.5 47.5q0 23 11.5 37t33 23.5t68.5 25.5l102 33v79q0 60 -12 88.5t-39 28.5q-24 0 -38 -18t-17 -59q-6 -56 -59 -56
q-47 0 -47 41q0 27 34 54t82 44t84 17q47 0 76.5 -28t29.5 -82v-177q0 -29 10.5 -45t29.5 -16q14 0 29 7h1zM256 64q-1 7 -1 21v74l-55 -20q-27 -10 -38.5 -22t-11.5 -29q0 -21 12 -33t30 -12q22 0 51 14zM128 491.5q-29 23.5 -29 55.5q0 36 36 57t80 21t75 -23.5t31 -56.5
q0 -35 -35 -56t-81 -21q-48 0 -77 23.5zM240.5 493q6.5 11 6.5 34q0 34 -15 59t-37 25q-24 0 -24 -44q0 -33 13.5 -59t36.5 -26q13 0 19.5 11z" />
    <glyph glyph-name="ae" unicode="&#xe6;" horiz-adv-x="589" 
d="M573 66q2 0 4.5 -4t0.5 -6q-38 -36 -75 -52t-83 -16q-105 0 -152 68l-61 -33q-57 -30 -104 -30q-32 0 -50.5 16.5t-18.5 47.5q0 23 11.5 37t33 23.5t68.5 25.5l88 28q-3 83 -6.5 121t-14.5 59.5t-34 21.5q-25 0 -37 -20t-12 -62q0 -20 -11 -35t-40 -15q-52 0 -52 44
q0 22 28 48t69 44t77 18q34 0 60.5 -14.5t42.5 -40.5q61 55 146 55q59 0 90.5 -28t31.5 -80q0 -11 -3 -15.5t-12 -4.5h-81l-137 -2q-3 -22 -3 -50q0 -88 32 -134.5t94 -46.5q67 0 108 31zM370.5 351.5q-19.5 -23.5 -27.5 -66.5l122 4q0 42 -12.5 64t-34.5 22
q-28 0 -47.5 -23.5zM260 69q-20 35 -24 85l-42 -15q-23 -9 -33.5 -21.5t-10.5 -29.5q0 -20 12 -32t31 -12q18 0 44 13z" />
    <glyph glyph-name="ccedilla" unicode="&#xe7;" horiz-adv-x="425" 
d="M230 -12q-2 -14 -2 -21q0 -19 9.5 -33t30.5 -26q26 -16 40.5 -33.5t14.5 -44.5q0 -42 -30.5 -73.5t-91.5 -31.5q-75 0 -75 48q0 15 12 27t28 12q19 0 27 -8.5t13 -24.5q5 -15 11.5 -22.5t23.5 -7.5q22 0 22 24q0 26 -18.5 47t-64.5 47q-9 3 -9 12q0 7 4 16q18 44 36 94
q-59 5 -99 34.5t-60 72.5t-20 90q0 63 35 110.5t89.5 73t111.5 25.5q48 0 86.5 -20t38.5 -55q0 -19 -14.5 -32.5t-40.5 -13.5q-24 0 -38 12.5t-23 38.5q-9 28 -17.5 38.5t-30.5 10.5q-43 0 -68.5 -42.5t-25.5 -112.5q0 -83 37 -132.5t118 -49.5q27 0 46.5 6t49.5 20h1
q3 0 5.5 -3t0.5 -5q-37 -34 -74 -50.5t-85 -16.5h-4z" />
    <glyph glyph-name="egrave" unicode="&#xe8;" horiz-adv-x="418" 
d="M32 0zM388 66q2 0 4.5 -4t0.5 -6q-37 -36 -75 -52t-83 -16q-63 0 -109 26.5t-70 71t-24 95.5q0 58 30 107.5t82 78t116 28.5q62 0 95 -26.5t33 -72.5q0 -29 -11 -29h-61l-180 -2q-3 -19 -3 -42q0 -86 40.5 -136t111.5 -50q25 0 52 7t49 21zM171 351q-22 -24 -32 -66
l142 3q-3 87 -58 87q-30 0 -52 -24zM134 731q22 0 53 -5.5t32 -9.5l32 -240q0 -2 -4.5 -3.5t-5.5 1.5l-121 253q-1 4 14 4z" />
    <glyph glyph-name="eacute" unicode="&#xe9;" horiz-adv-x="418" 
d="M32 0zM388 66q2 0 4.5 -4t0.5 -6q-37 -36 -75 -52t-83 -16q-63 0 -109 26.5t-70 71t-24 95.5q0 58 30 107.5t82 78t116 28.5q62 0 95 -26.5t33 -72.5q0 -29 -11 -29h-61l-180 -2q-3 -19 -3 -42q0 -86 40.5 -136t111.5 -50q25 0 52 7t49 21zM171 351q-22 -24 -32 -66
l142 3q-3 87 -58 87q-30 0 -52 -24zM229 472q-3 0 -5.5 1.5t-1.5 2.5l33 240q2 4 33 9.5t52 5.5q14 0 13 -4l-120 -253q0 -2 -4 -2z" />
    <glyph glyph-name="ecircumflex" unicode="&#xea;" horiz-adv-x="418" 
d="M32 0zM388 66q2 0 4.5 -4t0.5 -6q-37 -36 -75 -52t-83 -16q-63 0 -109 26.5t-70 71t-24 95.5q0 58 30 107.5t82 78t116 28.5q62 0 95 -26.5t33 -72.5q0 -29 -11 -29h-61l-180 -2q-3 -19 -3 -42q0 -86 40.5 -136t111.5 -50q25 0 52 7t49 21zM171 351q-22 -24 -32 -66
l142 3q-3 87 -58 87q-30 0 -52 -24zM314 475q0 -2 -4.5 -3t-5.5 2l-68 108l-69 -108q-1 -3 -6.5 -1.5t-4.5 3.5l68 249q1 5 11 5q11 0 12 -5l67 -249v-1z" />
    <glyph glyph-name="edieresis" unicode="&#xeb;" horiz-adv-x="418" 
d="M32 0zM388 66q2 0 4.5 -4t0.5 -6q-37 -36 -75 -52t-83 -16q-63 0 -109 26.5t-70 71t-24 95.5q0 58 30 107.5t82 78t116 28.5q62 0 95 -26.5t33 -72.5q0 -29 -11 -29h-61l-180 -2q-3 -19 -3 -42q0 -86 40.5 -136t111.5 -50q25 0 52 7t49 21zM171 351q-22 -24 -32 -66
l142 3q-3 87 -58 87q-30 0 -52 -24zM108.5 478.5q-14.5 14.5 -14.5 40.5q0 24 15 38t40 14t38.5 -14t13.5 -38q0 -26 -13.5 -40.5t-38.5 -14.5q-26 0 -40.5 14.5zM283 478.5q-14 14.5 -14 40.5q0 24 14.5 37.5t39.5 13.5t38.5 -13.5t13.5 -37.5q0 -26 -13.5 -40.5
t-38.5 -14.5q-26 0 -40 14.5z" />
    <glyph glyph-name="igrave" unicode="&#xec;" horiz-adv-x="263" 
d="M16 0zM36 6q0 6 3 6q31 0 42 14.5t11 54.5v179q0 34 -7 49t-23 15q-13 0 -37 -11h-1q-4 0 -6 5.5t1 6.5l151 70l3 1q5 0 10 -5t5 -9v-22q-2 -40 -2 -98v-181q0 -40 11.5 -54.5t42.5 -14.5q3 0 3 -6t-3 -6q-26 0 -41 1l-60 1l-59 -1q-15 -1 -41 -1q-3 0 -3 6zM34 731
q22 0 53 -5.5t32 -9.5l32 -240q0 -2 -4.5 -3.5t-5.5 1.5l-121 253q-1 4 14 4z" />
    <glyph glyph-name="iacute" unicode="&#xed;" horiz-adv-x="263" 
d="M16 0zM36 6q0 6 3 6q31 0 42 14.5t11 54.5v179q0 34 -7 49t-23 15q-13 0 -37 -11h-1q-4 0 -6 5.5t1 6.5l151 70l3 1q5 0 10 -5t5 -9v-22q-2 -40 -2 -98v-181q0 -40 11.5 -54.5t42.5 -14.5q3 0 3 -6t-3 -6q-26 0 -41 1l-60 1l-59 -1q-15 -1 -41 -1q-3 0 -3 6zM129 472
q-3 0 -5.5 1.5t-1.5 2.5l33 240q2 4 33 9.5t52 5.5q14 0 13 -4l-120 -253q0 -2 -4 -2z" />
    <glyph glyph-name="icircumflex" unicode="&#xee;" horiz-adv-x="263" 
d="M16 0zM36 6q0 6 3 6q31 0 42 14.5t11 54.5v179q0 34 -7 49t-23 15q-13 0 -37 -11h-1q-4 0 -6 5.5t1 6.5l151 70l3 1q5 0 10 -5t5 -9v-22q-2 -40 -2 -98v-181q0 -40 11.5 -54.5t42.5 -14.5q3 0 3 -6t-3 -6q-26 0 -41 1l-60 1l-59 -1q-15 -1 -41 -1q-3 0 -3 6zM214 475
q0 -2 -4.5 -3t-5.5 2l-68 108l-69 -108q-1 -3 -6.5 -1.5t-4.5 3.5l68 249q1 5 11 5q11 0 12 -5l67 -249v-1z" />
    <glyph glyph-name="idieresis" unicode="&#xef;" horiz-adv-x="263" 
d="M4 0zM36 6q0 6 3 6q31 0 42 14.5t11 54.5v179q0 34 -7 49t-23 15q-13 0 -37 -11h-1q-4 0 -6 5.5t1 6.5l151 70l3 1q5 0 10 -5t5 -9v-22q-2 -40 -2 -98v-181q0 -40 11.5 -54.5t42.5 -14.5q3 0 3 -6t-3 -6q-26 0 -41 1l-60 1l-59 -1q-15 -1 -41 -1q-3 0 -3 6zM18.5 478.5
q-14.5 14.5 -14.5 40.5q0 24 15 38t40 14t39 -14t14 -38q0 -26 -14 -40.5t-39 -14.5q-26 0 -40.5 14.5zM172 478.5q-14 14.5 -14 40.5q0 24 14 37.5t39 13.5t38.5 -13.5t13.5 -37.5q0 -26 -13.5 -40.5t-38.5 -14.5t-39 14.5z" />
    <glyph glyph-name="eth" unicode="&#xf0;" horiz-adv-x="470" 
d="M418 407q38 -90 38 -180q0 -121 -65.5 -180.5t-167.5 -59.5q-62 0 -110 27t-73.5 73t-25.5 99q0 69 34.5 117t87 72t103.5 24q45 0 85 -20q-28 91 -74 164l-125 -59q-6 -2 -12.5 14t-1.5 19l120 57q-60 86 -141 142q-2 2 -2 3q0 2 2.5 4.5t5.5 1.5q109 -48 188 -126
l101 48q4 1 9 -6t7 -16t-2 -11l-88 -42q69 -75 107 -165zM326 50q26 41 26 141q0 58 -11 118q-21 33 -49 50.5t-60 17.5q-51 0 -83 -42t-32 -120q0 -57 17 -104t47.5 -74.5t69.5 -27.5q49 0 75 41z" />
    <glyph glyph-name="ntilde" unicode="&#xf1;" horiz-adv-x="526" 
d="M5 0zM512 6q0 -6 -3 -6q-26 0 -41 1l-60 1l-58 -1q-16 -1 -42 -1q-3 0 -3 6t3 6q31 0 42 14.5t11 54.5v144q0 54 -19.5 80t-61.5 26q-24 0 -49.5 -10t-44.5 -27v-213q0 -40 11.5 -54.5t42.5 -14.5q3 0 3 -6t-3 -6q-26 0 -41 1l-60 1l-59 -1q-15 -1 -41 -1q-3 0 -3 6t3 6
q31 0 42 14.5t11 54.5v188q0 31 -7.5 45.5t-23.5 14.5q-17 0 -48 -14h-2q-3 0 -4.5 5t0.5 6l139 68q6 2 7 2q11 0 21 -21.5t12 -58.5q69 82 152 82q54 0 85.5 -34.5t31.5 -90.5v-192q0 -40 11.5 -54.5t42.5 -14.5q3 0 3 -6zM379.5 539q10.5 6 23.5 21l2 1q2 0 4 -3t1 -5
q-27 -48 -43.5 -64t-39.5 -16q-19 0 -56 11q-17 5 -35 9t-34 4q-19 0 -27 -5t-24 -22h-1q-3 0 -5.5 2.5t-0.5 4.5q45 81 87 81q11 0 47 -10q18 -6 38 -10.5t36 -4.5q17 0 27.5 6z" />
    <glyph glyph-name="ograve" unicode="&#xf2;" horiz-adv-x="489" 
d="M32 0zM128.5 15.5q-46.5 28.5 -71.5 77t-25 105.5q0 65 33 110.5t84 68t105 22.5q62 0 108 -29t70.5 -76.5t24.5 -101.5q0 -60 -30 -106.5t-80.5 -72.5t-109.5 -26q-62 0 -108.5 28.5zM326.5 46.5q20.5 38.5 20.5 110.5q0 70 -18 120t-47 75.5t-62 25.5q-80 0 -80 -143
q0 -67 17 -118.5t46 -80t64 -28.5q39 0 59.5 38.5zM145 731q22 0 53 -5.5t32 -9.5l32 -240q0 -2 -4.5 -3.5t-5.5 1.5l-121 253q-1 4 14 4z" />
    <glyph glyph-name="oacute" unicode="&#xf3;" horiz-adv-x="489" 
d="M32 0zM128.5 15.5q-46.5 28.5 -71.5 77t-25 105.5q0 65 33 110.5t84 68t105 22.5q62 0 108 -29t70.5 -76.5t24.5 -101.5q0 -60 -30 -106.5t-80.5 -72.5t-109.5 -26q-62 0 -108.5 28.5zM326.5 46.5q20.5 38.5 20.5 110.5q0 70 -18 120t-47 75.5t-62 25.5q-80 0 -80 -143
q0 -67 17 -118.5t46 -80t64 -28.5q39 0 59.5 38.5zM240 472q-3 0 -5.5 1.5t-1.5 2.5l33 240q2 4 33 9.5t52 5.5q14 0 13 -4l-120 -253q0 -2 -4 -2z" />
    <glyph glyph-name="ocircumflex" unicode="&#xf4;" horiz-adv-x="489" 
d="M32 0zM128.5 15.5q-46.5 28.5 -71.5 77t-25 105.5q0 65 33 110.5t84 68t105 22.5q62 0 108 -29t70.5 -76.5t24.5 -101.5q0 -60 -30 -106.5t-80.5 -72.5t-109.5 -26q-62 0 -108.5 28.5zM326.5 46.5q20.5 38.5 20.5 110.5q0 70 -18 120t-47 75.5t-62 25.5q-80 0 -80 -143
q0 -67 17 -118.5t46 -80t64 -28.5q39 0 59.5 38.5zM325 475q0 -2 -4.5 -3t-5.5 2l-68 108l-69 -108q-1 -3 -6.5 -1.5t-4.5 3.5l68 249q1 5 11 5q11 0 12 -5l67 -249v-1z" />
    <glyph glyph-name="otilde" unicode="&#xf5;" horiz-adv-x="489" 
d="M32 0zM128.5 15.5q-46.5 28.5 -71.5 77t-25 105.5q0 65 33 110.5t84 68t105 22.5q62 0 108 -29t70.5 -76.5t24.5 -101.5q0 -60 -30 -106.5t-80.5 -72.5t-109.5 -26q-62 0 -108.5 28.5zM326.5 46.5q20.5 38.5 20.5 110.5q0 70 -18 120t-47 75.5t-62 25.5q-80 0 -80 -143
q0 -67 17 -118.5t46 -80t64 -28.5q39 0 59.5 38.5zM348.5 539q10.5 6 23.5 21l2 1q2 0 4 -3t1 -5q-27 -48 -43.5 -64t-39.5 -16q-19 0 -56 11q-17 5 -35 9t-34 4q-19 0 -27 -5t-24 -22h-1q-3 0 -5.5 2.5t-0.5 4.5q45 81 87 81q11 0 47 -10q18 -6 38 -10.5t36 -4.5
q17 0 27.5 6z" />
    <glyph glyph-name="odieresis" unicode="&#xf6;" horiz-adv-x="489" 
d="M32 0zM128.5 15.5q-46.5 28.5 -71.5 77t-25 105.5q0 65 33 110.5t84 68t105 22.5q62 0 108 -29t70.5 -76.5t24.5 -101.5q0 -60 -30 -106.5t-80.5 -72.5t-109.5 -26q-62 0 -108.5 28.5zM326.5 46.5q20.5 38.5 20.5 110.5q0 70 -18 120t-47 75.5t-62 25.5q-80 0 -80 -143
q0 -67 17 -118.5t46 -80t64 -28.5q39 0 59.5 38.5zM119.5 478.5q-14.5 14.5 -14.5 40.5q0 24 15 38t40 14t38.5 -14t13.5 -38q0 -26 -13.5 -40.5t-38.5 -14.5q-26 0 -40.5 14.5zM294 478.5q-14 14.5 -14 40.5q0 24 14.5 37.5t39.5 13.5t38.5 -13.5t13.5 -37.5
q0 -26 -13.5 -40.5t-38.5 -14.5q-26 0 -40 14.5z" />
    <glyph glyph-name="divide" unicode="&#xf7;" horiz-adv-x="398" 
d="M154 290q-16 16 -16 45q0 26 16.5 41.5t44.5 15.5t43 -15t15 -42q0 -29 -15 -45t-43 -16q-29 0 -45 16zM30.5 173q-1.5 8 -1.5 18q0 9 1 16t3 7h331q2 0 3.5 -7.5t1.5 -16.5t-1.5 -17t-3.5 -8h-330q-2 0 -3.5 8zM154.5 5.5q-16.5 16.5 -16.5 44.5q0 26 16.5 42t44.5 16
q27 0 42.5 -15.5t15.5 -42.5q0 -29 -15 -45t-43 -16t-44.5 16.5z" />
    <glyph glyph-name="oslash" unicode="&#xf8;" horiz-adv-x="477" 
d="M442.5 271q14.5 -38 14.5 -79q0 -60 -30 -106.5t-80.5 -72.5t-109.5 -26q-78 0 -132 46l-48 -49l-1 -1q-5 0 -13.5 8.5t-5.5 12.5l47 49q-25 29 -38.5 66.5t-13.5 78.5q0 65 33 110.5t84 68t105 22.5q73 0 126 -42l43 44l2 1q5 0 13.5 -8t4.5 -12l-43 -44
q28 -29 42.5 -67zM154 125l167 171q-18 40 -44.5 61t-56.5 21q-80 0 -80 -143q0 -62 14 -110zM326.5 46.5q20.5 38.5 20.5 110.5q0 65 -15 111l-167 -173q17 -41 44 -64t58 -23q39 0 59.5 38.5z" />
    <glyph glyph-name="ugrave" unicode="&#xf9;" horiz-adv-x="505" 
d="M9 0zM499 65q3 0 5.5 -5t-0.5 -6l-138 -67q-2 -1 -5 -1q-10 0 -17.5 21.5t-8.5 58.5q-66 -78 -143 -78q-55 0 -86.5 34.5t-31.5 90.5v147q0 65 -31 65q-11 0 -25 -7h-1q-4 0 -6 5.5t1 6.5l134 64l5 1q5 0 10.5 -4.5t5.5 -8.5v-221q0 -108 83 -108q22 0 44.5 9.5
t40.5 26.5v171q0 65 -31 65q-11 0 -26 -7h-1q-3 0 -5 5.5t1 6.5l134 64q2 1 5 1q5 0 10.5 -4.5t5.5 -8.5v-266q0 -34 6.5 -48t21.5 -14q14 0 41 11h2zM156 731q22 0 53 -5.5t32 -9.5l32 -240q0 -2 -4.5 -3.5t-5.5 1.5l-121 253q-1 4 14 4z" />
    <glyph glyph-name="uacute" unicode="&#xfa;" horiz-adv-x="505" 
d="M9 0zM499 65q3 0 5.5 -5t-0.5 -6l-138 -67q-2 -1 -5 -1q-10 0 -17.5 21.5t-8.5 58.5q-66 -78 -143 -78q-55 0 -86.5 34.5t-31.5 90.5v147q0 65 -31 65q-11 0 -25 -7h-1q-4 0 -6 5.5t1 6.5l134 64l5 1q5 0 10.5 -4.5t5.5 -8.5v-221q0 -108 83 -108q22 0 44.5 9.5
t40.5 26.5v171q0 65 -31 65q-11 0 -26 -7h-1q-3 0 -5 5.5t1 6.5l134 64q2 1 5 1q5 0 10.5 -4.5t5.5 -8.5v-266q0 -34 6.5 -48t21.5 -14q14 0 41 11h2zM251 472q-3 0 -5.5 1.5t-1.5 2.5l33 240q2 4 33 9.5t52 5.5q14 0 13 -4l-120 -253q0 -2 -4 -2z" />
    <glyph glyph-name="ucircumflex" unicode="&#xfb;" horiz-adv-x="505" 
d="M9 0zM499 65q3 0 5.5 -5t-0.5 -6l-138 -67q-2 -1 -5 -1q-10 0 -17.5 21.5t-8.5 58.5q-66 -78 -143 -78q-55 0 -86.5 34.5t-31.5 90.5v147q0 65 -31 65q-11 0 -25 -7h-1q-4 0 -6 5.5t1 6.5l134 64l5 1q5 0 10.5 -4.5t5.5 -8.5v-221q0 -108 83 -108q22 0 44.5 9.5
t40.5 26.5v171q0 65 -31 65q-11 0 -26 -7h-1q-3 0 -5 5.5t1 6.5l134 64q2 1 5 1q5 0 10.5 -4.5t5.5 -8.5v-266q0 -34 6.5 -48t21.5 -14q14 0 41 11h2zM336 475q0 -2 -4.5 -3t-5.5 2l-68 108l-69 -108q-1 -3 -6.5 -1.5t-4.5 3.5l68 249q1 5 11 5q11 0 12 -5l67 -249v-1z" />
    <glyph glyph-name="udieresis" unicode="&#xfc;" horiz-adv-x="505" 
d="M9 0zM499 65q3 0 5.5 -5t-0.5 -6l-138 -67q-2 -1 -5 -1q-10 0 -17.5 21.5t-8.5 58.5q-66 -78 -143 -78q-55 0 -86.5 34.5t-31.5 90.5v147q0 65 -31 65q-11 0 -25 -7h-1q-4 0 -6 5.5t1 6.5l134 64l5 1q5 0 10.5 -4.5t5.5 -8.5v-221q0 -108 83 -108q22 0 44.5 9.5
t40.5 26.5v171q0 65 -31 65q-11 0 -26 -7h-1q-3 0 -5 5.5t1 6.5l134 64q2 1 5 1q5 0 10.5 -4.5t5.5 -8.5v-266q0 -34 6.5 -48t21.5 -14q14 0 41 11h2zM130.5 478.5q-14.5 14.5 -14.5 40.5q0 24 15 38t40 14t38.5 -14t13.5 -38q0 -26 -13.5 -40.5t-38.5 -14.5
q-26 0 -40.5 14.5zM305 478.5q-14 14.5 -14 40.5q0 24 14.5 37.5t39.5 13.5t38.5 -13.5t13.5 -37.5q0 -26 -13.5 -40.5t-38.5 -14.5q-26 0 -40 14.5z" />
    <glyph glyph-name="yacute" unicode="&#xfd;" horiz-adv-x="427" 
d="M0 0zM443 380q0 -6 -2 -6q-32 0 -55.5 -27.5t-42.5 -79.5l-111 -295q-53 -140 -101.5 -196.5t-107.5 -56.5q-30 0 -46 12.5t-16 36.5q0 23 14 35t34 12q11 0 18.5 -3t18.5 -10q19 -13 36 -13q23 0 41.5 17.5t38.5 58t48 115.5l-160 323q-22 43 -34.5 57t-30.5 14
q-3 0 -3 6t3 6q28 0 43 -1l42 -1l69 1q16 1 43 1q3 0 3 -6t-3 -6q-26 0 -38 -4.5t-12 -14.5q0 -8 6 -20l118 -241l60 174q9 26 9 47q0 28 -16 43.5t-46 15.5q-2 0 -2 6t2 6q27 0 41 -1l60 -1l40 1q12 1 37 1q2 0 2 -6zM216 472q-3 0 -5.5 1.5t-1.5 2.5l33 240q2 4 33 9.5
t52 5.5q14 0 13 -4l-120 -253q0 -2 -4 -2z" />
    <glyph glyph-name="thorn" unicode="&#xfe;" horiz-adv-x="496" 
d="M158 -2v-192q0 -30 6.5 -44t25 -19.5t57.5 -5.5q2 0 2 -6t-2 -6q-38 0 -59 1l-78 1l-60 -1q-16 -1 -42 -1q-2 0 -2 6t2 6q24 0 35.5 5.5t16 19.5t4.5 44v783q0 35 -6.5 50t-22.5 15q-13 0 -37 -11h-1q-4 0 -6.5 5.5t0.5 6.5l146 69q2 1 5 1q5 0 10.5 -4.5t5.5 -8.5v-377
q73 64 147 64q42 0 78.5 -22t58.5 -64t22 -98q0 -80 -33 -131.5t-83 -74t-105 -22.5q-48 0 -85 11zM158 311v-250q22 -24 46 -36.5t58 -12.5q49 0 75.5 42t26.5 130q0 76 -35.5 117.5t-88.5 41.5q-45 0 -82 -32z" />
    <glyph glyph-name="ydieresis" unicode="&#xff;" horiz-adv-x="427" 
d="M0 0zM443 380q0 -6 -2 -6q-32 0 -55.5 -27.5t-42.5 -79.5l-111 -295q-53 -140 -101.5 -196.5t-107.5 -56.5q-30 0 -46 12.5t-16 36.5q0 23 14 35t34 12q11 0 18.5 -3t18.5 -10q19 -13 36 -13q23 0 41.5 17.5t38.5 58t48 115.5l-160 323q-22 43 -34.5 57t-30.5 14
q-3 0 -3 6t3 6q28 0 43 -1l42 -1l69 1q16 1 43 1q3 0 3 -6t-3 -6q-26 0 -38 -4.5t-12 -14.5q0 -8 6 -20l118 -241l60 174q9 26 9 47q0 28 -16 43.5t-46 15.5q-2 0 -2 6t2 6q27 0 41 -1l60 -1l40 1q12 1 37 1q2 0 2 -6zM95.5 478.5q-14.5 14.5 -14.5 40.5q0 24 15 38t40 14
t38.5 -14t13.5 -38q0 -26 -13.5 -40.5t-38.5 -14.5q-26 0 -40.5 14.5zM270 478.5q-14 14.5 -14 40.5q0 24 14.5 37.5t39.5 13.5t38.5 -13.5t13.5 -37.5q0 -26 -13.5 -40.5t-38.5 -14.5q-26 0 -40 14.5z" />
    <glyph glyph-name="Amacron" unicode="&#x100;" 
d="M0 0zM722 6q0 -6 -5 -6q-20 0 -62 2q-44 2 -63 2q-25 0 -61 -2q-34 -2 -54 -2q-4 0 -4 6t4 6q26 0 37.5 5.5t11.5 19.5q0 17 -20 57l-104 205h-178l-71 -157q-13 -29 -13 -54q0 -36 25.5 -56t68.5 -20q5 0 5 -6t-5 -6q-18 0 -52 2q-38 2 -66 2q-27 0 -65 -2
q-34 -2 -55 -2q-4 0 -4 6t4 6q28 0 47 11.5t38 41t45 87.5l217 477q2 3 9 3q8 0 9 -3l250 -492q35 -71 58 -98t48 -27q5 0 5 -6zM237 327h151l-80 158zM221 718.5q-3 5.5 -3 13.5q0 7 3 12.5t7 5.5h251q5 0 8 -5.5t3 -12.5q0 -8 -3 -13.5t-8 -5.5h-251q-4 0 -7 5.5z" />
    <glyph glyph-name="amacron" unicode="&#x101;" horiz-adv-x="421" 
d="M40 0zM419 54q4 0 5.5 -4.5t-2.5 -6.5l-103 -49q-4 -2 -10 -2q-15 0 -29.5 15t-20.5 41l-46 -25q-26 -13 -54 -21.5t-50 -8.5q-32 0 -50.5 16.5t-18.5 47.5q0 23 11.5 37t33 23.5t68.5 25.5l102 33v79q0 60 -12 88.5t-39 28.5q-24 0 -38 -18t-17 -59q-6 -56 -59 -56
q-47 0 -47 41q0 27 34 54t82 44t84 17q47 0 76.5 -28t29.5 -82v-177q0 -29 10.5 -45t29.5 -16q14 0 29 7h1zM256 64q-1 7 -1 21v74l-55 -20q-27 -10 -38.5 -22t-11.5 -29q0 -21 12 -33t30 -12q22 0 51 14zM81 479.5q-3 5.5 -3 13.5q0 7 3 12.5t7 5.5h251q5 0 8 -5.5t3 -12.5
q0 -8 -3 -13.5t-8 -5.5h-251q-4 0 -7 5.5z" />
    <glyph glyph-name="Abreve" unicode="&#x102;" 
d="M0 0zM722 6q0 -6 -5 -6q-20 0 -62 2q-44 2 -63 2q-25 0 -61 -2q-34 -2 -54 -2q-4 0 -4 6t4 6q26 0 37.5 5.5t11.5 19.5q0 17 -20 57l-104 205h-178l-71 -157q-13 -29 -13 -54q0 -36 25.5 -56t68.5 -20q5 0 5 -6t-5 -6q-18 0 -52 2q-38 2 -66 2q-27 0 -65 -2
q-34 -2 -55 -2q-4 0 -4 6t4 6q28 0 47 11.5t38 41t45 87.5l217 477q2 3 9 3q8 0 9 -3l250 -492q35 -71 58 -98t48 -27q5 0 5 -6zM237 327h151l-80 158zM277.5 722.5q-26.5 32.5 -26.5 94.5q0 3 5.5 3t5.5 -2q0 -18 27 -34t65 -16q37 0 64 16t27 34q0 2 5.5 2t5.5 -3
q0 -62 -26 -94.5t-76 -32.5t-76.5 32.5z" />
    <glyph glyph-name="abreve" unicode="&#x103;" horiz-adv-x="421" 
d="M40 0zM419 54q4 0 5.5 -4.5t-2.5 -6.5l-103 -49q-4 -2 -10 -2q-15 0 -29.5 15t-20.5 41l-46 -25q-26 -13 -54 -21.5t-50 -8.5q-32 0 -50.5 16.5t-18.5 47.5q0 23 11.5 37t33 23.5t68.5 25.5l102 33v79q0 60 -12 88.5t-39 28.5q-24 0 -38 -18t-17 -59q-6 -56 -59 -56
q-47 0 -47 41q0 27 34 54t82 44t84 17q47 0 76.5 -28t29.5 -82v-177q0 -29 10.5 -45t29.5 -16q14 0 29 7h1zM256 64q-1 7 -1 21v74l-55 -20q-27 -10 -38.5 -22t-11.5 -29q0 -21 12 -33t30 -12q22 0 51 14zM116.5 628q5.5 0 5.5 -2q0 -32 26.5 -56t65.5 -24q38 0 64.5 24.5
t26.5 55.5q0 2 5.5 2t5.5 -3q0 -79 -26 -120.5t-76 -41.5t-76.5 41.5t-26.5 120.5q0 3 5.5 3z" />
    <glyph glyph-name="Aogonek" unicode="&#x104;" 
d="M722 3.5q0 -5.5 -5 -5.5q-25 0 -63 2l-49 1q-50 0 -75.5 -30.5t-25.5 -85.5t24.5 -86.5t60.5 -31.5q23 0 43 11h1q3 0 5.5 -3t0.5 -5q-27 -24 -54 -34.5t-58 -10.5q-55 0 -86.5 30t-31.5 77q0 35 16 58.5t46 51.5q27 26 40 44.5t13 44.5q0 28 -18 63l-104 205h-177
l-72 -157q-13 -29 -13 -54q0 -36 25.5 -56t68.5 -20q5 0 5 -6t-5 -6q-18 0 -52 2q-38 2 -66 2q-27 0 -65 -2q-34 -2 -55 -2q-4 0 -4 6t4 6q28 0 47.5 11.5t38 41t43.5 87.5l218 477q2 3 9 3q8 0 9 -3l250 -492q34 -68 58.5 -98t47.5 -30q5 0 5 -5.5zM237 327h151l-79 157z
" />
    <glyph glyph-name="aogonek" unicode="&#x105;" horiz-adv-x="421" 
d="M419 54q4 0 5.5 -4.5t-2.5 -6.5l-103 -49l-6 -2q-27 -28 -38.5 -52.5t-11.5 -56.5q0 -52 26 -84t71 -32q11 0 24 3.5t19 7.5h2q3 0 5.5 -3t-0.5 -5q-55 -45 -112 -45q-51 0 -84.5 32t-33.5 78q0 78 114 161q-25 14 -35 52l-46 -25q-26 -13 -54 -21.5t-50 -8.5
q-32 0 -50.5 16.5t-18.5 47.5q0 23 11.5 37t33 23.5t68.5 25.5l102 33v79q0 60 -12 88.5t-39 28.5q-24 0 -38 -18t-17 -59q-6 -56 -59 -56q-47 0 -47 41q0 27 34 54t82 44t84 17q47 0 76.5 -28t29.5 -82v-177q0 -29 10.5 -45t29.5 -16q14 0 29 7h1zM256 64q-1 7 -1 21v74
l-55 -20q-27 -10 -38.5 -22t-11.5 -29q0 -21 12 -33t30 -12q22 0 51 14z" />
    <glyph glyph-name="Cacute" unicode="&#x106;" horiz-adv-x="669" 
d="M49 0zM513 628.5q48 -7.5 75 -19.5q9 -3 11.5 -7.5t4.5 -15.5l12 -139q0 -3 -5 -4t-6 3q-34 79 -91 122t-132 43q-99 0 -153 -73t-54 -196q0 -92 29.5 -168t83 -120.5t121.5 -44.5q64 0 114.5 42.5t90.5 129.5q1 4 6.5 3t5.5 -4l-15 -136q-2 -12 -4.5 -15.5t-11.5 -7.5
q-89 -33 -183 -33q-122 0 -204 48.5t-120.5 123t-38.5 155.5q0 95 51.5 168t137 113t183.5 40q44 0 92 -7.5zM280 678q-4 0 -5 4.5t2 6.5q29 21 81 66q30 26 45 38q5 5 35.5 -3.5t54 -20t11.5 -13.5q-62 -15 -113.5 -33.5t-108.5 -43.5z" />
    <glyph glyph-name="cacute" unicode="&#x107;" horiz-adv-x="425" 
d="M32 0zM122.5 16.5q-45.5 28.5 -68 74t-22.5 95.5q0 63 35 110.5t89.5 73t111.5 25.5q48 0 86.5 -20t38.5 -55q0 -19 -14.5 -32.5t-40.5 -13.5q-24 0 -38 12.5t-23 38.5q-9 28 -17.5 38.5t-30.5 10.5q-43 0 -68.5 -42.5t-25.5 -112.5q0 -83 37 -132.5t118 -49.5
q27 0 46.5 6t49.5 20h1q3 0 5.5 -3t0.5 -5q-37 -34 -74 -50.5t-85 -16.5q-66 0 -111.5 28.5zM242 472q-3 0 -5.5 1.5t-1.5 2.5l33 240q2 4 33 9.5t52 5.5q14 0 13 -4l-120 -253q0 -2 -4 -2z" />
    <glyph glyph-name="Ccircumflex" unicode="&#x108;" horiz-adv-x="669" 
d="M49 0zM513 628.5q48 -7.5 75 -19.5q9 -3 11.5 -7.5t4.5 -15.5l12 -139q0 -3 -5 -4t-6 3q-34 79 -91 122t-132 43q-99 0 -153 -73t-54 -196q0 -92 29.5 -168t83 -120.5t121.5 -44.5q64 0 114.5 42.5t90.5 129.5q1 4 6.5 3t5.5 -4l-15 -136q-2 -12 -4.5 -15.5t-11.5 -7.5
q-89 -33 -183 -33q-122 0 -204 48.5t-120.5 123t-38.5 155.5q0 95 51.5 168t137 113t183.5 40q44 0 92 -7.5zM368 818q5 5 12 5q6 0 11 -5l102 -116q1 0 1 -2t-2.5 -4t-3.5 -1l-108 39l-109 -39q-2 -1 -5 2.5t-1 4.5z" />
    <glyph glyph-name="ccircumflex" unicode="&#x109;" horiz-adv-x="425" 
d="M32 0zM122.5 16.5q-45.5 28.5 -68 74t-22.5 95.5q0 63 35 110.5t89.5 73t111.5 25.5q48 0 86.5 -20t38.5 -55q0 -19 -14.5 -32.5t-40.5 -13.5q-24 0 -38 12.5t-23 38.5q-9 28 -17.5 38.5t-30.5 10.5q-43 0 -68.5 -42.5t-25.5 -112.5q0 -83 37 -132.5t118 -49.5
q27 0 46.5 6t49.5 20h1q3 0 5.5 -3t0.5 -5q-37 -34 -74 -50.5t-85 -16.5q-66 0 -111.5 28.5zM327 475q0 -2 -4.5 -3t-5.5 2l-68 108l-69 -108q-1 -3 -6.5 -1.5t-4.5 3.5l68 249q1 5 11 5q11 0 12 -5l67 -249v-1z" />
    <glyph glyph-name="Cdotaccent" unicode="&#x10a;" horiz-adv-x="669" 
d="M49 0zM513 628.5q48 -7.5 75 -19.5q9 -3 11.5 -7.5t4.5 -15.5l12 -139q0 -3 -5 -4t-6 3q-34 79 -91 122t-132 43q-99 0 -153 -73t-54 -196q0 -92 29.5 -168t83 -120.5t121.5 -44.5q64 0 114.5 42.5t90.5 129.5q1 4 6.5 3t5.5 -4l-15 -136q-2 -12 -4.5 -15.5t-11.5 -7.5
q-89 -33 -183 -33q-122 0 -204 48.5t-120.5 123t-38.5 155.5q0 95 51.5 168t137 113t183.5 40q44 0 92 -7.5zM335 729.5q-16 16.5 -16 44.5q0 26 16.5 42t44.5 16q27 0 42.5 -15.5t15.5 -42.5q0 -29 -15 -45t-43 -16q-29 0 -45 16.5z" />
    <glyph glyph-name="cdotaccent" unicode="&#x10b;" horiz-adv-x="425" 
d="M32 0zM122.5 16.5q-45.5 28.5 -68 74t-22.5 95.5q0 63 35 110.5t89.5 73t111.5 25.5q48 0 86.5 -20t38.5 -55q0 -19 -14.5 -32.5t-40.5 -13.5q-24 0 -38 12.5t-23 38.5q-9 28 -17.5 38.5t-30.5 10.5q-43 0 -68.5 -42.5t-25.5 -112.5q0 -83 37 -132.5t118 -49.5
q27 0 46.5 6t49.5 20h1q3 0 5.5 -3t0.5 -5q-37 -34 -74 -50.5t-85 -16.5q-66 0 -111.5 28.5zM203 511q-16 16 -16 45q0 26 16.5 41.5t44.5 15.5t43 -15t15 -42q0 -29 -15 -45t-43 -16q-29 0 -45 16z" />
    <glyph glyph-name="Ccaron" unicode="&#x10c;" horiz-adv-x="669" 
d="M49 0zM513 628.5q48 -7.5 75 -19.5q9 -3 11.5 -7.5t4.5 -15.5l12 -139q0 -3 -5 -4t-6 3q-34 79 -91 122t-132 43q-99 0 -153 -73t-54 -196q0 -92 29.5 -168t83 -120.5t121.5 -44.5q64 0 114.5 42.5t90.5 129.5q1 4 6.5 3t5.5 -4l-15 -136q-2 -12 -4.5 -15.5t-11.5 -7.5
q-89 -33 -183 -33q-122 0 -204 48.5t-120.5 123t-38.5 155.5q0 95 51.5 168t137 113t183.5 40q44 0 92 -7.5zM264 802v2q0 2 2.5 4t3.5 1l109 -38l108 40h1q3 0 4.5 -2.5t-0.5 -4.5l-102 -117q-4 -4 -11 -4q-8 0 -12 4z" />
    <glyph glyph-name="ccaron" unicode="&#x10d;" horiz-adv-x="425" 
d="M32 0zM122.5 16.5q-45.5 28.5 -68 74t-22.5 95.5q0 63 35 110.5t89.5 73t111.5 25.5q48 0 86.5 -20t38.5 -55q0 -19 -14.5 -32.5t-40.5 -13.5q-24 0 -38 12.5t-23 38.5q-9 28 -17.5 38.5t-30.5 10.5q-43 0 -68.5 -42.5t-25.5 -112.5q0 -83 37 -132.5t118 -49.5
q27 0 46.5 6t49.5 20h1q3 0 5.5 -3t0.5 -5q-37 -34 -74 -50.5t-85 -16.5q-66 0 -111.5 28.5zM172 730q5 1 7 -1l69 -109l68 109q2 2 6.5 1t3.5 -4l-67 -249q-2 -5 -11 -5t-12 5l-68 249q-1 3 4 4z" />
    <glyph glyph-name="Dcaron" unicode="&#x10e;" horiz-adv-x="705" 
d="M28 0zM250 -1q-16 1 -39.5 2t-52.5 1l-74 -1q-20 -1 -54 -1q-2 0 -2 6t2 6q32 0 47 5t20.5 19.5t5.5 44.5v463q0 30 -5.5 44t-20 19.5t-45.5 5.5q-3 0 -3 6t3 6l53 -1q46 -2 73 -2q41 0 84 3q52 2 70 2q101 0 179.5 -40t121.5 -109t43 -155q0 -97 -44.5 -171.5t-120 -115
t-165.5 -40.5q-32 0 -76 3zM429 51.5q49 32.5 76.5 96.5t27.5 153q0 85 -26 154.5t-74 109.5t-111 40q-62 0 -85 -12t-23 -51v-450q0 -40 21 -56.5t81 -16.5q64 0 113 32.5zM208 802v2q0 2 2.5 4t3.5 1l109 -38l108 40h1q3 0 4.5 -2.5t-0.5 -4.5l-102 -117q-4 -4 -11 -4
q-8 0 -12 4z" />
    <glyph glyph-name="dcaron" unicode="&#x10f;" horiz-adv-x="510" 
d="M32 0zM503 65q3 0 5.5 -5t0.5 -6l-138 -67l-5 -1q-9 0 -16.5 19t-9.5 52q-74 -70 -151 -70q-44 0 -79.5 23t-56.5 67.5t-21 104.5q0 76 35.5 124.5t88 70.5t105.5 22q37 0 78 -12v202q0 35 -6.5 50t-22.5 15q-13 0 -37 -11h-1q-4 0 -6.5 5.5t-0.5 6.5l147 69l4 1
q5 0 11 -4.5t6 -8.5v-596q0 -34 6.5 -48t21.5 -14q13 0 41 11h1zM339 77v5v243q-18 25 -40.5 36.5t-52.5 11.5q-54 0 -82.5 -37.5t-28.5 -121.5t30 -131.5t79 -47.5q50 0 95 42zM503 720.5q21 -6.5 40 -17t17 -18.5l-59 -236q-1 -2 -6 -1.5t-5 2.5l-8 272q0 5 21 -1.5z" />
    <glyph glyph-name="Dcroat" unicode="&#x110;" horiz-adv-x="705" 
d="M28 0zM491.5 587q78.5 -40 121.5 -109t43 -155q0 -97 -44.5 -171.5t-120 -115t-165.5 -40.5q-32 0 -76 3q-16 1 -39.5 2t-52.5 1l-74 -1q-20 -1 -54 -1q-2 0 -2 6t2 6q32 0 47 5t20.5 19.5t5.5 44.5v216h-50q-4 0 -4 14t4 14h50v219q0 30 -5.5 44t-20 19.5t-45.5 5.5
q-3 0 -3 6t3 6l53 -1q46 -2 73 -2q41 0 84 3q52 2 70 2q101 0 179.5 -40zM429 51.5q49 32.5 76.5 96.5t27.5 153q0 85 -26 154.5t-74 109.5t-111 40q-62 0 -85 -12t-23 -51v-217h136q2 0 3.5 -4.5t1.5 -9.5t-1.5 -9.5t-3.5 -4.5h-136v-205q0 -40 21 -56.5t81 -16.5
q64 0 113 32.5z" />
    <glyph glyph-name="dcroat" unicode="&#x111;" horiz-adv-x="511" 
d="M503 65q3 0 5.5 -5t0.5 -6l-138 -67l-5 -1q-9 0 -16.5 19t-9.5 52q-74 -70 -151 -70q-44 0 -79.5 23t-56.5 67.5t-21 104.5q0 76 35.5 124.5t88 70.5t105.5 22q37 0 78 -12v117h-158q-7 0 -7 14t7 14h158v57q0 35 -6.5 50t-22.5 15q-13 0 -37 -11h-1q-4 0 -6.5 5.5
t-0.5 6.5l147 69l4 1q5 0 11 -4.5t6 -8.5v-180h58q4 0 6.5 -4t2.5 -10t-2.5 -10t-6.5 -4h-58v-388q0 -34 6.5 -48t21.5 -14q13 0 41 11h1zM339 77v5v243q-18 25 -40.5 36.5t-52.5 11.5q-54 0 -82.5 -37.5t-28.5 -121.5t30 -131.5t79 -47.5q50 0 95 42z" />
    <glyph glyph-name="Emacron" unicode="&#x112;" horiz-adv-x="552" 
d="M38 0zM500 161q3 0 5.5 -1.5t2.5 -2.5q-10 -78 -10 -142q0 -8 -3 -11.5t-12 -3.5h-442q-3 0 -3 6t3 6q32 0 46.5 5t19.5 19.5t5 44.5v463q0 30 -5 44t-20 19.5t-46 5.5q-3 0 -3 6t3 6h424q10 0 10 -9l2 -133q0 -2 -5.5 -3t-6.5 2q-16 58 -54 86t-100 28h-30
q-30 0 -44 -13t-14 -40v-204h83q58 0 89 20t31 56q0 3 5.5 3t5.5 -3l-1 -90l1 -48q2 -34 2 -54q0 -2 -6 -2t-6 2q0 41 -31.5 64.5t-90.5 23.5h-82v-226q0 -29 11 -43t35 -14h33q78 0 125 32t69 99q0 2 4 2zM165 718.5q-3 5.5 -3 13.5q0 7 3 12.5t7 5.5h251q5 0 8 -5.5
t3 -12.5q0 -8 -3 -13.5t-8 -5.5h-251q-4 0 -7 5.5z" />
    <glyph glyph-name="emacron" unicode="&#x113;" horiz-adv-x="418" 
d="M32 0zM388 66q2 0 4.5 -4t0.5 -6q-37 -36 -75 -52t-83 -16q-63 0 -109 26.5t-70 71t-24 95.5q0 58 30 107.5t82 78t116 28.5q62 0 95 -26.5t33 -72.5q0 -29 -11 -29h-61l-180 -2q-3 -19 -3 -42q0 -86 40.5 -136t111.5 -50q25 0 52 7t49 21zM171 351q-22 -24 -32 -66
l142 3q-3 87 -58 87q-30 0 -52 -24zM102 479.5q-3 5.5 -3 13.5q0 7 3 12.5t7 5.5h251q5 0 8 -5.5t3 -12.5q0 -8 -3 -13.5t-8 -5.5h-251q-4 0 -7 5.5z" />
    <glyph glyph-name="Ebreve" unicode="&#x114;" horiz-adv-x="552" 
d="M38 0zM500 161q3 0 5.5 -1.5t2.5 -2.5q-10 -78 -10 -142q0 -8 -3 -11.5t-12 -3.5h-442q-3 0 -3 6t3 6q32 0 46.5 5t19.5 19.5t5 44.5v463q0 30 -5 44t-20 19.5t-46 5.5q-3 0 -3 6t3 6h424q10 0 10 -9l2 -133q0 -2 -5.5 -3t-6.5 2q-16 58 -54 86t-100 28h-30
q-30 0 -44 -13t-14 -40v-204h83q58 0 89 20t31 56q0 3 5.5 3t5.5 -3l-1 -90l1 -48q2 -34 2 -54q0 -2 -6 -2t-6 2q0 41 -31.5 64.5t-90.5 23.5h-82v-226q0 -29 11 -43t35 -14h33q78 0 125 32t69 99q0 2 4 2zM221.5 722.5q-26.5 32.5 -26.5 94.5q0 3 5.5 3t5.5 -2
q0 -18 27 -34t65 -16q37 0 64 16t27 34q0 2 5.5 2t5.5 -3q0 -62 -26 -94.5t-76 -32.5t-76.5 32.5z" />
    <glyph glyph-name="ebreve" unicode="&#x115;" horiz-adv-x="418" 
d="M32 0zM388 66q2 0 4.5 -4t0.5 -6q-37 -36 -75 -52t-83 -16q-63 0 -109 26.5t-70 71t-24 95.5q0 58 30 107.5t82 78t116 28.5q62 0 95 -26.5t33 -72.5q0 -29 -11 -29h-61l-180 -2q-3 -19 -3 -42q0 -86 40.5 -136t111.5 -50q25 0 52 7t49 21zM171 351q-22 -24 -32 -66
l142 3q-3 87 -58 87q-30 0 -52 -24zM137.5 628q5.5 0 5.5 -2q0 -32 26.5 -56t65.5 -24q38 0 64.5 24.5t26.5 55.5q0 2 5.5 2t5.5 -3q0 -79 -26 -120.5t-76 -41.5t-76.5 41.5t-26.5 120.5q0 3 5.5 3z" />
    <glyph glyph-name="Edotaccent" unicode="&#x116;" horiz-adv-x="552" 
d="M38 0zM500 161q3 0 5.5 -1.5t2.5 -2.5q-10 -78 -10 -142q0 -8 -3 -11.5t-12 -3.5h-442q-3 0 -3 6t3 6q32 0 46.5 5t19.5 19.5t5 44.5v463q0 30 -5 44t-20 19.5t-46 5.5q-3 0 -3 6t3 6h424q10 0 10 -9l2 -133q0 -2 -5.5 -3t-6.5 2q-16 58 -54 86t-100 28h-30
q-30 0 -44 -13t-14 -40v-204h83q58 0 89 20t31 56q0 3 5.5 3t5.5 -3l-1 -90l1 -48q2 -34 2 -54q0 -2 -6 -2t-6 2q0 41 -31.5 64.5t-90.5 23.5h-82v-226q0 -29 11 -43t35 -14h33q78 0 125 32t69 99q0 2 4 2zM254 729.5q-16 16.5 -16 44.5q0 26 16.5 42t44.5 16
q27 0 42.5 -15.5t15.5 -42.5q0 -29 -15 -45t-43 -16q-29 0 -45 16.5z" />
    <glyph glyph-name="edotaccent" unicode="&#x117;" horiz-adv-x="418" 
d="M32 0zM388 66q2 0 4.5 -4t0.5 -6q-37 -36 -75 -52t-83 -16q-63 0 -109 26.5t-70 71t-24 95.5q0 58 30 107.5t82 78t116 28.5q62 0 95 -26.5t33 -72.5q0 -29 -11 -29h-61l-180 -2q-3 -19 -3 -42q0 -86 40.5 -136t111.5 -50q25 0 52 7t49 21zM171 351q-22 -24 -32 -66
l142 3q-3 87 -58 87q-30 0 -52 -24zM190 511q-16 16 -16 45q0 26 16.5 41.5t44.5 15.5t43 -15t15 -42q0 -29 -15 -45t-43 -16q-29 0 -45 16z" />
    <glyph glyph-name="Eogonek" unicode="&#x118;" horiz-adv-x="552" 
d="M505 -222q3 0 5.5 -3t-0.5 -5q-55 -45 -112 -45q-51 0 -84.5 32t-33.5 78q0 80 119 165h-358q-3 0 -3 6t3 6q32 0 46.5 5t19.5 19.5t5 44.5v463q0 30 -5 44t-20 19.5t-46 5.5q-3 0 -3 6t3 6h424q10 0 10 -9l2 -133q0 -2 -5.5 -3t-6.5 2q-16 58 -54 86t-100 28h-30
q-30 0 -44 -13t-14 -40v-204h83q58 0 89 20t31 56q0 3 5.5 3t5.5 -3l-1 -90l1 -48q2 -34 2 -54q0 -2 -6 -2t-6 2q0 41 -31.5 64.5t-90.5 23.5h-82v-226q0 -29 11 -43t35 -14h33q78 0 125 32t69 99q0 2 4 2q3 0 5.5 -1.5t2.5 -2.5q-10 -78 -10 -142q0 -8 -3 -11.5t-12 -3.5
h-62q-31 -31 -44.5 -57t-13.5 -60q0 -52 26 -84t71 -32q11 0 24 3.5t19 7.5h2z" />
    <glyph glyph-name="eogonek" unicode="&#x119;" horiz-adv-x="418" 
d="M286.5 -61q-21.5 -42 -21.5 -86q0 -43 18 -66t53 -23q24 0 46 14h2q3 0 5.5 -3t-0.5 -5q-24 -24 -48.5 -34.5t-53.5 -10.5q-55 0 -85.5 26t-30.5 69q0 85 121 175q-25 -7 -57 -7q-63 0 -109 26.5t-70 71t-24 95.5q0 58 30 107.5t82 78t116 28.5q62 0 95 -26.5t33 -72.5
q0 -29 -11 -29h-61l-180 -2q-3 -19 -3 -42q0 -86 40.5 -136t111.5 -50q25 0 52 7t49 21l2 1q2 0 4.5 -4t0.5 -6q-19 -19 -37 -31q-48 -44 -69.5 -86zM171 351q-22 -24 -32 -66l142 3q-3 87 -58 87q-30 0 -52 -24z" />
    <glyph glyph-name="Ecaron" unicode="&#x11a;" horiz-adv-x="552" 
d="M38 0zM500 161q3 0 5.5 -1.5t2.5 -2.5q-10 -78 -10 -142q0 -8 -3 -11.5t-12 -3.5h-442q-3 0 -3 6t3 6q32 0 46.5 5t19.5 19.5t5 44.5v463q0 30 -5 44t-20 19.5t-46 5.5q-3 0 -3 6t3 6h424q10 0 10 -9l2 -133q0 -2 -5.5 -3t-6.5 2q-16 58 -54 86t-100 28h-30
q-30 0 -44 -13t-14 -40v-204h83q58 0 89 20t31 56q0 3 5.5 3t5.5 -3l-1 -90l1 -48q2 -34 2 -54q0 -2 -6 -2t-6 2q0 41 -31.5 64.5t-90.5 23.5h-82v-226q0 -29 11 -43t35 -14h33q78 0 125 32t69 99q0 2 4 2zM183 802v2q0 2 2.5 4t3.5 1l109 -38l108 40h1q3 0 4.5 -2.5
t-0.5 -4.5l-102 -117q-4 -4 -11 -4q-8 0 -12 4z" />
    <glyph glyph-name="ecaron" unicode="&#x11b;" horiz-adv-x="418" 
d="M32 0zM388 66q2 0 4.5 -4t0.5 -6q-37 -36 -75 -52t-83 -16q-63 0 -109 26.5t-70 71t-24 95.5q0 58 30 107.5t82 78t116 28.5q62 0 95 -26.5t33 -72.5q0 -29 -11 -29h-61l-180 -2q-3 -19 -3 -42q0 -86 40.5 -136t111.5 -50q25 0 52 7t49 21zM171 351q-22 -24 -32 -66
l142 3q-3 87 -58 87q-30 0 -52 -24zM159 730q5 1 7 -1l69 -109l68 109q2 2 6.5 1t3.5 -4l-67 -249q-2 -5 -11 -5t-12 5l-68 249q-1 3 4 4z" />
    <glyph glyph-name="Gcircumflex" unicode="&#x11c;" horiz-adv-x="719" 
d="M49 0zM217 30q-82 42 -125 114.5t-43 161.5q0 96 49.5 171.5t136 117t193.5 41.5q47 0 95 -7.5t77 -19.5q9 -3 11.5 -7.5t3.5 -15.5l13 -139q0 -3 -5 -4t-7 3q-35 77 -96.5 120t-140.5 43q-102 0 -155.5 -71t-53.5 -194q0 -99 34 -176.5t94.5 -120t135.5 -42.5q41 0 63 9
t32 35t10 77q0 52 -6 72.5t-25.5 27.5t-67.5 7q-6 0 -6 8q0 3 1.5 5.5t3.5 2.5q85 -5 137 -5q51 0 106 3q2 0 3.5 -2.5t1.5 -4.5q0 -7 -5 -7q-18 1 -25 -6.5t-9 -30t-2 -80.5q0 -45 3.5 -64t3.5 -24q0 -6 -2.5 -8t-9.5 -4q-129 -28 -232 -28q-110 0 -192 42zM383 818
q5 5 12 5q6 0 11 -5l102 -116q1 0 1 -2t-2.5 -4t-3.5 -1l-108 39l-109 -39q-2 -1 -5 2.5t-1 4.5z" />
    <glyph glyph-name="gcircumflex" unicode="&#x11d;" horiz-adv-x="451" 
d="M14 0zM350 24q35 -10 60.5 -34t25.5 -68q0 -54 -34.5 -101t-93 -75t-126.5 -28q-74 0 -121 32t-47 83q0 34 22 70t82 79q-30 9 -46.5 26t-16.5 46q0 25 19.5 51.5t60.5 49.5q-44 15 -68 46t-24 67q0 40 26 68t66 42.5t80 14.5q67 0 111 -33q27 18 53 27t56 9q8 0 8 -28
q0 -14 -4 -31t-7 -14q-42 17 -75 17h-8q26 -31 26 -70q0 -38 -25.5 -66.5t-65.5 -43.5t-82 -15q-27 0 -51 6q-20 -16 -20 -41q0 -22 16.5 -34t40.5 -18t68 -14q59 -10 94 -20zM140 295q0 -52 25 -92t64 -40q19 0 33.5 20t14.5 63q0 54 -28 91t-67 37q-42 0 -42 -79z
M319.5 -219.5q32.5 30.5 32.5 81.5q0 38 -21.5 58.5t-52 29t-83.5 16.5l-54 9q-28 -33 -28 -94q0 -63 34 -97t88 -34q52 0 84.5 30.5zM302 475q0 -2 -4.5 -3t-5.5 2l-68 108l-69 -108q-1 -3 -6.5 -1.5t-4.5 3.5l68 249q1 5 11 5q11 0 12 -5l67 -249v-1z" />
    <glyph glyph-name="Gbreve" unicode="&#x11e;" horiz-adv-x="719" 
d="M49 0zM217 30q-82 42 -125 114.5t-43 161.5q0 96 49.5 171.5t136 117t193.5 41.5q47 0 95 -7.5t77 -19.5q9 -3 11.5 -7.5t3.5 -15.5l13 -139q0 -3 -5 -4t-7 3q-35 77 -96.5 120t-140.5 43q-102 0 -155.5 -71t-53.5 -194q0 -99 34 -176.5t94.5 -120t135.5 -42.5q41 0 63 9
t32 35t10 77q0 52 -6 72.5t-25.5 27.5t-67.5 7q-6 0 -6 8q0 3 1.5 5.5t3.5 2.5q85 -5 137 -5q51 0 106 3q2 0 3.5 -2.5t1.5 -4.5q0 -7 -5 -7q-18 1 -25 -6.5t-9 -30t-2 -80.5q0 -45 3.5 -64t3.5 -24q0 -6 -2.5 -8t-9.5 -4q-129 -28 -232 -28q-110 0 -192 42zM317.5 722.5
q-26.5 32.5 -26.5 94.5q0 3 5.5 3t5.5 -2q0 -18 27 -34t65 -16q37 0 64 16t27 34q0 2 5.5 2t5.5 -3q0 -62 -26 -94.5t-76 -32.5t-76.5 32.5z" />
    <glyph glyph-name="gbreve" unicode="&#x11f;" horiz-adv-x="451" 
d="M14 0zM350 24q35 -10 60.5 -34t25.5 -68q0 -54 -34.5 -101t-93 -75t-126.5 -28q-74 0 -121 32t-47 83q0 34 22 70t82 79q-30 9 -46.5 26t-16.5 46q0 25 19.5 51.5t60.5 49.5q-44 15 -68 46t-24 67q0 40 26 68t66 42.5t80 14.5q67 0 111 -33q27 18 53 27t56 9q8 0 8 -28
q0 -14 -4 -31t-7 -14q-42 17 -75 17h-8q26 -31 26 -70q0 -38 -25.5 -66.5t-65.5 -43.5t-82 -15q-27 0 -51 6q-20 -16 -20 -41q0 -22 16.5 -34t40.5 -18t68 -14q59 -10 94 -20zM140 295q0 -52 25 -92t64 -40q19 0 33.5 20t14.5 63q0 54 -28 91t-67 37q-42 0 -42 -79z
M319.5 -219.5q32.5 30.5 32.5 81.5q0 38 -21.5 58.5t-52 29t-83.5 16.5l-54 9q-28 -33 -28 -94q0 -63 34 -97t88 -34q52 0 84.5 30.5zM125.5 628q5.5 0 5.5 -2q0 -32 26.5 -56t65.5 -24q38 0 64.5 24.5t26.5 55.5q0 2 5.5 2t5.5 -3q0 -79 -26 -120.5t-76 -41.5t-76.5 41.5
t-26.5 120.5q0 3 5.5 3z" />
    <glyph glyph-name="Gdotaccent" unicode="&#x120;" horiz-adv-x="719" 
d="M49 0zM217 30q-82 42 -125 114.5t-43 161.5q0 96 49.5 171.5t136 117t193.5 41.5q47 0 95 -7.5t77 -19.5q9 -3 11.5 -7.5t3.5 -15.5l13 -139q0 -3 -5 -4t-7 3q-35 77 -96.5 120t-140.5 43q-102 0 -155.5 -71t-53.5 -194q0 -99 34 -176.5t94.5 -120t135.5 -42.5q41 0 63 9
t32 35t10 77q0 52 -6 72.5t-25.5 27.5t-67.5 7q-6 0 -6 8q0 3 1.5 5.5t3.5 2.5q85 -5 137 -5q51 0 106 3q2 0 3.5 -2.5t1.5 -4.5q0 -7 -5 -7q-18 1 -25 -6.5t-9 -30t-2 -80.5q0 -45 3.5 -64t3.5 -24q0 -6 -2.5 -8t-9.5 -4q-129 -28 -232 -28q-110 0 -192 42zM350 729.5
q-16 16.5 -16 44.5q0 26 16.5 42t44.5 16q27 0 42.5 -15.5t15.5 -42.5q0 -29 -15 -45t-43 -16q-29 0 -45 16.5z" />
    <glyph glyph-name="gdotaccent" unicode="&#x121;" horiz-adv-x="451" 
d="M14 0zM350 24q35 -10 60.5 -34t25.5 -68q0 -54 -34.5 -101t-93 -75t-126.5 -28q-74 0 -121 32t-47 83q0 34 22 70t82 79q-30 9 -46.5 26t-16.5 46q0 25 19.5 51.5t60.5 49.5q-44 15 -68 46t-24 67q0 40 26 68t66 42.5t80 14.5q67 0 111 -33q27 18 53 27t56 9q8 0 8 -28
q0 -14 -4 -31t-7 -14q-42 17 -75 17h-8q26 -31 26 -70q0 -38 -25.5 -66.5t-65.5 -43.5t-82 -15q-27 0 -51 6q-20 -16 -20 -41q0 -22 16.5 -34t40.5 -18t68 -14q59 -10 94 -20zM140 295q0 -52 25 -92t64 -40q19 0 33.5 20t14.5 63q0 54 -28 91t-67 37q-42 0 -42 -79z
M319.5 -219.5q32.5 30.5 32.5 81.5q0 38 -21.5 58.5t-52 29t-83.5 16.5l-54 9q-28 -33 -28 -94q0 -63 34 -97t88 -34q52 0 84.5 30.5zM178 511q-16 16 -16 45q0 26 16.5 41.5t44.5 15.5t43 -15t15 -42q0 -29 -15 -45t-43 -16q-29 0 -45 16z" />
    <glyph glyph-name="Gcommaaccent" unicode="&#x122;" horiz-adv-x="719" 
d="M49 0zM217 30q-82 42 -125 114.5t-43 161.5q0 96 49.5 171.5t136 117t193.5 41.5q47 0 95 -7.5t77 -19.5q9 -3 11.5 -7.5t3.5 -15.5l13 -139q0 -3 -5 -4t-7 3q-35 77 -96.5 120t-140.5 43q-102 0 -155.5 -71t-53.5 -194q0 -99 34 -176.5t94.5 -120t135.5 -42.5q41 0 63 9
t32 35t10 77q0 52 -6 72.5t-25.5 27.5t-67.5 7q-6 0 -6 8q0 3 1.5 5.5t3.5 2.5q85 -5 137 -5q51 0 106 3q2 0 3.5 -2.5t1.5 -4.5q0 -7 -5 -7q-18 1 -25 -6.5t-9 -30t-2 -80.5q0 -45 3.5 -64t3.5 -24q0 -6 -2.5 -8t-9.5 -4q-129 -28 -232 -28q-110 0 -192 42zM465 -91
q18 -22 18 -59q0 -39 -20 -69t-56 -56l-2 -1q-4 0 -6 4.5t1 6.5q22 16 35 32.5t13 34.5q0 23 -10 33q-10 -19 -41 -19q-21 0 -35 16t-14 41q0 27 19 42.5t46 15.5q34 0 52 -22z" />
    <glyph glyph-name="gcommaaccent" unicode="&#x123;" horiz-adv-x="451" 
d="M171 500q-18 22 -18 59q0 39 20 69t56 56l2 1q4 0 6 -4.5t-1 -6.5q-22 -16 -35 -32.5t-13 -34.5q0 -23 10 -33q10 19 41 19q21 0 35 -16t14 -41q0 -27 -19 -42.5t-46 -15.5q-34 0 -52 22zM350 24q35 -10 60.5 -34t25.5 -68q0 -54 -34.5 -101t-93 -75t-126.5 -28
q-74 0 -121 32t-47 83q0 34 22 70t82 79q-30 9 -46.5 26t-16.5 46q0 25 19.5 51.5t60.5 49.5q-44 15 -68 46t-24 67q0 40 26 68t66 42.5t80 14.5q67 0 111 -33q27 18 53 27t56 9q8 0 8 -28q0 -14 -4 -31t-7 -14q-42 17 -75 17h-8q26 -31 26 -70q0 -38 -25.5 -66.5
t-65.5 -43.5t-82 -15q-27 0 -51 6q-20 -16 -20 -41q0 -22 16.5 -34t40.5 -18t68 -14q59 -10 94 -20zM140 295q0 -52 25 -92t64 -40q19 0 33.5 20t14.5 63q0 54 -28 91t-67 37q-42 0 -42 -79zM319.5 -219.5q32.5 30.5 32.5 81.5q0 38 -21.5 58.5t-52 29t-83.5 16.5l-54 9
q-28 -33 -28 -94q0 -63 34 -97t88 -34q52 0 84.5 30.5z" />
    <glyph glyph-name="Hcircumflex" unicode="&#x124;" horiz-adv-x="764" 
d="M28 0zM735 6q0 -6 -3 -6q-35 0 -56 1l-77 1l-90 -1q-18 -1 -49 -1q-3 0 -3 6t3 6q37 0 54 5t23 19t6 45v230h-323v-230q0 -30 6 -44.5t23 -19.5t54 -5q2 0 2 -6t-2 -6q-35 0 -56 1l-87 1l-75 -1q-20 -1 -55 -1q-2 0 -2 6t2 6q35 0 51 5t22 19.5t6 44.5v463q0 30 -6 44
t-21.5 19.5t-49.5 5.5q-3 0 -3 6t3 6l54 -1q46 -2 74 -2q38 0 88 2l55 1q2 0 2 -6t-2 -6q-36 0 -53 -6t-23.5 -20.5t-6.5 -44.5v-203h323v203q0 30 -6 44.5t-23 20.5t-54 6q-3 0 -3 6t3 6l49 -1q50 -2 90 -2q27 0 77 2l56 1q3 0 3 -6t-3 -6q-34 0 -50.5 -5.5t-22 -19.5
t-5.5 -44v-463q0 -30 5.5 -44.5t21.5 -19.5t51 -5q3 0 3 -6zM374 818q5 5 12 5q6 0 11 -5l102 -116q1 0 1 -2t-2.5 -4t-3.5 -1l-108 39l-109 -39q-2 -1 -5 2.5t-1 4.5z" />
    <glyph glyph-name="hcircumflex" unicode="&#x125;" horiz-adv-x="509" 
d="M0 0zM495 6q0 -6 -4 -6q-26 0 -42 1l-58 1l-60 -1q-15 -1 -41 -1q-2 0 -2 6t2 6q31 0 42.5 14.5t11.5 54.5v144q0 54 -20 80t-62 26q-24 0 -49.5 -10t-44.5 -27v-213q0 -40 11.5 -54.5t42.5 -14.5q4 0 4 -6t-4 -6q-26 0 -42 1l-58 1l-60 -1q-15 -1 -41 -1q-2 0 -2 6t2 6
q31 0 42.5 14.5t11.5 54.5v508q0 35 -6.5 50t-22.5 15q-14 0 -38 -11h-1q-3 0 -5.5 5.5t-0.5 6.5l146 69l5 1q5 0 10.5 -4.5t5.5 -8.5v-396q71 82 152 82q54 0 85.5 -34.5t31.5 -90.5v-192q0 -40 11.5 -54.5t42.5 -14.5q4 0 4 -6zM119 853q5 5 12 5q6 0 11 -5l102 -116
q1 0 1 -2t-2.5 -4t-3.5 -1l-108 39l-109 -39q-2 -1 -5 2.5t-1 4.5z" />
    <glyph glyph-name="Hbar" unicode="&#x126;" horiz-adv-x="764" 
d="M735 6q0 -6 -3 -6q-35 0 -56 1l-77 1l-90 -1q-18 -1 -49 -1q-3 0 -3 6t3 6q37 0 54 5t23 19t6 45v137h-323v-137q0 -30 6 -44.5t23 -19.5t54 -5q2 0 2 -6t-2 -6q-35 0 -56 1l-87 1l-75 -1q-20 -1 -55 -1q-2 0 -2 6t2 6q35 0 51 5t22 19.5t6 44.5v463q0 30 -6 44
t-21.5 19.5t-49.5 5.5q-3 0 -3 6t3 6l54 -1q46 -2 74 -2q38 0 88 2l55 1q2 0 2 -6t-2 -6q-36 0 -53 -6t-23.5 -20.5t-6.5 -44.5v-109h323v109q0 30 -6 44.5t-23 20.5t-54 6q-3 0 -3 6t3 6l49 -1q50 -2 90 -2q27 0 77 2l56 1q3 0 3 -6t-3 -6q-34 0 -50.5 -5.5t-22 -19.5
t-5.5 -44v-463q0 -30 5.5 -44.5t21.5 -19.5t51 -5q3 0 3 -6zM220 246h323v159h-323v-159z" />
    <glyph glyph-name="hbar" unicode="&#x127;" horiz-adv-x="509" 
d="M495 6q0 -6 -4 -6q-26 0 -42 1l-58 1l-60 -1q-15 -1 -41 -1q-2 0 -2 6t2 6q31 0 42.5 14.5t11.5 54.5v144q0 54 -20 80t-62 26q-24 0 -49.5 -10t-44.5 -27v-213q0 -40 11.5 -54.5t42.5 -14.5q4 0 4 -6t-4 -6q-26 0 -42 1l-58 1l-60 -1q-15 -1 -41 -1q-2 0 -2 6t2 6
q31 0 42.5 14.5t11.5 54.5v423h-69q-4 0 -6 4t-2 10t2 10t6 4h69v57q0 35 -6.5 50t-22.5 15q-14 0 -38 -11h-1q-3 0 -5.5 5.5t-0.5 6.5l146 69l5 1q5 0 10.5 -4.5t5.5 -8.5v-180h148q8 0 8 -14t-8 -14h-148v-188q71 82 152 82q54 0 85.5 -34.5t31.5 -90.5v-192
q0 -40 11.5 -54.5t42.5 -14.5q4 0 4 -6z" />
    <glyph glyph-name="Itilde" unicode="&#x128;" horiz-adv-x="342" 
d="M39 0zM232 36q5 -14 19.5 -19t46.5 -5q3 0 3 -6t-3 -6q-33 0 -52 1l-76 1l-74 -1q-20 -1 -54 -1q-2 0 -2 6t2 6q32 0 47 5t20.5 19.5t5.5 44.5v463q0 30 -5.5 44t-20.5 19.5t-47 5.5q-2 0 -2 6t2 6l54 -1q46 -2 74 -2q31 0 77 2l51 1q3 0 3 -6t-3 -6q-31 0 -46 -6
t-20 -20.5t-5 -44.5v-461q0 -31 5 -45zM46 697q-2 0 -4.5 2.5t-1.5 4.5q43 81 88 81q10 0 26 -4.5t21 -5.5q46 -14 73 -14q17 0 27.5 5.5t24.5 21.5h1q3 0 5 -2.5t1 -4.5q-27 -49 -44 -65t-39 -16q-20 0 -57 11q-17 5 -35 9t-34 4q-19 0 -27 -5t-24 -22h-1z" />
    <glyph glyph-name="itilde" unicode="&#x129;" horiz-adv-x="263" 
d="M16 0zM36 6q0 6 3 6q31 0 42 14.5t11 54.5v179q0 34 -7 49t-23 15q-13 0 -37 -11h-1q-4 0 -6 5.5t1 6.5l151 70l3 1q5 0 10 -5t5 -9v-22q-2 -40 -2 -98v-181q0 -40 11.5 -54.5t42.5 -14.5q3 0 3 -6t-3 -6q-26 0 -41 1l-60 1l-59 -1q-15 -1 -41 -1q-3 0 -3 6zM216.5 540
q10.5 7 21.5 20l2 1q2 0 4 -3t1 -5q-26 -47 -43 -63.5t-35 -16.5q-12 0 -24.5 5t-15.5 6q-26 13 -45 13q-16 0 -25.5 -5.5t-16 -12.5t-8.5 -9h-1q-2 0 -4.5 2.5t-1.5 4.5q47 81 85 81q11 0 33 -11q28 -14 46 -14q17 0 27.5 7z" />
    <glyph glyph-name="Imacron" unicode="&#x12a;" horiz-adv-x="342" 
d="M35 0zM232 36q5 -14 19.5 -19t46.5 -5q3 0 3 -6t-3 -6q-33 0 -52 1l-76 1l-74 -1q-20 -1 -54 -1q-2 0 -2 6t2 6q32 0 47 5t20.5 19.5t5.5 44.5v463q0 30 -5.5 44t-20.5 19.5t-47 5.5q-2 0 -2 6t2 6l54 -1q46 -2 74 -2q31 0 77 2l51 1q3 0 3 -6t-3 -6q-31 0 -46 -6
t-20 -20.5t-5 -44.5v-461q0 -31 5 -45zM38 718.5q-3 5.5 -3 13.5q0 7 3 12.5t7 5.5h251q5 0 8 -5.5t3 -12.5q0 -8 -3 -13.5t-8 -5.5h-251q-4 0 -7 5.5z" />
    <glyph glyph-name="imacron" unicode="&#x12b;" horiz-adv-x="263" 
d="M0 0zM36 6q0 6 3 6q31 0 42 14.5t11 54.5v179q0 34 -7 49t-23 15q-13 0 -37 -11h-1q-4 0 -6 5.5t1 6.5l151 70l3 1q5 0 10 -5t5 -9v-22q-2 -40 -2 -98v-181q0 -40 11.5 -54.5t42.5 -14.5q3 0 3 -6t-3 -6q-26 0 -41 1l-60 1l-59 -1q-15 -1 -41 -1q-3 0 -3 6zM2 479.5
q-3 5.5 -3 13.5q0 7 3 12.5t7 5.5h251q5 0 8 -5.5t3 -12.5q0 -8 -3 -13.5t-8 -5.5h-251q-4 0 -7 5.5z" />
    <glyph glyph-name="Ibreve" unicode="&#x12c;" horiz-adv-x="342" 
d="M40 0zM232 36q5 -14 19.5 -19t46.5 -5q3 0 3 -6t-3 -6q-33 0 -52 1l-76 1l-74 -1q-20 -1 -54 -1q-2 0 -2 6t2 6q32 0 47 5t20.5 19.5t5.5 44.5v463q0 30 -5.5 44t-20.5 19.5t-47 5.5q-2 0 -2 6t2 6l54 -1q46 -2 74 -2q31 0 77 2l51 1q3 0 3 -6t-3 -6q-31 0 -46 -6
t-20 -20.5t-5 -44.5v-461q0 -31 5 -45zM94.5 722.5q-26.5 32.5 -26.5 94.5q0 3 5.5 3t5.5 -2q0 -18 27 -34t65 -16q37 0 64 16t27 34q0 2 5.5 2t5.5 -3q0 -62 -26 -94.5t-76 -32.5t-76.5 32.5z" />
    <glyph glyph-name="ibreve" unicode="&#x12d;" horiz-adv-x="263" 
d="M16 0zM36 6q0 6 3 6q31 0 42 14.5t11 54.5v179q0 34 -7 49t-23 15q-13 0 -37 -11h-1q-4 0 -6 5.5t1 6.5l151 70l3 1q5 0 10 -5t5 -9v-22q-2 -40 -2 -98v-181q0 -40 11.5 -54.5t42.5 -14.5q3 0 3 -6t-3 -6q-26 0 -41 1l-60 1l-59 -1q-15 -1 -41 -1q-3 0 -3 6zM37.5 628
q5.5 0 5.5 -2q0 -32 26.5 -56t65.5 -24q38 0 64.5 24.5t26.5 55.5q0 2 5.5 2t5.5 -3q0 -79 -26 -120.5t-76 -41.5t-76.5 41.5t-26.5 120.5q0 3 5.5 3z" />
    <glyph glyph-name="Iogonek" unicode="&#x12e;" horiz-adv-x="342" 
d="M301 6q0 -6 -3 -6q-32 0 -49 1l-71 1q-19 -42 -19 -93q0 -37 11.5 -68.5t31.5 -50.5t43 -19q19 0 31 7h2q3 0 5.5 -3t-0.5 -5q-24 -24 -47.5 -34.5t-55.5 -10.5q-49 0 -76.5 28.5t-27.5 78.5q0 83 84 170l-67 -1q-19 -1 -51 -1q-2 0 -2 6t2 6q32 0 47 5t20.5 19.5
t5.5 44.5v463q0 30 -5.5 44t-20.5 19.5t-47 5.5q-2 0 -2 6t2 6l54 -1q46 -2 74 -2q31 0 77 2l51 1q3 0 3 -6t-3 -6q-31 0 -46 -6t-20 -20.5t-5 -44.5v-461q0 -31 5 -45t19.5 -19t46.5 -5q3 0 3 -6z" />
    <glyph glyph-name="iogonek" unicode="&#x12f;" horiz-adv-x="263" 
d="M90 511q-16 16 -16 45q0 26 16.5 41.5t44.5 15.5t43 -15t15 -42q0 -29 -15 -45t-43 -16q-29 0 -45 16zM248 -219q3 0 5.5 -3t-0.5 -5q-24 -24 -47.5 -34.5t-55.5 -10.5q-49 0 -76.5 28.5t-27.5 78.5q0 81 81 167l-52 -1q-14 -1 -36 -1q-3 0 -3 6t3 6q31 0 42 14.5
t11 54.5v179q0 34 -7 49t-23 15q-13 0 -37 -11h-1q-4 0 -6 5.5t1 6.5l151 70l3 1q5 0 10 -5t5 -9v-22q-2 -40 -2 -98v-181q0 -40 11.5 -54.5t42.5 -14.5q3 0 3 -6t-3 -6q-25 0 -39 1l-54 1q-18 -42 -18 -90q0 -37 11.5 -68.5t31.5 -50.5t43 -19q19 0 31 7h2z" />
    <glyph glyph-name="Idotaccent" unicode="&#x130;" horiz-adv-x="342" 
d="M40 0zM232 36q5 -14 19.5 -19t46.5 -5q3 0 3 -6t-3 -6q-33 0 -52 1l-76 1l-74 -1q-20 -1 -54 -1q-2 0 -2 6t2 6q32 0 47 5t20.5 19.5t5.5 44.5v463q0 30 -5.5 44t-20.5 19.5t-47 5.5q-2 0 -2 6t2 6l54 -1q46 -2 74 -2q31 0 77 2l51 1q3 0 3 -6t-3 -6q-31 0 -46 -6
t-20 -20.5t-5 -44.5v-461q0 -31 5 -45zM127 729.5q-16 16.5 -16 44.5q0 26 16.5 42t44.5 16q27 0 42.5 -15.5t15.5 -42.5q0 -29 -15 -45t-43 -16q-29 0 -45 16.5z" />
    <glyph glyph-name="dotlessi" unicode="&#x131;" horiz-adv-x="263" 
d="M36 6q0 6 3 6q31 0 42 14.5t11 54.5v179q0 34 -7 49t-23 15q-13 0 -37 -11h-1q-4 0 -6 5.5t1 6.5l151 70l3 1q5 0 10 -5t5 -9v-22q-2 -40 -2 -98v-181q0 -40 11.5 -54.5t42.5 -14.5q3 0 3 -6t-3 -6q-26 0 -41 1l-60 1l-59 -1q-15 -1 -41 -1q-3 0 -3 6z" />
    <glyph glyph-name="IJ" unicode="&#x132;" horiz-adv-x="699" 
d="M226 305q5 -14 20 -19t48 -5q2 0 2 -6t-2 -6q-34 0 -53 1l-76 1l-73 -1q-20 -1 -55 -1q-2 0 -2 6t2 6q32 0 47 5t20.5 19.5t5.5 44.5v194q0 30 -5.5 44t-20.5 19.5t-47 5.5q-2 0 -2 6t2 6l55 -1q46 -2 73 -2q31 0 77 2l52 1q2 0 2 -6t-2 -6q-32 0 -47 -6t-20.5 -20.5
t-5.5 -44.5v-192q0 -31 5 -45zM673 619q0 -6 -3 -6q-26 0 -38.5 -6t-16.5 -20.5t-4 -44.5v-284q0 -129 -72.5 -200t-193.5 -71q-67 0 -123 20.5t-88.5 53.5t-32.5 69q0 25 16 42t46 17q32 0 44 -18.5t20 -56.5q7 -34 17 -55t34 -36t68 -15q152 0 152 192v344q0 30 -6.5 44
t-23.5 19.5t-54 5.5q-2 0 -2 6t2 6l62 -1q48 -2 77 -2q28 0 70 2l47 1q3 0 3 -6z" />
    <glyph glyph-name="ij" unicode="&#x133;" horiz-adv-x="532" 
d="M16 0zM36 6q0 6 3 6q31 0 42 14.5t11 54.5v179q0 34 -7 49t-23 15q-13 0 -37 -11h-1q-4 0 -6 5.5t1 6.5l151 70l3 1q5 0 10 -5t5 -9v-22q-2 -40 -2 -98v-181q0 -40 11.5 -54.5t42.5 -14.5q3 0 3 -6t-3 -6q-26 0 -41 1l-60 1l-59 -1q-15 -1 -41 -1q-3 0 -3 6zM90 511
q-16 16 -16 45q0 26 16.5 41.5t44.5 15.5t43 -15t15 -42q0 -29 -15 -45t-43 -16q-29 0 -45 16zM457 360q-2 -40 -2 -98v-310q0 -68 -16.5 -111.5t-55 -72.5t-106.5 -50q-2 -1 -4.5 4.5t0.5 6.5q48 21 68 67t20 133v331q0 34 -6.5 49t-22.5 15q-13 0 -37 -11h-1
q-4 0 -6.5 5.5t0.5 6.5l151 70l3 1q5 0 10 -5t5 -9v-22zM357 511q-16 16 -16 45q0 26 16.5 41.5t44.5 15.5t43 -15t15 -42q0 -29 -15 -45t-43 -16q-29 0 -45 16z" />
    <glyph glyph-name="Jcircumflex" unicode="&#x134;" horiz-adv-x="339" 
d="M0 0zM301 619q0 -6 -3 -6q-26 0 -38.5 -6t-16.5 -20.5t-4 -44.5v-546q0 -112 -55.5 -175t-154.5 -63q-38 0 -62 16t-24 44q0 20 13 35.5t39 15.5q25 0 38.5 -15t24.5 -42q6 -16 12 -24.5t15 -8.5q21 0 31 34t10 113v618q0 30 -6.5 44t-23.5 19.5t-54 5.5q-2 0 -2 6t2 6
l62 -1q48 -2 77 -2q28 0 70 2l47 1q3 0 3 -6zM164 818q5 5 12 5q6 0 11 -5l102 -116q1 0 1 -2t-2.5 -4t-3.5 -1l-108 39l-109 -39q-2 -1 -5 2.5t-1 4.5z" />
    <glyph glyph-name="jcircumflex" unicode="&#x135;" horiz-adv-x="263" 
d="M1 0zM188 360q-2 -40 -2 -98v-310q0 -68 -16.5 -111.5t-55 -72.5t-106.5 -50q-2 -1 -4.5 4.5t0.5 6.5q48 21 68 67t20 133v331q0 34 -6.5 49t-22.5 15q-13 0 -37 -11h-1q-4 0 -6.5 5.5t0.5 6.5l151 70l3 1q5 0 10 -5t5 -9v-22zM212 475q0 -2 -4.5 -3t-5.5 2l-68 108
l-69 -108q-1 -3 -6.5 -1.5t-4.5 3.5l68 249q1 5 11 5q11 0 12 -5l67 -249v-1z" />
    <glyph glyph-name="Kcommaaccent" unicode="&#x136;" horiz-adv-x="655" 
d="M28 0zM667 6q0 -6 -3 -6h-112q-16 0 -27 -1t-18 -1q-16 0 -27.5 7.5t-28 27.5t-58.5 77q-5 7 -11.5 15.5t-14.5 19.5l-131 176l-22 -22v-218q0 -31 5 -45t19.5 -19t46.5 -5q4 0 4 -6t-4 -6q-33 0 -52 1l-75 1l-74 -1q-20 -1 -54 -1q-2 0 -2 6t2 6q32 0 47 5t20.5 19.5
t5.5 44.5v463q0 30 -5.5 44t-20 19.5t-45.5 5.5q-3 0 -3 6t3 6l53 -1q46 -2 73 -2q30 0 76 2l51 1q3 0 3 -6t-3 -6q-31 0 -45.5 -6t-20 -20.5t-5.5 -44.5v-212l188 192q29 29 29 53q0 18 -16 28t-45 10q-3 0 -3 6t3 6l47 -1q44 -2 82 -2q41 0 85 2l45 1q3 0 3 -6t-3 -6
q-46 0 -101 -26.5t-100 -70.5l-113 -115l148 -200q65 -93 97.5 -131.5t52.5 -48t51 -9.5q3 0 3 -6zM397 -91q18 -22 18 -59q0 -39 -20 -69t-56 -56l-2 -1q-4 0 -6 4.5t1 6.5q22 16 35 32.5t13 34.5q0 23 -10 33q-10 -19 -41 -19q-21 0 -35 16t-14 41q0 27 19 42.5t46 15.5
q34 0 52 -22z" />
    <glyph glyph-name="kcommaaccent" unicode="&#x137;" horiz-adv-x="491" 
d="M0 0zM500 6q0 -6 -3 -6q-26 0 -41 1l-60 1l-77 -1q-17 -1 -46 -1q-3 0 -3 6t3 6q36 0 36 21q0 11 -8 20l-114 146l-19 -17v-101q0 -40 11.5 -54.5t42.5 -14.5q4 0 4 -6t-4 -6q-26 0 -42 1l-58 1l-60 -1q-15 -1 -41 -1q-2 0 -2 6t2 6q31 0 42.5 14.5t11.5 54.5v508
q0 35 -6.5 50t-22.5 15q-14 0 -38 -11h-1q-3 0 -5.5 5.5t-0.5 6.5l146 69l5 1q5 0 10.5 -4.5t5.5 -8.5v-507l93 90q26 24 26 49q0 13 -10 21.5t-28 8.5q-2 0 -2 6t2 6q29 0 45 -1l79 -1l73 1q14 1 39 1q3 0 3 -6t-3 -6q-43 0 -98.5 -21.5t-99.5 -62.5l-36 -33l137 -176
q29 -36 55.5 -52.5t53.5 -16.5q3 0 3 -6zM298 -91q18 -22 18 -59q0 -39 -20 -69t-56 -56l-2 -1q-4 0 -6 4.5t1 6.5q22 16 35 32.5t13 34.5q0 23 -10 33q-10 -19 -41 -19q-21 0 -35 16t-14 41q0 27 19 42.5t46 15.5q34 0 52 -22z" />
    <glyph glyph-name="kgreenlandic" unicode="&#x138;" horiz-adv-x="509" 
d="M517 6q0 -6 -2 -6q-26 0 -41 1l-60 1l-77 -1q-17 -1 -47 -1q-2 0 -2 6t2 6q18 0 27.5 5.5t9.5 15.5t-9 20l-113 146l-19 -17v-101q0 -40 11.5 -54.5t42.5 -14.5q3 0 3 -6t-3 -6q-26 0 -41 1l-60 1l-59 -1q-15 -1 -41 -1q-3 0 -3 6t3 6q31 0 42 14.5t11 54.5v188
q0 31 -7.5 45.5t-23.5 14.5q-17 0 -48 -14h-2q-3 0 -4.5 5t0.5 6l139 68q6 2 7 2q12 0 22.5 -25.5t10.5 -67.5v-97l92 89q26 24 26 49q0 13 -9.5 21.5t-27.5 8.5q-3 0 -3 6t3 6q29 0 45 -1l79 -1l73 1q14 1 39 1q2 0 2 -6t-2 -6q-43 0 -98.5 -22t-100.5 -62l-36 -33
l138 -176q28 -36 54.5 -52.5t54.5 -16.5q2 0 2 -6z" />
    <glyph glyph-name="Lacute" unicode="&#x139;" horiz-adv-x="545" 
d="M28 0zM213 85q0 -26 4 -37.5t15.5 -15.5t37.5 -4h34q78 0 135 41.5t76 112.5q0 2 4 2q2 0 4.5 -1.5t2.5 -2.5q-9 -99 -9 -165q0 -8 -3.5 -11.5t-11.5 -3.5h-472q-2 0 -2 6t2 6q32 0 46.5 5t20 19.5t5.5 44.5v463q0 30 -5.5 44t-20.5 19.5t-46 5.5q-2 0 -2 6t2 6l51 -1
q46 -2 76 -2t76 2l51 1q3 0 3 -6t-3 -6q-31 0 -46 -5.5t-20 -20t-5 -44.5v-458zM64 678q-4 0 -5 4.5t2 6.5q29 21 81 66q30 26 45 38q5 5 35.5 -3.5t54 -20t11.5 -13.5q-62 -15 -113.5 -33.5t-108.5 -43.5z" />
    <glyph glyph-name="lacute" unicode="&#x13a;" horiz-adv-x="268" 
d="M14 0zM33 6q0 6 2 6q31 0 42.5 14.5t11.5 54.5l1 508q0 35 -6.5 50t-22.5 15q-13 0 -38 -11h-1q-3 0 -5.5 5.5t-0.5 6.5l147 69l4 1q5 0 11 -4.5t6 -8.5v-631q0 -40 11 -54.5t42 -14.5q4 0 4 -6t-4 -6q-25 0 -40 1l-61 1l-60 -1q-15 -1 -41 -1q-2 0 -2 6zM32 727
q-4 0 -5 4.5t2 6.5q29 21 81 66q30 26 45 38q5 5 35.5 -3.5t54 -20t11.5 -13.5q-62 -15 -113.5 -33.5t-108.5 -43.5z" />
    <glyph glyph-name="Lcommaaccent" unicode="&#x13b;" horiz-adv-x="545" 
d="M28 0zM213 85q0 -26 4 -37.5t15.5 -15.5t37.5 -4h34q78 0 135 41.5t76 112.5q0 2 4 2q2 0 4.5 -1.5t2.5 -2.5q-9 -99 -9 -165q0 -8 -3.5 -11.5t-11.5 -3.5h-472q-2 0 -2 6t2 6q32 0 46.5 5t20 19.5t5.5 44.5v463q0 30 -5.5 44t-20.5 19.5t-46 5.5q-2 0 -2 6t2 6l51 -1
q46 -2 76 -2t76 2l51 1q3 0 3 -6t-3 -6q-31 0 -46 -5.5t-20 -20t-5 -44.5v-458zM339 -91q18 -22 18 -59q0 -39 -20 -69t-56 -56l-2 -1q-4 0 -6 4.5t1 6.5q22 16 35 32.5t13 34.5q0 23 -10 33q-10 -19 -41 -19q-21 0 -35 16t-14 41q0 27 19 42.5t46 15.5q34 0 52 -22z" />
    <glyph glyph-name="lcommaaccent" unicode="&#x13c;" horiz-adv-x="268" 
d="M14 0zM33 6q0 6 2 6q31 0 42.5 14.5t11.5 54.5l1 508q0 35 -6.5 50t-22.5 15q-13 0 -38 -11h-1q-3 0 -5.5 5.5t-0.5 6.5l147 69l4 1q5 0 11 -4.5t6 -8.5v-631q0 -40 11 -54.5t42 -14.5q4 0 4 -6t-4 -6q-25 0 -40 1l-61 1l-60 -1q-15 -1 -41 -1q-2 0 -2 6zM184 -91
q18 -22 18 -59q0 -39 -20 -69t-56 -56l-2 -1q-4 0 -6 4.5t1 6.5q22 16 35 32.5t13 34.5q0 23 -10 33q-10 -19 -41 -19q-21 0 -35 16t-14 41q0 27 19 42.5t46 15.5q34 0 52 -22z" />
    <glyph glyph-name="Lcaron" unicode="&#x13d;" horiz-adv-x="545" 
d="M28 0zM213 85q0 -26 4 -37.5t15.5 -15.5t37.5 -4h34q78 0 135 41.5t76 112.5q0 2 4 2q2 0 4.5 -1.5t2.5 -2.5q-9 -99 -9 -165q0 -8 -3.5 -11.5t-11.5 -3.5h-472q-2 0 -2 6t2 6q32 0 46.5 5t20 19.5t5.5 44.5v463q0 30 -5.5 44t-20.5 19.5t-46 5.5q-2 0 -2 6t2 6l51 -1
q46 -2 76 -2t76 2l51 1q3 0 3 -6t-3 -6q-31 0 -46 -5.5t-20 -20t-5 -44.5v-458zM374 623.5q21 -6.5 40 -17t17 -18.5l-59 -236q-1 -2 -6 -1.5t-5 2.5l-8 272q0 5 21 -1.5z" />
    <glyph glyph-name="lcaron" unicode="&#x13e;" horiz-adv-x="268" 
d="M14 0zM33 6q0 6 2 6q31 0 42.5 14.5t11.5 54.5l1 508q0 35 -6.5 50t-22.5 15q-13 0 -38 -11h-1q-3 0 -5.5 5.5t-0.5 6.5l147 69l4 1q5 0 11 -4.5t6 -8.5v-631q0 -40 11 -54.5t42 -14.5q4 0 4 -6t-4 -6q-25 0 -40 1l-61 1l-60 -1q-15 -1 -41 -1q-2 0 -2 6zM262 723.5
q21 -6.5 40 -17t17 -18.5l-59 -236q-1 -2 -6 -1.5t-5 2.5l-8 272q0 5 21 -1.5z" />
    <glyph glyph-name="Ldot" unicode="&#x13f;" horiz-adv-x="545" 
d="M28 0zM213 85q0 -26 4 -37.5t15.5 -15.5t37.5 -4h34q78 0 135 41.5t76 112.5q0 2 4 2q2 0 4.5 -1.5t2.5 -2.5q-9 -99 -9 -165q0 -8 -3.5 -11.5t-11.5 -3.5h-472q-2 0 -2 6t2 6q32 0 46.5 5t20 19.5t5.5 44.5v463q0 30 -5.5 44t-20.5 19.5t-46 5.5q-2 0 -2 6t2 6l51 -1
q46 -2 76 -2t76 2l51 1q3 0 3 -6t-3 -6q-31 0 -46 -5.5t-20 -20t-5 -44.5v-458zM383.5 272.5q-16.5 16.5 -16.5 44.5q0 26 16.5 42t44.5 16t43.5 -15.5t15.5 -42.5q0 -29 -15.5 -45t-43.5 -16t-44.5 16.5z" />
    <glyph glyph-name="ldot" unicode="&#x140;" horiz-adv-x="262" 
d="M14 0zM33 6q0 6 2 6q31 0 42.5 14.5t11.5 54.5l1 508q0 35 -6.5 50t-22.5 15q-13 0 -38 -11h-1q-3 0 -5.5 5.5t-0.5 6.5l147 69l4 1q5 0 11 -4.5t6 -8.5v-631q0 -40 11 -54.5t42 -14.5q4 0 4 -6t-4 -6q-25 0 -40 1l-61 1l-60 -1q-15 -1 -41 -1q-2 0 -2 6zM211.5 279.5
q-16.5 16.5 -16.5 44.5q0 26 16.5 42t44.5 16t43.5 -15.5t15.5 -42.5q0 -29 -15.5 -45t-43.5 -16t-44.5 16.5z" />
    <glyph glyph-name="Lslash" unicode="&#x141;" horiz-adv-x="545" 
d="M519 184q2 0 4.5 -1.5t2.5 -2.5q-9 -99 -9 -165q0 -8 -3.5 -11.5t-11.5 -3.5h-472q-2 0 -2 6t2 6q32 0 46.5 5t20 19.5t5.5 44.5v165l-53 -31q-4 -2 -11 10.5t-3 14.5l67 39v265q0 30 -5.5 44t-20.5 19.5t-46 5.5q-2 0 -2 6t2 6l51 -1q46 -2 76 -2t76 2l51 1q3 0 3 -6
t-3 -6q-31 0 -46 -5.5t-20 -20t-5 -44.5v-200l112 64q3 2 10 -10.5t3 -14.5l-125 -72v-225q0 -26 4 -37.5t15.5 -15.5t37.5 -4h34q78 0 135 41.5t76 112.5q0 2 4 2z" />
    <glyph glyph-name="lslash" unicode="&#x142;" horiz-adv-x="271" 
d="M243.5 436q6.5 -7 9.5 -16t-2 -12l-63 -38v-289q0 -40 11 -54.5t42 -14.5q4 0 4 -6t-4 -6q-25 0 -40 1l-61 1l-60 -1q-15 -1 -41 -1q-2 0 -2 6t2 6q31 0 42.5 14.5t11.5 54.5v231l-47 -29q-5 -3 -11 4t-8.5 16.5t0.5 11.5l67 40v234q0 35 -6.5 50t-22.5 15q-13 0 -38 -11
h-1q-3 0 -5.5 5.5t-0.5 6.5l147 69l4 1q5 0 11 -4.5t6 -8.5v-299l45 27q4 3 10.5 -4z" />
    <glyph glyph-name="Nacute" unicode="&#x143;" horiz-adv-x="735" 
d="M20 0zM725 619q0 -6 -2 -6q-40 0 -63 -31.5t-23 -84.5v-512q0 -3 -4.5 -4t-6.5 1l-469 534v-389q0 -53 22 -84t61 -31q2 0 2 -6t-2 -6q-28 0 -43 1l-54 1l-62 -1q-17 -1 -49 -1q-3 0 -3 6t3 6q44 0 69.5 31t25.5 84v423q-33 36 -56.5 49.5t-48.5 13.5q-2 0 -2 6t2 6
l42 -1q13 -1 38 -1l76 1q14 1 34 1q8 0 12 -4t14 -17q17 -23 24 -31l346 -399v323q0 54 -22 85t-61 31q-2 0 -2 6t2 6l43 -1q32 -2 54 -2q20 0 56 2l45 1q2 0 2 -6zM283 678q-4 0 -5 4.5t2 6.5q29 21 81 66q30 26 45 38q5 5 35.5 -3.5t54 -20t11.5 -13.5
q-62 -15 -113.5 -33.5t-108.5 -43.5z" />
    <glyph glyph-name="nacute" unicode="&#x144;" horiz-adv-x="526" 
d="M5 0zM512 6q0 -6 -3 -6q-26 0 -41 1l-60 1l-58 -1q-16 -1 -42 -1q-3 0 -3 6t3 6q31 0 42 14.5t11 54.5v144q0 54 -19.5 80t-61.5 26q-24 0 -49.5 -10t-44.5 -27v-213q0 -40 11.5 -54.5t42.5 -14.5q3 0 3 -6t-3 -6q-26 0 -41 1l-60 1l-59 -1q-15 -1 -41 -1q-3 0 -3 6t3 6
q31 0 42 14.5t11 54.5v188q0 31 -7.5 45.5t-23.5 14.5q-17 0 -48 -14h-2q-3 0 -4.5 5t0.5 6l139 68q6 2 7 2q11 0 21 -21.5t12 -58.5q69 82 152 82q54 0 85.5 -34.5t31.5 -90.5v-192q0 -40 11.5 -54.5t42.5 -14.5q3 0 3 -6zM271 472q-3 0 -5.5 1.5t-1.5 2.5l33 240
q2 4 33 9.5t52 5.5q14 0 13 -4l-120 -253q0 -2 -4 -2z" />
    <glyph glyph-name="Ncommaaccent" unicode="&#x145;" horiz-adv-x="735" 
d="M20 0zM725 619q0 -6 -2 -6q-40 0 -63 -31.5t-23 -84.5v-512q0 -3 -4.5 -4t-6.5 1l-469 534v-389q0 -53 22 -84t61 -31q2 0 2 -6t-2 -6q-28 0 -43 1l-54 1l-62 -1q-17 -1 -49 -1q-3 0 -3 6t3 6q44 0 69.5 31t25.5 84v423q-33 36 -56.5 49.5t-48.5 13.5q-2 0 -2 6t2 6
l42 -1q13 -1 38 -1l76 1q14 1 34 1q8 0 12 -4t14 -17q17 -23 24 -31l346 -399v323q0 54 -22 85t-61 31q-2 0 -2 6t2 6l43 -1q32 -2 54 -2q20 0 56 2l45 1q2 0 2 -6zM421 -91q18 -22 18 -59q0 -39 -20 -69t-56 -56l-2 -1q-4 0 -6 4.5t1 6.5q22 16 35 32.5t13 34.5
q0 23 -10 33q-10 -19 -41 -19q-21 0 -35 16t-14 41q0 27 19 42.5t46 15.5q34 0 52 -22z" />
    <glyph glyph-name="ncommaaccent" unicode="&#x146;" horiz-adv-x="526" 
d="M5 0zM512 6q0 -6 -3 -6q-26 0 -41 1l-60 1l-58 -1q-16 -1 -42 -1q-3 0 -3 6t3 6q31 0 42 14.5t11 54.5v144q0 54 -19.5 80t-61.5 26q-24 0 -49.5 -10t-44.5 -27v-213q0 -40 11.5 -54.5t42.5 -14.5q3 0 3 -6t-3 -6q-26 0 -41 1l-60 1l-59 -1q-15 -1 -41 -1q-3 0 -3 6t3 6
q31 0 42 14.5t11 54.5v188q0 31 -7.5 45.5t-23.5 14.5q-17 0 -48 -14h-2q-3 0 -4.5 5t0.5 6l139 68q6 2 7 2q11 0 21 -21.5t12 -58.5q69 82 152 82q54 0 85.5 -34.5t31.5 -90.5v-192q0 -40 11.5 -54.5t42.5 -14.5q3 0 3 -6zM310 -91q18 -22 18 -59q0 -39 -20 -69t-56 -56
l-2 -1q-4 0 -6 4.5t1 6.5q22 16 35 32.5t13 34.5q0 23 -10 33q-10 -19 -41 -19q-21 0 -35 16t-14 41q0 27 19 42.5t46 15.5q34 0 52 -22z" />
    <glyph glyph-name="Ncaron" unicode="&#x147;" horiz-adv-x="735" 
d="M20 0zM725 619q0 -6 -2 -6q-40 0 -63 -31.5t-23 -84.5v-512q0 -3 -4.5 -4t-6.5 1l-469 534v-389q0 -53 22 -84t61 -31q2 0 2 -6t-2 -6q-28 0 -43 1l-54 1l-62 -1q-17 -1 -49 -1q-3 0 -3 6t3 6q44 0 69.5 31t25.5 84v423q-33 36 -56.5 49.5t-48.5 13.5q-2 0 -2 6t2 6
l42 -1q13 -1 38 -1l76 1q14 1 34 1q8 0 12 -4t14 -17q17 -23 24 -31l346 -399v323q0 54 -22 85t-61 31q-2 0 -2 6t2 6l43 -1q32 -2 54 -2q20 0 56 2l45 1q2 0 2 -6zM267 802v2q0 2 2.5 4t3.5 1l109 -38l108 40h1q3 0 4.5 -2.5t-0.5 -4.5l-102 -117q-4 -4 -11 -4q-8 0 -12 4z
" />
    <glyph glyph-name="ncaron" unicode="&#x148;" horiz-adv-x="526" 
d="M5 0zM512 6q0 -6 -3 -6q-26 0 -41 1l-60 1l-58 -1q-16 -1 -42 -1q-3 0 -3 6t3 6q31 0 42 14.5t11 54.5v144q0 54 -19.5 80t-61.5 26q-24 0 -49.5 -10t-44.5 -27v-213q0 -40 11.5 -54.5t42.5 -14.5q3 0 3 -6t-3 -6q-26 0 -41 1l-60 1l-59 -1q-15 -1 -41 -1q-3 0 -3 6t3 6
q31 0 42 14.5t11 54.5v188q0 31 -7.5 45.5t-23.5 14.5q-17 0 -48 -14h-2q-3 0 -4.5 5t0.5 6l139 68q6 2 7 2q11 0 21 -21.5t12 -58.5q69 82 152 82q54 0 85.5 -34.5t31.5 -90.5v-192q0 -40 11.5 -54.5t42.5 -14.5q3 0 3 -6zM201 730q5 1 7 -1l69 -109l68 109q2 2 6.5 1
t3.5 -4l-67 -249q-2 -5 -11 -5t-12 5l-68 249q-1 3 4 4z" />
    <glyph glyph-name="napostrophe" unicode="&#x149;" horiz-adv-x="526" 
d="M5 0zM132.5 633q19.5 -27 19.5 -77q0 -45 -20 -83.5t-60 -77.5q-1 -1 -3 -1q-3 0 -5 3t0 5q49 50 49 118q0 28 -10 41q-9 -15 -37 -15q-24 0 -38.5 15.5t-14.5 40.5q0 27 17.5 42.5t47.5 15.5q35 0 54.5 -27zM512 6q0 -6 -3 -6q-26 0 -41 1l-60 1l-58 -1q-16 -1 -42 -1
q-3 0 -3 6t3 6q31 0 42 14.5t11 54.5v144q0 54 -19.5 80t-61.5 26q-24 0 -49.5 -10t-44.5 -27v-213q0 -40 11.5 -54.5t42.5 -14.5q3 0 3 -6t-3 -6q-26 0 -41 1l-60 1l-59 -1q-15 -1 -41 -1q-3 0 -3 6t3 6q31 0 42 14.5t11 54.5v188q0 31 -7.5 45.5t-23.5 14.5q-17 0 -48 -14
h-2q-3 0 -4.5 5t0.5 6l139 68q6 2 7 2q11 0 21 -21.5t12 -58.5q69 82 152 82q54 0 85.5 -34.5t31.5 -90.5v-192q0 -40 11.5 -54.5t42.5 -14.5q3 0 3 -6z" />
    <glyph glyph-name="Eng" unicode="&#x14a;" horiz-adv-x="735" 
d="M725 619q0 -6 -2 -6q-40 0 -63 -31.5t-23 -84.5v-512q0 -81 -36 -128.5t-97 -47.5q-47 0 -76 18t-29 47q0 22 14.5 37.5t37.5 15.5q29 0 38.5 -14t12.5 -39q2 -19 7 -28.5t21 -9.5q36 0 57 40.5t21 107.5v18l-451 514v-389q0 -53 22 -84t61 -31q2 0 2 -6t-2 -6
q-28 0 -43 1l-54 1l-62 -1q-17 -1 -49 -1q-3 0 -3 6t3 6q44 0 69.5 31t25.5 84v423q-33 36 -56.5 49.5t-48.5 13.5q-2 0 -2 6t2 6l42 -1q13 -1 38 -1l76 1q14 1 34 1q8 0 12 -4t14 -17q17 -23 24 -31l346 -399v323q0 54 -22 85t-61 31q-2 0 -2 6t2 6l43 -1q32 -2 54 -2
q20 0 56 2l45 1q2 0 2 -6z" />
    <glyph glyph-name="eng" unicode="&#x14b;" horiz-adv-x="509" 
d="M423.5 363.5q31.5 -34.5 31.5 -90.5v-321q0 -68 -16.5 -111.5t-55 -72.5t-106.5 -50q-2 -1 -4.5 4.5t0.5 6.5q48 21 68 67t20 133v296q0 54 -19.5 80t-61.5 26q-24 0 -49.5 -10t-44.5 -27v-213q0 -40 11.5 -54.5t42.5 -14.5q3 0 3 -6t-3 -6q-26 0 -41 1l-60 1l-59 -1
q-15 -1 -41 -1q-3 0 -3 6t3 6q31 0 42 14.5t11 54.5v188q0 31 -7.5 45.5t-23.5 14.5q-17 0 -48 -14h-2q-3 0 -4.5 5t0.5 6l139 68q6 2 7 2q11 0 21 -21.5t12 -58.5q69 82 152 82q54 0 85.5 -34.5z" />
    <glyph glyph-name="Omacron" unicode="&#x14c;" horiz-adv-x="766" 
d="M49 0zM200.5 31.5q-72.5 43.5 -112 118t-39.5 162.5q0 103 52 176.5t133.5 110.5t166.5 37q95 0 167 -44.5t110.5 -117.5t38.5 -155q0 -91 -48 -167t-128.5 -120t-174.5 -44q-93 0 -165.5 43.5zM499.5 45.5q44.5 32.5 69.5 95t25 149.5q0 92 -28 164.5t-81 113.5t-124 41
q-91 0 -140 -68.5t-49 -191.5q0 -97 29.5 -173.5t81 -119.5t116.5 -43q56 0 100.5 32.5zM255 718.5q-3 5.5 -3 13.5q0 7 3 12.5t7 5.5h251q5 0 8 -5.5t3 -12.5q0 -8 -3 -13.5t-8 -5.5h-251q-4 0 -7 5.5z" />
    <glyph glyph-name="omacron" unicode="&#x14d;" horiz-adv-x="489" 
d="M32 0zM128.5 15.5q-46.5 28.5 -71.5 77t-25 105.5q0 65 33 110.5t84 68t105 22.5q62 0 108 -29t70.5 -76.5t24.5 -101.5q0 -60 -30 -106.5t-80.5 -72.5t-109.5 -26q-62 0 -108.5 28.5zM326.5 46.5q20.5 38.5 20.5 110.5q0 70 -18 120t-47 75.5t-62 25.5q-80 0 -80 -143
q0 -67 17 -118.5t46 -80t64 -28.5q39 0 59.5 38.5zM113 479.5q-3 5.5 -3 13.5q0 7 3 12.5t7 5.5h251q5 0 8 -5.5t3 -12.5q0 -8 -3 -13.5t-8 -5.5h-251q-4 0 -7 5.5z" />
    <glyph glyph-name="Obreve" unicode="&#x14e;" horiz-adv-x="766" 
d="M49 0zM200.5 31.5q-72.5 43.5 -112 118t-39.5 162.5q0 103 52 176.5t133.5 110.5t166.5 37q95 0 167 -44.5t110.5 -117.5t38.5 -155q0 -91 -48 -167t-128.5 -120t-174.5 -44q-93 0 -165.5 43.5zM499.5 45.5q44.5 32.5 69.5 95t25 149.5q0 92 -28 164.5t-81 113.5t-124 41
q-91 0 -140 -68.5t-49 -191.5q0 -97 29.5 -173.5t81 -119.5t116.5 -43q56 0 100.5 32.5zM311.5 722.5q-26.5 32.5 -26.5 94.5q0 3 5.5 3t5.5 -2q0 -18 27 -34t65 -16q37 0 64 16t27 34q0 2 5.5 2t5.5 -3q0 -62 -26 -94.5t-76 -32.5t-76.5 32.5z" />
    <glyph glyph-name="obreve" unicode="&#x14f;" horiz-adv-x="489" 
d="M32 0zM128.5 15.5q-46.5 28.5 -71.5 77t-25 105.5q0 65 33 110.5t84 68t105 22.5q62 0 108 -29t70.5 -76.5t24.5 -101.5q0 -60 -30 -106.5t-80.5 -72.5t-109.5 -26q-62 0 -108.5 28.5zM326.5 46.5q20.5 38.5 20.5 110.5q0 70 -18 120t-47 75.5t-62 25.5q-80 0 -80 -143
q0 -67 17 -118.5t46 -80t64 -28.5q39 0 59.5 38.5zM148.5 628q5.5 0 5.5 -2q0 -32 26.5 -56t65.5 -24q38 0 64.5 24.5t26.5 55.5q0 2 5.5 2t5.5 -3q0 -79 -26 -120.5t-76 -41.5t-76.5 41.5t-26.5 120.5q0 3 5.5 3z" />
    <glyph glyph-name="Ohungarumlaut" unicode="&#x150;" horiz-adv-x="766" 
d="M49 0zM200.5 31.5q-72.5 43.5 -112 118t-39.5 162.5q0 103 52 176.5t133.5 110.5t166.5 37q95 0 167 -44.5t110.5 -117.5t38.5 -155q0 -91 -48 -167t-128.5 -120t-174.5 -44q-93 0 -165.5 43.5zM499.5 45.5q44.5 32.5 69.5 95t25 149.5q0 92 -28 164.5t-81 113.5t-124 41
q-91 0 -140 -68.5t-49 -191.5q0 -97 29.5 -173.5t81 -119.5t116.5 -43q56 0 100.5 32.5zM274 667q-4 0 -5.5 4t0.5 7q54 67 90 127q2 3 8 3q12 0 36 -8.5t39 -18t7 -13.5q-91 -41 -172 -100zM426 667q-3 0 -5 4t0 7q37 43 90 127q2 3 8 3q12 0 36 -8.5t39 -18t7 -13.5
q-91 -41 -172 -100z" />
    <glyph glyph-name="ohungarumlaut" unicode="&#x151;" horiz-adv-x="489" 
d="M32 0zM128.5 15.5q-46.5 28.5 -71.5 77t-25 105.5q0 65 33 110.5t84 68t105 22.5q62 0 108 -29t70.5 -76.5t24.5 -101.5q0 -60 -30 -106.5t-80.5 -72.5t-109.5 -26q-62 0 -108.5 28.5zM326.5 46.5q20.5 38.5 20.5 110.5q0 70 -18 120t-47 75.5t-62 25.5q-80 0 -80 -143
q0 -67 17 -118.5t46 -80t64 -28.5q39 0 59.5 38.5zM143 440q-4 0 -5.5 4t0.5 6q45 57 78 114q2 3 9 3q13 0 35 -7t35.5 -15.5t5.5 -12.5q-38 -16 -67.5 -34t-54.5 -35t-33 -22q-1 -1 -3 -1zM284 440q-4 0 -6 4t0 6q39 48 79 114q2 3 9 3q12 0 34 -7t35.5 -15.5t5.5 -12.5
q-38 -16 -67 -33.5t-54 -35t-33 -22.5q-1 -1 -3 -1z" />
    <glyph glyph-name="OE" unicode="&#x152;" horiz-adv-x="932" 
d="M880 161q3 0 5.5 -1.5t2.5 -2.5q-10 -78 -10 -142q0 -8 -3 -11.5t-12 -3.5h-319q-20 0 -64 -2q-42 -2 -64 -2q-108 0 -191.5 40t-129.5 109.5t-46 155.5q0 97 48 171t128.5 114.5t176.5 40.5q50 0 75 -1l77 -1h292q9 0 9 -9l2 -133q0 -2 -5 -3t-6 2q-6 24 -27.5 51
t-52 46t-63.5 19h-42q-30 0 -43.5 -13.5t-13.5 -41.5v-204h83q58 0 88.5 20t30.5 56q0 3 6 3t6 -3l-1 -56q-1 -12 -1 -34l1 -48q2 -34 2 -54q0 -2 -6 -2t-6 2q0 41 -31.5 64.5t-90.5 23.5h-81v-226q0 -57 45 -57h45q37 0 75.5 18t67 48.5t39.5 64.5q0 2 4 2zM492 544
q0 27 -5.5 39.5t-22 17.5t-51.5 5q-71 0 -125.5 -33t-85 -97t-30.5 -153q0 -86 29 -155.5t82.5 -109.5t123.5 -40q38 0 55.5 5t23.5 17.5t6 40.5v463z" />
    <glyph glyph-name="oe" unicode="&#x153;" horiz-adv-x="687" 
d="M665 66q3 0 5 -4t0 -6q-71 -68 -157 -68q-99 0 -151 60q-26 -29 -62.5 -45t-77.5 -16q-59 0 -105 29t-71.5 77t-25.5 105q0 65 33 110.5t84 68t104 22.5q47 0 83 -19t59 -52q31 32 71.5 49.5t87.5 17.5q60 0 93.5 -26.5t33.5 -72.5q0 -15 -2.5 -22t-9.5 -7h-84l-150 -2
q-4 -24 -4 -58q0 -79 37.5 -125t100.5 -46q29 0 57 7t49 22zM301 48q19 43 19 122q0 95 -31 152.5t-81 57.5q-40 0 -62.5 -39.5t-22.5 -113.5q0 -60 16.5 -111t45.5 -81t64 -30q33 0 52 43zM457.5 351.5q-20.5 -23.5 -30.5 -66.5l135 4q-1 41 -15.5 63.5t-38.5 22.5
q-30 0 -50.5 -23.5z" />
    <glyph glyph-name="Racute" unicode="&#x154;" horiz-adv-x="698" 
d="M38 0zM710 6q0 -6 -2 -6h-178q-22 0 -82 82.5t-145 230.5q-8 -1 -23 -1q-39 0 -55 1v-232q0 -31 5 -45t19.5 -19t46.5 -5q2 0 2 -6t-2 -6q-33 0 -52 1l-76 1l-73 -1q-20 -1 -54 -1q-3 0 -3 6t3 6q32 0 46.5 5t20 19.5t5.5 44.5v463q0 30 -5 44t-20 19.5t-46 5.5
q-2 0 -2 6t2 6l53 -1q46 -2 73 -2q29 0 64 3q11 1 28.5 2t41.5 1q92 0 142.5 -33.5t50.5 -93.5q0 -46 -28 -88t-73 -68q80 -126 134.5 -197t97 -103.5t82.5 -32.5q2 0 2 -6zM283 338q36 0 57 11t30.5 38t9.5 76q0 82 -24 113t-69 31q-34 0 -48 -15t-14 -50v-200q24 -4 58 -4
zM158 678q-4 0 -5 4.5t2 6.5q29 21 81 66q30 26 45 38q5 5 35.5 -3.5t54 -20t11.5 -13.5q-62 -15 -113.5 -33.5t-108.5 -43.5z" />
    <glyph glyph-name="racute" unicode="&#x155;" horiz-adv-x="379" 
d="M5 0zM343.5 379.5q21.5 -16.5 21.5 -39.5q0 -21 -13 -34.5t-34 -13.5q-15 0 -24.5 6t-19.5 18q-9 10 -15.5 14.5t-15.5 4.5q-10 0 -21.5 -7.5t-35.5 -31.5v-215q0 -40 19 -54.5t70 -14.5q4 0 4 -6t-4 -6q-35 0 -55 1l-81 1l-59 -1q-15 -1 -41 -1q-3 0 -3 6t3 6
q31 0 42 14.5t11 54.5v188q0 31 -7.5 45.5t-23.5 14.5q-17 0 -48 -14h-2q-3 0 -4.5 5t0.5 6l139 68q6 2 7 2q11 0 20.5 -20.5t11.5 -55.5q41 42 67.5 59t46.5 17q23 0 44.5 -16.5zM196 472q-3 0 -5.5 1.5t-1.5 2.5l33 240q2 4 33 9.5t52 5.5q14 0 13 -4l-120 -253
q0 -2 -4 -2z" />
    <glyph glyph-name="Rcommaaccent" unicode="&#x156;" horiz-adv-x="698" 
d="M38 0zM710 6q0 -6 -2 -6h-178q-22 0 -82 82.5t-145 230.5q-8 -1 -23 -1q-39 0 -55 1v-232q0 -31 5 -45t19.5 -19t46.5 -5q2 0 2 -6t-2 -6q-33 0 -52 1l-76 1l-73 -1q-20 -1 -54 -1q-3 0 -3 6t3 6q32 0 46.5 5t20 19.5t5.5 44.5v463q0 30 -5 44t-20 19.5t-46 5.5
q-2 0 -2 6t2 6l53 -1q46 -2 73 -2q29 0 64 3q11 1 28.5 2t41.5 1q92 0 142.5 -33.5t50.5 -93.5q0 -46 -28 -88t-73 -68q80 -126 134.5 -197t97 -103.5t82.5 -32.5q2 0 2 -6zM283 338q36 0 57 11t30.5 38t9.5 76q0 82 -24 113t-69 31q-34 0 -48 -15t-14 -50v-200q24 -4 58 -4
zM392 -91q18 -22 18 -59q0 -39 -20 -69t-56 -56l-2 -1q-4 0 -6 4.5t1 6.5q22 16 35 32.5t13 34.5q0 23 -10 33q-10 -19 -41 -19q-21 0 -35 16t-14 41q0 27 19 42.5t46 15.5q34 0 52 -22z" />
    <glyph glyph-name="rcommaaccent" unicode="&#x157;" horiz-adv-x="379" 
d="M5 0zM343.5 379.5q21.5 -16.5 21.5 -39.5q0 -21 -13 -34.5t-34 -13.5q-15 0 -24.5 6t-19.5 18q-9 10 -15.5 14.5t-15.5 4.5q-10 0 -21.5 -7.5t-35.5 -31.5v-215q0 -40 19 -54.5t70 -14.5q4 0 4 -6t-4 -6q-35 0 -55 1l-81 1l-59 -1q-15 -1 -41 -1q-3 0 -3 6t3 6
q31 0 42 14.5t11 54.5v188q0 31 -7.5 45.5t-23.5 14.5q-17 0 -48 -14h-2q-3 0 -4.5 5t0.5 6l139 68q6 2 7 2q11 0 20.5 -20.5t11.5 -55.5q41 42 67.5 59t46.5 17q23 0 44.5 -16.5zM200 -91q18 -22 18 -59q0 -39 -20 -69t-56 -56l-2 -1q-4 0 -6 4.5t1 6.5q22 16 35 32.5
t13 34.5q0 23 -10 33q-10 -19 -41 -19q-21 0 -35 16t-14 41q0 27 19 42.5t46 15.5q34 0 52 -22z" />
    <glyph glyph-name="Rcaron" unicode="&#x158;" horiz-adv-x="698" 
d="M38 0zM710 6q0 -6 -2 -6h-178q-22 0 -82 82.5t-145 230.5q-8 -1 -23 -1q-39 0 -55 1v-232q0 -31 5 -45t19.5 -19t46.5 -5q2 0 2 -6t-2 -6q-33 0 -52 1l-76 1l-73 -1q-20 -1 -54 -1q-3 0 -3 6t3 6q32 0 46.5 5t20 19.5t5.5 44.5v463q0 30 -5 44t-20 19.5t-46 5.5
q-2 0 -2 6t2 6l53 -1q46 -2 73 -2q29 0 64 3q11 1 28.5 2t41.5 1q92 0 142.5 -33.5t50.5 -93.5q0 -46 -28 -88t-73 -68q80 -126 134.5 -197t97 -103.5t82.5 -32.5q2 0 2 -6zM283 338q36 0 57 11t30.5 38t9.5 76q0 82 -24 113t-69 31q-34 0 -48 -15t-14 -50v-200q24 -4 58 -4
zM142 802v2q0 2 2.5 4t3.5 1l109 -38l108 40h1q3 0 4.5 -2.5t-0.5 -4.5l-102 -117q-4 -4 -11 -4q-8 0 -12 4z" />
    <glyph glyph-name="rcaron" unicode="&#x159;" horiz-adv-x="379" 
d="M5 0zM343.5 379.5q21.5 -16.5 21.5 -39.5q0 -21 -13 -34.5t-34 -13.5q-15 0 -24.5 6t-19.5 18q-9 10 -15.5 14.5t-15.5 4.5q-10 0 -21.5 -7.5t-35.5 -31.5v-215q0 -40 19 -54.5t70 -14.5q4 0 4 -6t-4 -6q-35 0 -55 1l-81 1l-59 -1q-15 -1 -41 -1q-3 0 -3 6t3 6
q31 0 42 14.5t11 54.5v188q0 31 -7.5 45.5t-23.5 14.5q-17 0 -48 -14h-2q-3 0 -4.5 5t0.5 6l139 68q6 2 7 2q11 0 20.5 -20.5t11.5 -55.5q41 42 67.5 59t46.5 17q23 0 44.5 -16.5zM126 730q5 1 7 -1l69 -109l68 109q2 2 6.5 1t3.5 -4l-67 -249q-2 -5 -11 -5t-12 5l-68 249
q-1 3 4 4z" />
    <glyph glyph-name="Sacute" unicode="&#x15a;" horiz-adv-x="515" 
d="M74 0zM192.5 460q18.5 -28 45.5 -49t73 -51q50 -32 80 -56t51 -58.5t21 -79.5q0 -52 -28 -92.5t-77.5 -63t-110.5 -22.5q-45 0 -94 12.5t-66 27.5q-5 4 -7.5 7.5t-2.5 11.5l-3 159v1q0 4 5 4.5t6 -3.5q30 -61 52.5 -99t57 -67t78.5 -29q40 0 66 21.5t26 73.5
q0 44 -19.5 77t-47.5 56t-77 55q-48 31 -74.5 53t-45.5 53t-19 73q0 53 30.5 89.5t78.5 54t101 17.5q35 0 71 -6.5t58 -15.5q9 -4 12 -8.5t3 -11.5v-147q0 -3 -5 -4.5t-6 1.5l-8 19q-25 63 -58.5 107t-93.5 44q-40 0 -65.5 -23t-25.5 -67q0 -36 18.5 -64zM172 678
q-4 0 -5 4.5t2 6.5q29 21 81 66q30 26 45 38q5 5 35.5 -3.5t54 -20t11.5 -13.5q-62 -15 -113.5 -33.5t-108.5 -43.5z" />
    <glyph glyph-name="sacute" unicode="&#x15b;" horiz-adv-x="337" 
d="M42 0zM138.5 288q20.5 -21 59.5 -44q38 -22 56.5 -34.5t33.5 -35t15 -54.5q0 -34 -17 -64t-51 -48.5t-81 -18.5q-55 0 -104 27q-6 6 -6 12l-2 99q0 3 5.5 3.5t6.5 -1.5q16 -50 53 -85t75 -35q21 0 33.5 13t12.5 38q0 37 -21 58.5t-62 44.5q-35 19 -53 31t-32 34t-14 54
q0 59 42 86.5t103 27.5q23 0 41.5 -3t41.5 -12q9 -3 9 -11q0 -25 -1 -39l-1 -50q0 -3 -6 -3t-6 3q0 19 -16 41.5t-41.5 38.5t-52.5 16q-41 0 -41 -39q0 -29 20.5 -50zM167 472q-3 0 -5.5 1.5t-1.5 2.5l33 240q2 4 33 9.5t52 5.5q14 0 13 -4l-120 -253q0 -2 -4 -2z" />
    <glyph glyph-name="Scircumflex" unicode="&#x15c;" horiz-adv-x="515" 
d="M74 0zM192.5 460q18.5 -28 45.5 -49t73 -51q50 -32 80 -56t51 -58.5t21 -79.5q0 -52 -28 -92.5t-77.5 -63t-110.5 -22.5q-45 0 -94 12.5t-66 27.5q-5 4 -7.5 7.5t-2.5 11.5l-3 159v1q0 4 5 4.5t6 -3.5q30 -61 52.5 -99t57 -67t78.5 -29q40 0 66 21.5t26 73.5
q0 44 -19.5 77t-47.5 56t-77 55q-48 31 -74.5 53t-45.5 53t-19 73q0 53 30.5 89.5t78.5 54t101 17.5q35 0 71 -6.5t58 -15.5q9 -4 12 -8.5t3 -11.5v-147q0 -3 -5 -4.5t-6 1.5l-8 19q-25 63 -58.5 107t-93.5 44q-40 0 -65.5 -23t-25.5 -67q0 -36 18.5 -64zM260 818q5 5 12 5
q6 0 11 -5l102 -116q1 0 1 -2t-2.5 -4t-3.5 -1l-108 39l-109 -39q-2 -1 -5 2.5t-1 4.5z" />
    <glyph glyph-name="scircumflex" unicode="&#x15d;" horiz-adv-x="337" 
d="M42 0zM138.5 288q20.5 -21 59.5 -44q38 -22 56.5 -34.5t33.5 -35t15 -54.5q0 -34 -17 -64t-51 -48.5t-81 -18.5q-55 0 -104 27q-6 6 -6 12l-2 99q0 3 5.5 3.5t6.5 -1.5q16 -50 53 -85t75 -35q21 0 33.5 13t12.5 38q0 37 -21 58.5t-62 44.5q-35 19 -53 31t-32 34t-14 54
q0 59 42 86.5t103 27.5q23 0 41.5 -3t41.5 -12q9 -3 9 -11q0 -25 -1 -39l-1 -50q0 -3 -6 -3t-6 3q0 19 -16 41.5t-41.5 38.5t-52.5 16q-41 0 -41 -39q0 -29 20.5 -50zM252 475q0 -2 -4.5 -3t-5.5 2l-68 108l-69 -108q-1 -3 -6.5 -1.5t-4.5 3.5l68 249q1 5 11 5q11 0 12 -5
l67 -249v-1z" />
    <glyph glyph-name="Scedilla" unicode="&#x15e;" horiz-adv-x="515" 
d="M411 45.5q-52 -48.5 -134 -56.5q-2 -16 -2 -21q0 -20 9.5 -34t30.5 -26q26 -16 40.5 -33.5t14.5 -44.5q0 -42 -30.5 -73.5t-91.5 -31.5q-75 0 -75 48q0 15 12 27t28 12q19 0 27 -8.5t13 -24.5q5 -15 11.5 -22.5t23.5 -7.5q22 0 22 24q0 26 -18.5 47t-64.5 47q-9 3 -9 12
q0 7 4 16q16 37 36 93h-11q-45 0 -94 12.5t-66 27.5q-5 4 -7.5 7.5t-2.5 11.5l-3 159v1q0 4 5 4.5t6 -3.5q30 -61 52.5 -99t57 -67t78.5 -29q40 0 66 21.5t26 73.5q0 44 -19.5 77t-47.5 56t-77 55q-48 31 -74.5 53t-45.5 53t-19 73q0 53 30.5 89.5t78.5 54t101 17.5
q35 0 71 -6.5t58 -15.5q9 -4 12 -8.5t3 -11.5v-147q0 -3 -5 -4.5t-6 1.5l-8 19q-25 63 -58.5 107t-93.5 44q-40 0 -65.5 -23t-25.5 -67q0 -36 18.5 -64t45.5 -49t73 -51q50 -32 80 -56t51 -58.5t21 -79.5q0 -72 -52 -120.5z" />
    <glyph glyph-name="scedilla" unicode="&#x15f;" horiz-adv-x="337" 
d="M255.5 -125.5q14.5 -17.5 14.5 -44.5q0 -42 -30.5 -73.5t-91.5 -31.5q-75 0 -75 48q0 15 12 27t28 12q19 0 27 -8.5t13 -24.5q5 -15 11.5 -22.5t23.5 -7.5q22 0 22 24q0 26 -18.5 47t-64.5 47q-9 3 -9 12q0 7 4 16q18 44 36 94h-4q-55 0 -104 27q-6 6 -6 12l-2 99
q0 3 5.5 3.5t6.5 -1.5q16 -50 53 -85t75 -35q21 0 33.5 13t12.5 38q0 37 -21 58.5t-62 44.5q-35 19 -53 31t-32 34t-14 54q0 59 42 86.5t103 27.5q23 0 41.5 -3t41.5 -12q9 -3 9 -11q0 -25 -1 -39l-1 -50q0 -3 -6 -3t-6 3q0 19 -16 41.5t-41.5 38.5t-52.5 16q-41 0 -41 -39
q0 -29 20.5 -50t59.5 -44q38 -22 56.5 -34.5t33.5 -35t15 -54.5q0 -48 -33 -85.5t-93 -44.5q-2 -16 -2 -22q0 -19 9.5 -33t30.5 -27q26 -16 40.5 -33.5z" />
    <glyph glyph-name="Scaron" unicode="&#x160;" horiz-adv-x="515" 
d="M74 0zM192.5 460q18.5 -28 45.5 -49t73 -51q50 -32 80 -56t51 -58.5t21 -79.5q0 -52 -28 -92.5t-77.5 -63t-110.5 -22.5q-45 0 -94 12.5t-66 27.5q-5 4 -7.5 7.5t-2.5 11.5l-3 159v1q0 4 5 4.5t6 -3.5q30 -61 52.5 -99t57 -67t78.5 -29q40 0 66 21.5t26 73.5
q0 44 -19.5 77t-47.5 56t-77 55q-48 31 -74.5 53t-45.5 53t-19 73q0 53 30.5 89.5t78.5 54t101 17.5q35 0 71 -6.5t58 -15.5q9 -4 12 -8.5t3 -11.5v-147q0 -3 -5 -4.5t-6 1.5l-8 19q-25 63 -58.5 107t-93.5 44q-40 0 -65.5 -23t-25.5 -67q0 -36 18.5 -64zM156 802v2
q0 2 2.5 4t3.5 1l109 -38l108 40h1q3 0 4.5 -2.5t-0.5 -4.5l-102 -117q-4 -4 -11 -4q-8 0 -12 4z" />
    <glyph glyph-name="scaron" unicode="&#x161;" horiz-adv-x="337" 
d="M42 0zM138.5 288q20.5 -21 59.5 -44q38 -22 56.5 -34.5t33.5 -35t15 -54.5q0 -34 -17 -64t-51 -48.5t-81 -18.5q-55 0 -104 27q-6 6 -6 12l-2 99q0 3 5.5 3.5t6.5 -1.5q16 -50 53 -85t75 -35q21 0 33.5 13t12.5 38q0 37 -21 58.5t-62 44.5q-35 19 -53 31t-32 34t-14 54
q0 59 42 86.5t103 27.5q23 0 41.5 -3t41.5 -12q9 -3 9 -11q0 -25 -1 -39l-1 -50q0 -3 -6 -3t-6 3q0 19 -16 41.5t-41.5 38.5t-52.5 16q-41 0 -41 -39q0 -29 20.5 -50zM97 730q5 1 7 -1l69 -109l68 109q2 2 6.5 1t3.5 -4l-67 -249q-2 -5 -11 -5t-12 5l-68 249q-1 3 4 4z" />
    <glyph glyph-name="uni0162" unicode="&#x162;" horiz-adv-x="643" 
d="M600.5 654q5.5 0 5.5 -4q-3 -30 -6.5 -96t-3.5 -106q0 -3 -5 -3t-6 3q-15 77 -56 115.5t-101 38.5q-29 0 -38.5 -12.5t-9.5 -47.5v-461q0 -31 6 -45t23 -19t54 -5q3 0 3 -6t-3 -6q-34 0 -54 1l-76 1q-6 -24 -6 -40q0 -19 8.5 -30.5t28.5 -23.5q26 -16 40.5 -33.5
t14.5 -44.5q0 -42 -30.5 -73.5t-91.5 -31.5q-75 0 -75 48q0 15 12 27t28 12q19 0 27 -8.5t13 -24.5q5 -15 11.5 -22.5t23.5 -7.5q22 0 22 24q0 26 -18.5 47t-64.5 47q-9 3 -9 12q0 7 4 16q25 57 42 107l-74 -1q-20 -1 -55 -1q-3 0 -3 6t3 6q36 0 53.5 5t24 19.5t6.5 44.5
v463q0 34 -9 46t-37 12q-119 0 -171 -155q-1 -3 -6 -2.5t-5 3.5q4 40 9 103.5t5 95.5q0 5 5.5 5t5.5 -5q0 -22 57 -22q86 -3 201 -3q59 0 125 2l68 1q38 0 55.5 5t22.5 20q1 4 6.5 4z" />
    <glyph glyph-name="uni0163" unicode="&#x163;" horiz-adv-x="336" 
d="M324 70q4 0 6.5 -4t-0.5 -6q-36 -36 -70 -53.5t-71 -18.5q-2 -14 -2 -21q0 -19 9.5 -33t30.5 -26q26 -16 40.5 -33.5t14.5 -44.5q0 -42 -30.5 -73.5t-91.5 -31.5q-75 0 -75 48q0 15 12 27t28 12q19 0 27 -8.5t13 -24.5q5 -15 11.5 -22.5t23.5 -7.5q22 0 22 24
q0 26 -18.5 47t-64.5 47q-9 3 -9 12q0 7 4 16q18 44 36 94q-39 3 -65.5 24.5t-26.5 66.5v222q0 31 -11 43t-40 12q-1 0 -2.5 3t-1.5 6q0 4 1 6.5t3 2.5q51 2 82.5 22t48.5 61q2 4 8.5 4t6.5 -4v-80q58 1 130 9q2 0 4.5 -7.5t2.5 -16.5q0 -10 -3.5 -19.5t-7.5 -8.5
q-65 14 -126 15v-237q0 -38 19.5 -56t51.5 -18q40 0 78 30z" />
    <glyph glyph-name="Tcaron" unicode="&#x164;" horiz-adv-x="643" 
d="M40 0zM51 447q-1 -3 -6 -2.5t-5 3.5q4 40 9 103.5t5 95.5q0 5 5.5 5t5.5 -5q0 -22 57 -22q86 -3 201 -3q59 0 125 2l68 1q38 0 55.5 5t22.5 20q1 4 6.5 4t5.5 -4q-3 -30 -6.5 -96t-3.5 -106q0 -3 -5 -3t-6 3q-15 77 -56 115.5t-101 38.5q-29 0 -38.5 -12.5t-9.5 -47.5
v-461q0 -31 6 -45t23 -19t54 -5q3 0 3 -6t-3 -6q-36 0 -57 1l-83 1l-81 -1q-21 -1 -58 -1q-3 0 -3 6t3 6q36 0 53.5 5t24 19.5t6.5 44.5v463q0 34 -9 46t-37 12q-119 0 -171 -155zM207 802v2q0 2 2.5 4t3.5 1l109 -38l108 40h1q3 0 4.5 -2.5t-0.5 -4.5l-102 -117
q-4 -4 -11 -4q-8 0 -12 4z" />
    <glyph glyph-name="tcaron" unicode="&#x165;" horiz-adv-x="336" 
d="M23 0zM324 70q4 0 6.5 -4t-0.5 -6q-37 -37 -72 -54.5t-74 -17.5q-44 0 -75 21t-31 71v222q0 31 -11 43t-40 12q-1 0 -2.5 3t-1.5 6q0 4 1 6.5t3 2.5q51 2 82.5 22t48.5 61q2 4 8.5 4t6.5 -4v-80q58 1 130 9q2 0 4.5 -7.5t2.5 -16.5q0 -10 -3.5 -19.5t-7.5 -8.5
q-65 14 -126 15v-237q0 -38 19.5 -56t51.5 -18q40 0 78 30zM231 694.5q21 -6.5 40 -17t17 -18.5l-59 -236q-1 -2 -6 -1.5t-5 2.5l-8 272q0 5 21 -1.5z" />
    <glyph glyph-name="Tbar" unicode="&#x166;" horiz-adv-x="632" 
d="M600.5 654q5.5 0 5.5 -4q-3 -30 -6.5 -96t-3.5 -106q0 -3 -5 -3t-6 3q-15 77 -56 115.5t-101 38.5q-29 0 -38.5 -12.5t-9.5 -47.5v-205h90q2 0 3.5 -4.5t1.5 -9.5t-1.5 -9.5t-3.5 -4.5h-90v-228q0 -31 6 -45t23 -19t54 -5q3 0 3 -6t-3 -6q-36 0 -57 1l-83 1l-81 -1
q-21 -1 -58 -1q-3 0 -3 6t3 6q36 0 53.5 5t24 19.5t6.5 44.5v228h-91q-4 0 -4 14t4 14h91v207q0 34 -9 46t-37 12q-119 0 -171 -155q-1 -3 -6 -2.5t-5 3.5q4 40 9 103.5t5 95.5q0 5 5.5 5t5.5 -5q0 -22 57 -22q86 -3 201 -3q59 0 125 2l68 1q38 0 55.5 5t22.5 20q1 4 6.5 4z
" />
    <glyph glyph-name="tbar" unicode="&#x167;" horiz-adv-x="339" 
d="M324 70q4 0 6.5 -4t-0.5 -6q-37 -37 -72 -54.5t-74 -17.5q-44 0 -75 21t-31 71v119h-27q-1 0 -2.5 4.5t-1.5 9.5t1.5 9.5t2.5 4.5h27v75q0 31 -11 43t-40 12q-1 0 -2.5 3t-1.5 6q0 4 1 6.5t3 2.5q51 2 82.5 22t48.5 61q2 4 8.5 4t6.5 -4v-80q58 1 130 9q2 0 4.5 -7.5
t2.5 -16.5q0 -10 -3.5 -19.5t-7.5 -8.5q-65 14 -126 15v-123h107q4 0 4 -14t-4 -14h-107v-86q0 -38 19.5 -56t51.5 -18q40 0 78 30z" />
    <glyph glyph-name="Utilde" unicode="&#x168;" horiz-adv-x="703" 
d="M29 0zM546.5 582q-24.5 31 -68.5 31q-2 0 -2 6t2 6l48 -1q38 -2 61 -2q19 0 55 2l46 1q2 0 2 -6t-2 -6q-39 0 -61 -31t-22 -85v-278q0 -70 -31 -123t-87.5 -81.5t-130.5 -28.5t-131 28t-89.5 81.5t-32.5 125.5v323q0 30 -5.5 44t-20 19.5t-45.5 5.5q-3 0 -3 6t3 6l53 -1
q46 -2 73 -2q30 0 76 2l51 1q3 0 3 -6t-3 -6q-31 0 -45.5 -6t-20 -20.5t-5.5 -44.5v-286q0 -119 47 -176t133 -57q83 0 130 50.5t47 144.5v279q0 54 -24.5 85zM475.5 778q10.5 6 23.5 21l2 1q2 0 4 -3t1 -5q-27 -48 -43.5 -64t-39.5 -16q-19 0 -56 11q-17 5 -35 9t-34 4
q-19 0 -27 -5t-24 -22h-1q-3 0 -5.5 2.5t-0.5 4.5q45 81 87 81q11 0 47 -10q18 -6 38 -10.5t36 -4.5q17 0 27.5 6z" />
    <glyph glyph-name="utilde" unicode="&#x169;" horiz-adv-x="505" 
d="M9 0zM499 65q3 0 5.5 -5t-0.5 -6l-138 -67q-2 -1 -5 -1q-10 0 -17.5 21.5t-8.5 58.5q-66 -78 -143 -78q-55 0 -86.5 34.5t-31.5 90.5v147q0 65 -31 65q-11 0 -25 -7h-1q-4 0 -6 5.5t1 6.5l134 64l5 1q5 0 10.5 -4.5t5.5 -8.5v-221q0 -108 83 -108q22 0 44.5 9.5
t40.5 26.5v171q0 65 -31 65q-11 0 -26 -7h-1q-3 0 -5 5.5t1 6.5l134 64q2 1 5 1q5 0 10.5 -4.5t5.5 -8.5v-266q0 -34 6.5 -48t21.5 -14q14 0 41 11h2zM359.5 539q10.5 6 23.5 21l2 1q2 0 4 -3t1 -5q-27 -48 -43.5 -64t-39.5 -16q-19 0 -56 11q-17 5 -35 9t-34 4
q-19 0 -27 -5t-24 -22h-1q-3 0 -5.5 2.5t-0.5 4.5q45 81 87 81q11 0 47 -10q18 -6 38 -10.5t36 -4.5q17 0 27.5 6z" />
    <glyph glyph-name="Umacron" unicode="&#x16a;" horiz-adv-x="703" 
d="M29 0zM546.5 582q-24.5 31 -68.5 31q-2 0 -2 6t2 6l48 -1q38 -2 61 -2q19 0 55 2l46 1q2 0 2 -6t-2 -6q-39 0 -61 -31t-22 -85v-278q0 -70 -31 -123t-87.5 -81.5t-130.5 -28.5t-131 28t-89.5 81.5t-32.5 125.5v323q0 30 -5.5 44t-20 19.5t-45.5 5.5q-3 0 -3 6t3 6l53 -1
q46 -2 73 -2q30 0 76 2l51 1q3 0 3 -6t-3 -6q-31 0 -45.5 -6t-20 -20.5t-5.5 -44.5v-286q0 -119 47 -176t133 -57q83 0 130 50.5t47 144.5v279q0 54 -24.5 85zM240 718.5q-3 5.5 -3 13.5q0 7 3 12.5t7 5.5h251q5 0 8 -5.5t3 -12.5q0 -8 -3 -13.5t-8 -5.5h-251q-4 0 -7 5.5z
" />
    <glyph glyph-name="umacron" unicode="&#x16b;" horiz-adv-x="505" 
d="M9 0zM499 65q3 0 5.5 -5t-0.5 -6l-138 -67q-2 -1 -5 -1q-10 0 -17.5 21.5t-8.5 58.5q-66 -78 -143 -78q-55 0 -86.5 34.5t-31.5 90.5v147q0 65 -31 65q-11 0 -25 -7h-1q-4 0 -6 5.5t1 6.5l134 64l5 1q5 0 10.5 -4.5t5.5 -8.5v-221q0 -108 83 -108q22 0 44.5 9.5
t40.5 26.5v171q0 65 -31 65q-11 0 -26 -7h-1q-3 0 -5 5.5t1 6.5l134 64q2 1 5 1q5 0 10.5 -4.5t5.5 -8.5v-266q0 -34 6.5 -48t21.5 -14q14 0 41 11h2zM124 479.5q-3 5.5 -3 13.5q0 7 3 12.5t7 5.5h251q5 0 8 -5.5t3 -12.5q0 -8 -3 -13.5t-8 -5.5h-251q-4 0 -7 5.5z" />
    <glyph glyph-name="Ubreve" unicode="&#x16c;" horiz-adv-x="703" 
d="M29 0zM546.5 582q-24.5 31 -68.5 31q-2 0 -2 6t2 6l48 -1q38 -2 61 -2q19 0 55 2l46 1q2 0 2 -6t-2 -6q-39 0 -61 -31t-22 -85v-278q0 -70 -31 -123t-87.5 -81.5t-130.5 -28.5t-131 28t-89.5 81.5t-32.5 125.5v323q0 30 -5.5 44t-20 19.5t-45.5 5.5q-3 0 -3 6t3 6l53 -1
q46 -2 73 -2q30 0 76 2l51 1q3 0 3 -6t-3 -6q-31 0 -45.5 -6t-20 -20.5t-5.5 -44.5v-286q0 -119 47 -176t133 -57q83 0 130 50.5t47 144.5v279q0 54 -24.5 85zM296.5 722.5q-26.5 32.5 -26.5 94.5q0 3 5.5 3t5.5 -2q0 -18 27 -34t65 -16q37 0 64 16t27 34q0 2 5.5 2t5.5 -3
q0 -62 -26 -94.5t-76 -32.5t-76.5 32.5z" />
    <glyph glyph-name="ubreve" unicode="&#x16d;" horiz-adv-x="505" 
d="M9 0zM499 65q3 0 5.5 -5t-0.5 -6l-138 -67q-2 -1 -5 -1q-10 0 -17.5 21.5t-8.5 58.5q-66 -78 -143 -78q-55 0 -86.5 34.5t-31.5 90.5v147q0 65 -31 65q-11 0 -25 -7h-1q-4 0 -6 5.5t1 6.5l134 64l5 1q5 0 10.5 -4.5t5.5 -8.5v-221q0 -108 83 -108q22 0 44.5 9.5
t40.5 26.5v171q0 65 -31 65q-11 0 -26 -7h-1q-3 0 -5 5.5t1 6.5l134 64q2 1 5 1q5 0 10.5 -4.5t5.5 -8.5v-266q0 -34 6.5 -48t21.5 -14q14 0 41 11h2zM159.5 628q5.5 0 5.5 -2q0 -32 26.5 -56t65.5 -24q38 0 64.5 24.5t26.5 55.5q0 2 5.5 2t5.5 -3q0 -79 -26 -120.5
t-76 -41.5t-76.5 41.5t-26.5 120.5q0 3 5.5 3z" />
    <glyph glyph-name="Uring" unicode="&#x16e;" horiz-adv-x="703" 
d="M29 0zM546.5 582q-24.5 31 -68.5 31q-2 0 -2 6t2 6l48 -1q38 -2 61 -2q19 0 55 2l46 1q2 0 2 -6t-2 -6q-39 0 -61 -31t-22 -85v-278q0 -70 -31 -123t-87.5 -81.5t-130.5 -28.5t-131 28t-89.5 81.5t-32.5 125.5v323q0 30 -5.5 44t-20 19.5t-45.5 5.5q-3 0 -3 6t3 6l53 -1
q46 -2 73 -2q30 0 76 2l51 1q3 0 3 -6t-3 -6q-31 0 -45.5 -6t-20 -20.5t-5.5 -44.5v-286q0 -119 47 -176t133 -57q83 0 130 50.5t47 144.5v279q0 54 -24.5 85zM287 730.5q-29 23.5 -29 55.5q0 36 36 57t80 21t75 -23.5t31 -56.5q0 -35 -35 -56t-81 -21q-48 0 -77 23.5z
M399.5 732q6.5 11 6.5 34q0 34 -15 59t-37 25q-24 0 -24 -44q0 -33 13.5 -59t36.5 -26q13 0 19.5 11z" />
    <glyph glyph-name="uring" unicode="&#x16f;" horiz-adv-x="505" 
d="M9 0zM499 65q3 0 5.5 -5t-0.5 -6l-138 -67q-2 -1 -5 -1q-10 0 -17.5 21.5t-8.5 58.5q-66 -78 -143 -78q-55 0 -86.5 34.5t-31.5 90.5v147q0 65 -31 65q-11 0 -25 -7h-1q-4 0 -6 5.5t1 6.5l134 64l5 1q5 0 10.5 -4.5t5.5 -8.5v-221q0 -108 83 -108q22 0 44.5 9.5
t40.5 26.5v171q0 65 -31 65q-11 0 -26 -7h-1q-3 0 -5 5.5t1 6.5l134 64q2 1 5 1q5 0 10.5 -4.5t5.5 -8.5v-266q0 -34 6.5 -48t21.5 -14q14 0 41 11h2zM171 491.5q-29 23.5 -29 55.5q0 36 36 57t80 21t75 -23.5t31 -56.5q0 -35 -35 -56t-81 -21q-48 0 -77 23.5zM283.5 493
q6.5 11 6.5 34q0 34 -15 59t-37 25q-24 0 -24 -44q0 -33 13.5 -59t36.5 -26q13 0 19.5 11z" />
    <glyph glyph-name="Uhungarumlaut" unicode="&#x170;" horiz-adv-x="703" 
d="M29 0zM546.5 582q-24.5 31 -68.5 31q-2 0 -2 6t2 6l48 -1q38 -2 61 -2q19 0 55 2l46 1q2 0 2 -6t-2 -6q-39 0 -61 -31t-22 -85v-278q0 -70 -31 -123t-87.5 -81.5t-130.5 -28.5t-131 28t-89.5 81.5t-32.5 125.5v323q0 30 -5.5 44t-20 19.5t-45.5 5.5q-3 0 -3 6t3 6l53 -1
q46 -2 73 -2q30 0 76 2l51 1q3 0 3 -6t-3 -6q-31 0 -45.5 -6t-20 -20.5t-5.5 -44.5v-286q0 -119 47 -176t133 -57q83 0 130 50.5t47 144.5v279q0 54 -24.5 85zM259 667q-4 0 -5.5 4t0.5 7q54 67 90 127q2 3 8 3q12 0 36 -8.5t39 -18t7 -13.5q-91 -41 -172 -100zM411 667
q-3 0 -5 4t0 7q37 43 90 127q2 3 8 3q12 0 36 -8.5t39 -18t7 -13.5q-91 -41 -172 -100z" />
    <glyph glyph-name="uhungarumlaut" unicode="&#x171;" horiz-adv-x="505" 
d="M9 0zM499 65q3 0 5.5 -5t-0.5 -6l-138 -67q-2 -1 -5 -1q-10 0 -17.5 21.5t-8.5 58.5q-66 -78 -143 -78q-55 0 -86.5 34.5t-31.5 90.5v147q0 65 -31 65q-11 0 -25 -7h-1q-4 0 -6 5.5t1 6.5l134 64l5 1q5 0 10.5 -4.5t5.5 -8.5v-221q0 -108 83 -108q22 0 44.5 9.5
t40.5 26.5v171q0 65 -31 65q-11 0 -26 -7h-1q-3 0 -5 5.5t1 6.5l134 64q2 1 5 1q5 0 10.5 -4.5t5.5 -8.5v-266q0 -34 6.5 -48t21.5 -14q14 0 41 11h2zM154 440q-4 0 -5.5 4t0.5 6q45 57 78 114q2 3 9 3q13 0 35 -7t35.5 -15.5t5.5 -12.5q-38 -16 -67.5 -34t-54.5 -35
t-33 -22q-1 -1 -3 -1zM295 440q-4 0 -6 4t0 6q39 48 79 114q2 3 9 3q12 0 34 -7t35.5 -15.5t5.5 -12.5q-38 -16 -67 -33.5t-54 -35t-33 -22.5q-1 -1 -3 -1z" />
    <glyph glyph-name="Uogonek" unicode="&#x172;" horiz-adv-x="703" 
d="M690 619q0 -6 -2 -6q-39 0 -61 -31t-22 -85v-278q0 -86 -46 -145t-126 -79q-28 -28 -40.5 -53.5t-12.5 -58.5q0 -52 26 -84t71 -32q11 0 24 3.5t19 7.5h2q3 0 5.5 -3t-0.5 -5q-55 -45 -112 -45q-51 0 -84.5 32t-33.5 78q0 74 104 154q-21 -3 -45 -3q-74 0 -131 28
t-89.5 81.5t-32.5 125.5v323q0 30 -5.5 44t-20 19.5t-45.5 5.5q-3 0 -3 6t3 6l53 -1q46 -2 73 -2q30 0 76 2l51 1q3 0 3 -6t-3 -6q-31 0 -45.5 -6t-20 -20.5t-5.5 -44.5v-286q0 -119 47 -176t133 -57q83 0 130 50.5t47 144.5v279q0 54 -24.5 85t-68.5 31q-2 0 -2 6t2 6
l48 -1q38 -2 61 -2q19 0 55 2l46 1q2 0 2 -6z" />
    <glyph glyph-name="uogonek" unicode="&#x173;" horiz-adv-x="505" 
d="M499 65q3 0 5.5 -5t-0.5 -6l-8 -4q-63 -31 -98.5 -59t-51 -60t-15.5 -76q0 -91 76 -91q28 0 52 14h2q3 0 5.5 -3t-0.5 -5q-55 -45 -120 -45q-53 0 -81.5 26t-28.5 70q0 85 121 166q-9 5 -15 25.5t-7 53.5q-66 -78 -143 -78q-55 0 -86.5 34.5t-31.5 90.5v147q0 65 -31 65
q-11 0 -25 -7h-1q-4 0 -6 5.5t1 6.5l134 64l5 1q5 0 10.5 -4.5t5.5 -8.5v-221q0 -108 83 -108q22 0 44.5 9.5t40.5 26.5v171q0 65 -31 65q-11 0 -26 -7h-1q-3 0 -5 5.5t1 6.5l134 64q2 1 5 1q5 0 10.5 -4.5t5.5 -8.5v-266q0 -34 6.5 -48t21.5 -14q14 0 41 11h2z" />
    <glyph glyph-name="Wcircumflex" unicode="&#x174;" horiz-adv-x="911" 
d="M2 0zM919 619q0 -6 -2 -6q-37 0 -69.5 -31.5t-53.5 -86.5l-185 -494q-1 -4 -11 -4t-11 4l-128 271l-101 -271q-1 -4 -11 -4t-11 4l-255 541q-15 32 -24.5 46t-21 19.5t-30.5 5.5q-3 0 -3 6t3 6q15 0 21 -1q20 -2 52 -2q67 0 113 2q13 1 32 1q3 0 3 -6t-3 -6
q-25 0 -35.5 -5t-10.5 -18q0 -17 23 -66l180 -382l63 165l-111 235q-17 36 -32 53.5t-32 17.5q-3 0 -3 6t3 6q10 0 23.5 -1.5t38.5 -1.5q57 0 95 2q10 1 26 1q3 0 3 -6t-3 -6q-14 0 -20.5 -3.5t-6.5 -12.5q0 -17 27 -73l44 -93l25 67q22 57 22 86t-25 29q-3 0 -3 6t3 6
q8 0 17.5 -1.5t47.5 -1.5q17 0 41 2l37 1q2 0 2 -6t-2 -6q-67 0 -111 -118l-37 -99l120 -253l129 345q12 32 12 58q0 31 -15.5 49t-41.5 18q-3 0 -3 6t3 6l46 -1q36 -2 66 -2q20 0 46 2l43 1q2 0 2 -6zM460 818q5 5 12 5q6 0 11 -5l102 -116q1 0 1 -2t-2.5 -4t-3.5 -1
l-108 39l-109 -39q-2 -1 -5 2.5t-1 4.5z" />
    <glyph glyph-name="wcircumflex" unicode="&#x175;" horiz-adv-x="685" 
d="M0 0zM702 380q0 -6 -3 -6q-28 0 -50.5 -21.5t-42.5 -68.5l-123 -283q0 -4 -10 -4q-11 0 -12 4l-121 238l-103 -238q0 -4 -10 -4q-9 0 -12 4l-153 302q-22 43 -37.5 57t-38.5 14q-3 0 -3 6t3 6q18 0 30 -1l67 -1l71 1q15 1 41 1q3 0 3 -6t-3 -6q-51 0 -51 -22q0 -6 6 -17
l116 -209l59 143l-17 34q-23 44 -35 57.5t-30 13.5q-2 0 -2 6t2 6q16 0 26 -1l60 -1l71 1q15 1 41 1q2 0 2 -6t-2 -6q-20 0 -32.5 -6.5t-12.5 -17.5q0 -8 4 -15l112 -210l66 160q8 21 8 36q0 25 -17.5 39t-46.5 14q-3 0 -3 6t3 6q27 0 40 -1l60 -1l41 1q11 1 36 1q3 0 3 -6z
M419 475q0 -2 -4.5 -3t-5.5 2l-68 108l-69 -108q-1 -3 -6.5 -1.5t-4.5 3.5l68 249q1 5 11 5q11 0 12 -5l67 -249v-1z" />
    </font>
</defs>
</svg>
